SplineFontDB: 3.2
FontName: IRTerafik-Italic
FullName: IRTerafik-Italic
FamilyName: IRTerafik
Weight: Book
Copyright: Copyright (c) 2022, Information Technology Organization of Iran (ito.gov.ir)
Version: 1.000
ItalicAngle: 0
UnderlinePosition: -100
UnderlineWidth: 60
Ascent: 1638
Descent: 410
InvalidEm: 0
sfntRevision: 0x00010000
LayerCount: 2
Layer: 0 1 "Back" 1
Layer: 1 1 "Fore" 0
XUID: [1021 420 722297922 9016919]
StyleMap: 0x0001
FSType: 0
OS2Version: 3
OS2_WeightWidthSlopeOnly: 0
OS2_UseTypoMetrics: 0
CreationTime: 1356421547
ModificationTime: 1662631384
PfmFamily: 17
TTFWeight: 400
TTFWidth: 5
LineGap: 100
VLineGap: 0
Panose: 2 0 5 3 0 0 0 2 0 2
OS2TypoAscent: 2100
OS2TypoAOffset: 0
OS2TypoDescent: -1300
OS2TypoDOffset: 0
OS2TypoLinegap: 300
OS2WinAscent: 2100
OS2WinAOffset: 0
OS2WinDescent: 1300
OS2WinDOffset: 0
HheadAscent: 2100
HheadAOffset: 0
HheadDescent: -1300
HheadDOffset: 0
OS2SubXSize: 1434
OS2SubYSize: 1331
OS2SubXOff: 0
OS2SubYOff: 293
OS2SupXSize: 1434
OS2SupYSize: 1331
OS2SupXOff: 0
OS2SupYOff: 928
OS2StrikeYSize: 50
OS2StrikeYPos: 250
OS2CapHeight: 2108
OS2XHeight: 707
OS2FamilyClass: 2048
OS2Vendor: 'PARS'
OS2CodePages: 20000041.00000000
OS2UnicodeRanges: 00002003.00000000.00000000.00000000
Lookup: 1 1 0 "'init' Initial Forms in Arabic lookup 0" { "'init' Initial Forms in Arabic lookup 0 subtable"  } ['init' ('arab' <'dflt' > ) ]
Lookup: 1 1 0 "'isol' Isolated Forms in Arabic lookup 1" { "'isol' Isolated Forms in Arabic lookup 1 subtable"  } ['isol' ('arab' <'dflt' > ) ]
Lookup: 1 1 0 "'medi' Medial Forms in Arabic lookup 2" { "'medi' Medial Forms in Arabic lookup 2 subtable"  } ['medi' ('arab' <'dflt' > ) ]
Lookup: 1 1 0 "'fina' Terminal Forms in Arabic lookup 3" { "'fina' Terminal Forms in Arabic lookup 3 subtable"  } ['fina' ('arab' <'dflt' > ) ]
Lookup: 4 1 0 "'ccmp' Glyph Composition/Decomposition in Arabic lookup 4" { "'ccmp' Glyph Composition/Decomposition in Arabic lookup 4 subtable"  } ['ccmp' ('arab' <'dflt' > ) ]

StartChar: quotedbl
Encoding: 34 34 1
Width: 480
Flags: W
LayerCount: 2
Fore
SplineSet
-165 1145 m 1,0,-1
 -43 1145 l 1,1,-1
 -6 823 l 1,2,-1
 -74 823 l 1,3,-1
 -165 1145 l 1,0,-1
47 1145 m 1,4,-1
 168 1145 l 1,5,-1
 205 823 l 1,6,-1
 138 823 l 1,7,-1
 47 1145 l 1,4,-1
EndSplineSet
EndChar

StartChar: numbersign
Encoding: 35 35 2
Width: 911
Flags: W
LayerCount: 2
Fore
SplineSet
77 -20 m 1,0,-1
 220 321 l 1,1,-1
 85 321 l 1,2,-1
 110 440 l 1,3,-1
 269 440 l 1,4,-1
 390 730 l 1,5,-1
 172 730 l 1,6,-1
 197 850 l 1,7,-1
 439 850 l 1,8,-1
 582 1193 l 1,9,-1
 702 1193 l 1,10,-1
 559 850 l 1,11,-1
 811 850 l 1,12,-1
 954 1193 l 1,13,-1
 1075 1193 l 1,14,-1
 932 850 l 1,15,-1
 1070 850 l 1,16,-1
 1045 730 l 1,17,-1
 883 730 l 1,18,-1
 761 440 l 1,19,-1
 983 440 l 1,20,-1
 958 321 l 1,21,-1
 712 321 l 1,22,-1
 569 -20 l 1,23,-1
 449 -20 l 1,24,-1
 591 321 l 1,25,-1
 340 321 l 1,26,-1
 197 -20 l 1,27,-1
 77 -20 l 1,0,-1
389 440 m 1,28,-1
 640 440 l 1,29,-1
 762 730 l 1,30,-1
 510 730 l 1,31,-1
 389 440 l 1,28,-1
EndSplineSet
EndChar

StartChar: dollar
Encoding: 36 36 3
Width: 911
Flags: W
LayerCount: 2
Fore
SplineSet
372 -169 m 1,0,-1
 402 -25 l 1,1,2
 297 -11 297 -11 237 23.5 c 128,-1,3
 177 58 177 58 144 136 c 128,-1,4
 111 214 111 214 127 326 c 1,5,-1
 278 353 l 1,6,7
 270 237 270 237 300 182 c 0,8,9
 345 106 345 106 428 97 c 1,10,-1
 525 555 l 1,11,12
 440 572 440 572 358 624 c 0,13,14
 298 662 298 662 275 730 c 128,-1,15
 252 798 252 798 271 885 c 0,16,17
 303 1038 303 1038 433 1134 c 0,18,19
 519 1198 519 1198 665 1212 c 1,20,-1
 680 1281 l 1,21,-1
 765 1281 l 1,22,-1
 750 1212 l 1,23,24
 873 1200 873 1200 933 1138 c 0,25,26
 1011 1060 1011 1060 1002 923 c 1,27,-1
 848 901 l 1,28,29
 853 986 853 986 822 1031 c 128,-1,30
 791 1076 791 1076 724 1090 c 1,31,-1
 636 675 l 1,32,33
 739 648 739 648 771 633 c 0,34,35
 832 603 832 603 865.5 560.5 c 128,-1,36
 899 518 899 518 909 460 c 128,-1,37
 919 402 919 402 904 334 c 0,38,39
 873 184 873 184 756.5 84 c 128,-1,40
 640 -16 640 -16 488 -23 c 1,41,-1
 457 -169 l 1,42,-1
 372 -169 l 1,0,-1
640 1092 m 1,43,44
 553 1079 553 1079 493 1024.5 c 128,-1,45
 433 970 433 970 417 896 c 256,46,47
 401 822 401 822 432 772.5 c 128,-1,48
 463 723 463 723 555 694 c 1,49,-1
 640 1092 l 1,43,44
513 97 m 1,50,51
 599 107 599 107 667 169.5 c 128,-1,52
 735 232 735 232 754 324 c 0,53,54
 771 402 771 402 742.5 450 c 128,-1,55
 714 498 714 498 606 535 c 1,56,-1
 513 97 l 1,50,51
EndSplineSet
EndChar

StartChar: percent
Encoding: 37 37 4
Width: 1457
Flags: W
LayerCount: 2
Fore
SplineSet
284 891 m 0,0,1
 311 1017 311 1017 393 1105 c 128,-1,2
 475 1193 475 1193 595 1193 c 0,3,4
 705 1193 705 1193 760.5 1114 c 128,-1,5
 816 1035 816 1035 784 882 c 0,6,7
 753 734 753 734 662 653.5 c 128,-1,8
 571 573 571 573 464 573 c 0,9,10
 358 573 358 573 304 652 c 128,-1,11
 250 731 250 731 284 891 c 0,0,1
578 1094 m 0,12,13
 524 1094 524 1094 478.5 1047.5 c 128,-1,14
 433 1001 433 1001 407 877 c 0,15,16
 383 764 383 764 409 718 c 128,-1,17
 435 672 435 672 488 672 c 0,18,19
 542 672 542 672 587.5 718.5 c 128,-1,20
 633 765 633 765 659 888 c 0,21,22
 683 1002 683 1002 657 1048 c 128,-1,23
 631 1094 631 1094 578 1094 c 0,12,13
336 -43 m 1,24,-1
 1241 1193 l 1,25,-1
 1358 1193 l 1,26,-1
 456 -43 l 1,27,-1
 336 -43 l 1,24,-1
912 275 m 0,28,29
 939 402 939 402 1020.5 489.5 c 128,-1,30
 1102 577 1102 577 1223 577 c 0,31,32
 1333 577 1333 577 1389 498 c 128,-1,33
 1445 419 1445 419 1412 266 c 0,34,35
 1381 118 1381 118 1290.5 37.5 c 128,-1,36
 1200 -43 1200 -43 1092 -43 c 0,37,38
 985 -43 985 -43 931.5 36.5 c 128,-1,39
 878 116 878 116 912 275 c 0,28,29
1206 478 m 0,40,41
 1151 478 1151 478 1105.5 431.5 c 128,-1,42
 1060 385 1060 385 1034 261 c 0,43,44
 1010 149 1010 149 1036 102.5 c 128,-1,45
 1062 56 1062 56 1115 56 c 0,46,47
 1170 56 1170 56 1215.5 102.5 c 128,-1,48
 1261 149 1261 149 1287 272 c 0,49,50
 1312 386 1312 386 1285.5 432 c 128,-1,51
 1259 478 1259 478 1206 478 c 0,40,41
EndSplineSet
EndChar

StartChar: ampersand
Encoding: 38 38 5
Width: 1093
Flags: W
LayerCount: 2
Fore
SplineSet
807 138 m 1,0,1
 719 59 719 59 626.5 19.5 c 128,-1,2
 534 -20 534 -20 437 -20 c 0,3,4
 257 -20 257 -20 177 102 c 0,5,6
 112 201 112 201 138 323 c 0,7,8
 161 432 161 432 250 519.5 c 128,-1,9
 339 607 339 607 493 674 c 1,10,11
 432 765 432 765 418 821.5 c 128,-1,12
 404 878 404 878 415 931 c 0,13,14
 438 1037 438 1037 537 1115 c 128,-1,15
 636 1193 636 1193 762 1193 c 0,16,17
 882 1193 882 1193 943 1119.5 c 128,-1,18
 1004 1046 1004 1046 982 942 c 0,19,20
 946 775 946 775 699 657 c 1,21,-1
 852 389 l 1,22,23
 903 459 903 459 943 552 c 1,24,-1
 1086 520 l 1,25,26
 1015 366 1015 366 928 267 c 1,27,28
 987 160 987 160 1073 87 c 1,29,-1
 952 -27 l 1,30,31
 877 29 877 29 807 138 c 1,0,1
645 750 m 1,32,33
 750 805 750 805 786 846.5 c 128,-1,34
 822 888 822 888 833 938 c 0,35,36
 846 998 846 998 816 1036 c 128,-1,37
 786 1074 786 1074 730 1074 c 0,38,39
 671 1074 671 1074 624.5 1036.5 c 128,-1,40
 578 999 578 999 566 945 c 0,41,42
 561 918 561 918 568.5 888 c 128,-1,43
 576 858 576 858 597 824 c 2,44,-1
 645 750 l 1,32,33
741 252 m 1,45,-1
 547 579 l 1,46,47
 415 510 415 510 361.5 450 c 128,-1,48
 308 390 308 390 296 332 c 0,49,50
 281 261 281 261 321 184 c 128,-1,51
 361 107 361 107 465 107 c 0,52,53
 530 107 530 107 607.5 147.5 c 128,-1,54
 685 188 685 188 741 252 c 1,45,-1
EndSplineSet
EndChar

StartChar: quotesingle
Encoding: 39 39 6
Width: 305
Flags: W
LayerCount: 2
Fore
SplineSet
-165 1145 m 1,0,-1
 -43 1145 l 1,1,-1
 -6 823 l 1,2,-1
 -74 823 l 1,3,-1
 -165 1145 l 1,0,-1
EndSplineSet
EndChar

StartChar: asterisk
Encoding: 42 42 7
Width: 774
Flags: W
LayerCount: 2
Fore
SplineSet
278 713 m 1,0,-1
 309 569 l 2,1,2
 312 555 312 555 306 545 c 128,-1,3
 300 535 300 535 285 535 c 2,4,-1
 234 535 l 2,5,6
 226 535 226 535 213.5 545 c 128,-1,7
 201 555 201 555 198 569 c 2,8,-1
 167 713 l 1,9,-1
 90 612 l 1,10,11
 66 594 66 594 33 612 c 1,12,-1
 -4 645 l 2,13,14
 -26 668 -26 668 -8 694 c 2,15,-1
 70 797 l 1,16,-1
 -73 797 l 2,17,18
 -87 797 -87 797 -101.5 806 c 128,-1,19
 -116 815 -116 815 -119 831 c 2,20,-1
 -130 881 l 2,21,22
 -132 891 -132 891 -121.5 900 c 128,-1,23
 -111 909 -111 909 -97 909 c 2,24,-1
 37 909 l 1,25,-1
 -81 1010 l 2,26,27
 -98 1022 -98 1022 -102 1036.5 c 128,-1,28
 -106 1051 -106 1051 -99 1065 c 1,29,-1
 -68 1096 l 2,30,31
 -61 1106 -61 1106 -48 1105 c 128,-1,32
 -35 1104 -35 1104 -20 1090 c 2,33,-1
 109 985 l 1,34,-1
 76 1141 l 2,35,36
 73 1153 73 1153 81.5 1164.5 c 128,-1,37
 90 1176 90 1176 98 1176 c 2,38,-1
 149 1176 l 2,39,40
 164 1176 164 1176 174 1164.5 c 128,-1,41
 184 1153 184 1153 187 1141 c 2,42,-1
 219 991 l 1,43,-1
 304 1096 l 2,44,45
 313 1110 313 1110 324.5 1111 c 128,-1,46
 336 1112 336 1112 357 1104 c 1,47,-1
 391 1065 l 1,48,49
 404 1057 404 1057 406.5 1044.5 c 128,-1,50
 409 1032 409 1032 400 1016 c 2,51,-1
 318 909 l 1,52,-1
 474 909 l 2,53,54
 484 909 484 909 498 900 c 128,-1,55
 512 891 512 891 514 881 c 2,56,-1
 525 831 l 2,57,58
 528 815 528 815 518 806 c 128,-1,59
 508 797 508 797 498 797 c 2,60,-1
 334 797 l 1,61,-1
 468 694 l 1,62,63
 493 668 493 668 480 637 c 1,64,-1
 457 606 l 1,65,66
 438 588 438 588 406 612 c 2,67,-1
 278 713 l 1,0,-1
EndSplineSet
EndChar

StartChar: plus
Encoding: 43 43 8
Width: 864
Flags: W
LayerCount: 2
Fore
SplineSet
253 444 m 1,0,-1
 -26 444 l 1,1,-1
 -55 577 l 1,2,-1
 224 577 l 1,3,-1
 164 861 l 1,4,-1
 297 861 l 1,5,-1
 357 577 l 1,6,-1
 650 577 l 1,7,-1
 679 444 l 1,8,-1
 386 444 l 1,9,-1
 446 161 l 1,10,-1
 313 161 l 1,11,-1
 253 444 l 1,0,-1
EndSplineSet
EndChar

StartChar: hyphen
Encoding: 45 45 9
Width: 910
Flags: W
LayerCount: 2
Fore
SplineSet
-3 484 m 1,0,-1
 -32 617 l 1,1,-1
 673 617 l 1,2,-1
 702 484 l 1,3,-1
 -3 484 l 1,0,-1
EndSplineSet
EndChar

StartChar: period
Encoding: 46 46 10
Width: 483
Flags: W
LayerCount: 2
Fore
SplineSet
375 114 m 256,0,1
 380 90 380 90 375.5 68.5 c 128,-1,2
 371 47 371 47 359 31 c 128,-1,3
 347 15 347 15 327.5 6 c 128,-1,4
 308 -3 308 -3 284 -3 c 256,5,6
 260 -3 260 -3 237 6 c 128,-1,7
 214 15 214 15 194.5 31 c 128,-1,8
 175 47 175 47 161 68.5 c 128,-1,9
 147 90 147 90 142 114 c 256,10,11
 137 138 137 138 142 159 c 128,-1,12
 147 180 147 180 159.5 196 c 128,-1,13
 172 212 172 212 191.5 221 c 128,-1,14
 211 230 211 230 235 230 c 256,15,16
 259 230 259 230 282.5 221 c 128,-1,17
 306 212 306 212 324.5 196 c 128,-1,18
 343 180 343 180 356.5 159 c 128,-1,19
 370 138 370 138 375 114 c 256,0,1
EndSplineSet
EndChar

StartChar: slash
Encoding: 47 47 11
Width: 586
Flags: W
LayerCount: 2
Fore
SplineSet
178 1239 m 1,0,-1
 322 1239 l 1,1,-1
 184 -192 l 1,2,-1
 40 -192 l 1,3,-1
 178 1239 l 1,0,-1
EndSplineSet
EndChar

StartChar: zero
Encoding: 48 48 12
Width: 911
Flags: W
LayerCount: 2
Fore
SplineSet
190 578 m 0,0,1
 235 786 235 786 305 913 c 128,-1,2
 375 1040 375 1040 473.5 1109 c 128,-1,3
 572 1178 572 1178 700 1178 c 0,4,5
 795 1178 795 1178 858 1140 c 128,-1,6
 921 1102 921 1102 952 1030 c 128,-1,7
 983 958 983 958 988 855.5 c 128,-1,8
 993 753 993 753 955 578 c 0,9,10
 912 372 912 372 842.5 245 c 128,-1,11
 773 118 773 118 673.5 49 c 128,-1,12
 574 -20 574 -20 445 -20 c 0,13,14
 276 -20 276 -20 205 102 c 0,15,16
 120 248 120 248 190 578 c 0,0,1
338 578 m 0,17,18
 277 290 277 290 324 194 c 128,-1,19
 371 98 371 98 470 98 c 0,20,21
 570 98 570 98 658 194 c 128,-1,22
 746 290 746 290 807 578 c 0,23,24
 869 868 869 868 821.5 963 c 128,-1,25
 774 1058 774 1058 673 1058 c 0,26,27
 574 1058 574 1058 497 974 c 0,28,29
 400 867 400 867 338 578 c 0,17,18
EndSplineSet
EndChar

StartChar: one
Encoding: 49 49 13
Width: 911
Flags: W
LayerCount: 2
Fore
SplineSet
610 0 m 1,0,-1
 466 0 l 1,1,-1
 661 918 l 1,2,3
 598 868 598 868 503.5 818.5 c 128,-1,4
 409 769 409 769 336 744 c 1,5,-1
 365 883 l 1,6,7
 498 940 498 940 606 1021 c 128,-1,8
 714 1102 714 1102 768 1178 c 1,9,-1
 860 1178 l 1,10,-1
 610 0 l 1,0,-1
EndSplineSet
EndChar

StartChar: two
Encoding: 50 50 14
Width: 911
Flags: W
LayerCount: 2
Fore
SplineSet
854 138 m 1,0,-1
 825 0 l 1,1,-1
 50 0 l 1,2,3
 59 52 59 52 87 100 c 0,4,5
 134 179 134 179 215 256 c 128,-1,6
 296 333 296 333 442 434 c 0,7,8
 666 590 666 590 752.5 682 c 128,-1,9
 839 774 839 774 856 855 c 0,10,11
 875 941 875 941 826 999.5 c 128,-1,12
 777 1058 777 1058 678 1058 c 0,13,14
 574 1058 574 1058 499 996 c 128,-1,15
 424 934 424 934 399 823 c 1,16,-1
 255 838 l 1,17,18
 305 1004 305 1004 422.5 1091 c 128,-1,19
 540 1178 540 1178 708 1178 c 256,20,21
 876 1178 876 1178 954.5 1084 c 128,-1,22
 1033 990 1033 990 1004 852 c 0,23,24
 989 782 989 782 946 714 c 128,-1,25
 903 646 903 646 820 570.5 c 128,-1,26
 737 495 737 495 554 364 c 0,27,28
 401 255 401 255 356 216.5 c 128,-1,29
 311 178 311 178 279 138 c 1,30,-1
 854 138 l 1,0,-1
EndSplineSet
EndChar

StartChar: three
Encoding: 51 51 15
Width: 911
Flags: W
LayerCount: 2
Fore
SplineSet
134 310 m 1,0,-1
 282 329 l 1,1,2
 281 206 281 206 329 152 c 128,-1,3
 377 98 377 98 462 98 c 0,4,5
 564 98 564 98 649 168.5 c 128,-1,6
 734 239 734 239 756 343 c 0,7,8
 777 442 777 442 726 506.5 c 128,-1,9
 675 571 675 571 575 571 c 0,10,11
 535 571 535 571 470 555 c 1,12,-1
 513 682 l 1,13,14
 527 680 527 680 536 680 c 0,15,16
 628 680 628 680 711.5 728 c 128,-1,17
 795 776 795 776 817 876 c 0,18,19
 833 955 833 955 791 1007 c 128,-1,20
 749 1059 749 1059 664 1059 c 0,21,22
 580 1059 580 1059 512.5 1006.5 c 128,-1,23
 445 954 445 954 407 848 c 1,24,-1
 268 874 l 1,25,26
 326 1018 326 1018 436.5 1098 c 128,-1,27
 547 1178 547 1178 686 1178 c 0,28,29
 782 1178 782 1178 854 1136.5 c 128,-1,30
 926 1095 926 1095 953.5 1024 c 128,-1,31
 981 953 981 953 964 873 c 0,32,33
 948 797 948 797 894 734.5 c 128,-1,34
 840 672 840 672 752 635 c 1,35,36
 851 611 851 611 892.5 535.5 c 128,-1,37
 934 460 934 460 910 346 c 0,38,39
 878 193 878 193 743 86 c 128,-1,40
 608 -21 608 -21 437 -21 c 0,41,42
 282 -21 282 -21 199.5 71 c 128,-1,43
 117 163 117 163 134 310 c 1,0,-1
EndSplineSet
EndChar

StartChar: four
Encoding: 52 52 16
Width: 911
Flags: W
LayerCount: 2
Fore
SplineSet
530 0 m 1,0,-1
 589 281 l 1,1,-1
 80 281 l 1,2,-1
 108 413 l 1,3,-1
 805 1173 l 1,4,-1
 923 1173 l 1,5,-1
 761 413 l 1,6,-1
 919 413 l 1,7,-1
 891 281 l 1,8,-1
 733 281 l 1,9,-1
 674 0 l 1,10,-1
 530 0 l 1,0,-1
617 413 m 1,11,-1
 730 942 l 1,12,-1
 249 413 l 1,13,-1
 617 413 l 1,11,-1
EndSplineSet
EndChar

StartChar: five
Encoding: 53 53 17
Width: 911
Flags: W
LayerCount: 2
Fore
SplineSet
133 307 m 1,0,-1
 287 320 l 1,1,2
 280 210 280 210 329 154 c 128,-1,3
 378 98 378 98 465 98 c 0,4,5
 569 98 569 98 658 176.5 c 128,-1,6
 747 255 747 255 774 385 c 0,7,8
 800 508 800 508 746 579 c 128,-1,9
 692 650 692 650 580 650 c 0,10,11
 511 650 511 650 448 618.5 c 128,-1,12
 385 587 385 587 343 537 c 1,13,-1
 211 554 l 1,14,-1
 452 1157 l 1,15,-1
 1035 1157 l 1,16,-1
 1006 1019 l 1,17,-1
 538 1019 l 1,18,-1
 408 704 l 1,19,20
 530 778 530 778 646 778 c 0,21,22
 799 778 799 778 882.5 671.5 c 128,-1,23
 966 565 966 565 930 398 c 0,24,25
 896 238 896 238 778 122 c 0,26,27
 635 -20 635 -20 440 -20 c 0,28,29
 280 -20 280 -20 197.5 69.5 c 128,-1,30
 115 159 115 159 133 307 c 1,0,-1
EndSplineSet
EndChar

StartChar: six
Encoding: 54 54 18
Width: 911
Flags: W
LayerCount: 2
Fore
SplineSet
1003 886 m 1,0,-1
 857 874 l 1,1,2
 856 959 856 959 830 998 c 0,3,4
 784 1059 784 1059 699 1059 c 0,5,6
 630 1059 630 1059 570 1021 c 0,7,8
 491 971 491 971 431.5 876 c 128,-1,9
 372 781 372 781 333 605 c 1,10,11
 402 684 402 684 485 722.5 c 128,-1,12
 568 761 568 761 651 761 c 0,13,14
 795 761 795 761 873.5 655 c 128,-1,15
 952 549 952 549 916 381 c 0,16,17
 893 270 893 270 825.5 175.5 c 128,-1,18
 758 81 758 81 663.5 30.5 c 128,-1,19
 569 -20 569 -20 464 -20 c 0,20,21
 284 -20 284 -20 199 112.5 c 128,-1,22
 114 245 114 245 178 549 c 0,23,24
 250 889 250 889 408 1043 c 0,25,26
 547 1178 547 1178 732 1178 c 0,27,28
 871 1178 871 1178 943 1100 c 128,-1,29
 1015 1022 1015 1022 1003 886 c 1,0,-1
307 380 m 0,30,31
 292 306 292 306 309 238 c 128,-1,32
 326 170 326 170 375 134 c 128,-1,33
 424 98 424 98 486 98 c 0,34,35
 578 98 578 98 659.5 172 c 128,-1,36
 741 246 741 246 768 372 c 0,37,38
 794 494 794 494 743.5 564 c 128,-1,39
 693 634 693 634 595 634 c 256,40,41
 497 634 497 634 414.5 564 c 128,-1,42
 332 494 332 494 307 380 c 0,30,31
EndSplineSet
EndChar

StartChar: seven
Encoding: 55 55 19
Width: 911
Flags: W
LayerCount: 2
Fore
SplineSet
294 1019 m 1,0,-1
 324 1158 l 1,1,-1
 1083 1158 l 1,2,-1
 1059 1046 l 1,3,4
 921 926 921 926 769 728.5 c 128,-1,5
 617 531 617 531 513 322 c 0,6,7
 439 175 439 175 390 0 c 1,8,-1
 242 0 l 1,9,10
 273 138 273 138 366.5 334 c 128,-1,11
 460 530 460 530 596 712 c 128,-1,12
 732 894 732 894 868 1019 c 1,13,-1
 294 1019 l 1,0,-1
EndSplineSet
EndChar

StartChar: eight
Encoding: 56 56 20
Width: 911
Flags: W
LayerCount: 2
Fore
SplineSet
425 636 m 1,0,1
 342 669 342 669 311.5 729.5 c 128,-1,2
 281 790 281 790 299 875 c 0,3,4
 327 1003 327 1003 437.5 1090.5 c 128,-1,5
 548 1178 548 1178 700 1178 c 0,6,7
 854 1178 854 1178 928.5 1088.5 c 128,-1,8
 1003 999 1003 999 976 871 c 0,9,10
 958 790 958 790 903 729.5 c 128,-1,11
 848 669 848 669 753 636 c 1,12,13
 853 601 853 601 893 522.5 c 128,-1,14
 933 444 933 444 910 335 c 0,15,16
 878 185 878 185 749.5 82.5 c 128,-1,17
 621 -20 621 -20 448 -20 c 0,18,19
 274 -20 274 -20 189.5 83 c 128,-1,20
 105 186 105 186 138 339 c 0,21,22
 162 454 162 454 236.5 531 c 128,-1,23
 311 608 311 608 425 636 c 1,0,1
448 880 m 0,24,25
 430 797 430 797 472 744 c 128,-1,26
 514 691 514 691 600 691 c 0,27,28
 683 691 683 691 747.5 743.5 c 128,-1,29
 812 796 812 796 828 872 c 0,30,31
 845 951 845 951 802 1005 c 128,-1,32
 759 1059 759 1059 677 1059 c 256,33,34
 595 1059 595 1059 529 1006.5 c 128,-1,35
 463 954 463 954 448 880 c 0,24,25
285 338 m 0,36,37
 272 277 272 277 289.5 219.5 c 128,-1,38
 307 162 307 162 357.5 130 c 128,-1,39
 408 98 408 98 474 98 c 0,40,41
 578 98 578 98 659.5 164.5 c 128,-1,42
 741 231 741 231 762 334 c 0,43,44
 785 438 785 438 730.5 506 c 128,-1,45
 676 574 676 574 572 574 c 0,46,47
 470 574 470 574 388.5 506.5 c 128,-1,48
 307 439 307 439 285 338 c 0,36,37
EndSplineSet
EndChar

StartChar: nine
Encoding: 57 57 21
Width: 911
Flags: W
LayerCount: 2
Fore
SplineSet
147 271 m 1,0,-1
 288 284 l 1,1,2
 285 186 285 186 325 142 c 128,-1,3
 365 98 365 98 442 98 c 0,4,5
 509 98 509 98 565.5 128.5 c 128,-1,6
 622 159 622 159 665 210 c 128,-1,7
 708 261 708 261 748 347.5 c 128,-1,8
 788 434 788 434 807 523 c 0,9,10
 809 533 809 533 812 552 c 1,11,12
 754 483 754 483 670 440.5 c 128,-1,13
 586 398 586 398 499 398 c 0,14,15
 354 398 354 398 275.5 503.5 c 128,-1,16
 197 609 197 609 234 782 c 0,17,18
 272 960 272 960 400 1069 c 128,-1,19
 528 1178 528 1178 687 1178 c 0,20,21
 801 1178 801 1178 883 1116 c 128,-1,22
 965 1054 965 1054 989.5 940 c 128,-1,23
 1014 826 1014 826 968 610 c 0,24,25
 921 386 921 386 844 252.5 c 128,-1,26
 767 119 767 119 655.5 49.5 c 128,-1,27
 544 -20 544 -20 414 -20 c 0,28,29
 277 -20 277 -20 206 56.5 c 128,-1,30
 135 133 135 133 147 271 c 1,0,-1
846 789 m 0,31,32
 873 913 873 913 822 985.5 c 128,-1,33
 771 1058 771 1058 678 1058 c 0,34,35
 582 1058 582 1058 494.5 980 c 128,-1,36
 407 902 407 902 381 777 c 0,37,38
 357 665 357 665 409.5 595 c 128,-1,39
 462 525 462 525 561 525 c 0,40,41
 661 525 661 525 740.5 595 c 128,-1,42
 820 665 820 665 846 789 c 0,31,32
EndSplineSet
EndChar

StartChar: less
Encoding: 60 60 22
Width: 1117
Flags: W
LayerCount: 2
Fore
SplineSet
942 58 m 1,0,-1
 55 444 l 1,1,-1
 36 534 l 1,2,-1
 759 918 l 1,3,-1
 788 784 l 1,4,-1
 227 489 l 1,5,-1
 914 192 l 1,6,-1
 942 58 l 1,0,-1
EndSplineSet
EndChar

StartChar: equal
Encoding: 61 61 23
Width: 1117
Flags: W
LayerCount: 2
Fore
SplineSet
848 586 m 1,0,-1
 19 586 l 1,1,-1
 -6 706 l 1,2,-1
 822 706 l 1,3,-1
 848 586 l 1,0,-1
915 271 m 1,4,-1
 86 271 l 1,5,-1
 60 391 l 1,6,-1
 889 391 l 1,7,-1
 915 271 l 1,4,-1
EndSplineSet
EndChar

StartChar: greater
Encoding: 62 62 24
Width: 1117
Flags: W
LayerCount: 2
Fore
SplineSet
871 444 m 1,0,-1
 147 58 l 1,1,-1
 119 192 l 1,2,-1
 682 489 l 1,3,-1
 -6 784 l 1,4,-1
 -35 918 l 1,5,-1
 852 534 l 1,6,-1
 871 444 l 1,0,-1
EndSplineSet
EndChar

StartChar: question
Encoding: 63 63 25
Width: 911
Flags: W
LayerCount: 2
Fore
SplineSet
439 289 m 1,0,1
 444 318 444 318 447 332 c 0,2,3
 465 417 465 417 502 478 c 0,4,5
 529 525 529 525 579 572 c 0,6,7
 614 606 614 606 703 672 c 128,-1,8
 792 738 792 738 823 777.5 c 128,-1,9
 854 817 854 817 864 863 c 0,10,11
 882 947 882 947 830 1010.5 c 128,-1,12
 778 1074 778 1074 682 1074 c 0,13,14
 590 1074 590 1074 516 1016.5 c 128,-1,15
 442 959 442 959 397 837 c 1,16,-1
 253 854 l 1,17,18
 308 1018 308 1018 425.5 1105.5 c 128,-1,19
 543 1193 543 1193 705 1193 c 0,20,21
 877 1193 877 1193 959.5 1099.5 c 128,-1,22
 1042 1006 1042 1006 1014 873 c 0,23,24
 998 796 998 796 948 731 c 128,-1,25
 898 666 898 666 774 574 c 0,26,27
 690 511 690 511 662 481.5 c 128,-1,28
 634 452 634 452 615.5 413.5 c 128,-1,29
 597 375 597 375 577 289 c 1,30,-1
 439 289 l 1,0,1
369 0 m 1,31,-1
 403 164 l 1,32,-1
 567 164 l 1,33,-1
 533 0 l 1,34,-1
 369 0 l 1,31,-1
EndSplineSet
EndChar

StartChar: at
Encoding: 64 64 26
Width: 1663
Flags: W
LayerCount: 2
Fore
SplineSet
956 130 m 1,0,1
 891 70 891 70 819 34 c 128,-1,2
 747 -2 747 -2 682 -2 c 0,3,4
 611 -2 611 -2 553 39.5 c 128,-1,5
 495 81 495 81 471 167.5 c 128,-1,6
 447 254 447 254 469 357 c 0,7,8
 496 484 496 484 588.5 611.5 c 128,-1,9
 681 739 681 739 791.5 803 c 128,-1,10
 902 867 902 867 993 867 c 0,11,12
 1062 867 1062 867 1117.5 830.5 c 128,-1,13
 1173 794 1173 794 1203 720 c 1,14,-1
 1257 844 l 1,15,-1
 1400 844 l 1,16,-1
 1171 307 l 2,17,18
 1123 195 1123 195 1120 183 c 0,19,20
 1116 162 1116 162 1128.5 146 c 128,-1,21
 1141 130 1141 130 1165 130 c 0,22,23
 1207 130 1207 130 1287 179 c 0,24,25
 1391 243 1391 243 1467 350.5 c 128,-1,26
 1543 458 1543 458 1567 573 c 0,27,28
 1596 706 1596 706 1552.5 822 c 128,-1,29
 1509 938 1509 938 1388 1008 c 128,-1,30
 1267 1078 1267 1078 1103 1078 c 0,31,32
 916 1078 916 1078 742.5 990 c 128,-1,33
 569 902 569 902 449 738.5 c 128,-1,34
 329 575 329 575 289 388 c 0,35,36
 247 192 247 192 302.5 50.5 c 128,-1,37
 358 -91 358 -91 504.5 -158.5 c 128,-1,38
 651 -226 651 -226 847 -226 c 0,39,40
 1057 -226 1057 -226 1213.5 -156 c 128,-1,41
 1370 -86 1370 -86 1462 15 c 1,42,-1
 1607 15 l 1,43,44
 1548 -69 1548 -69 1430.5 -156 c 128,-1,45
 1313 -243 1313 -243 1165 -294 c 128,-1,46
 1017 -345 1017 -345 824 -345 c 0,47,48
 647 -345 647 -345 507 -299.5 c 128,-1,49
 367 -254 367 -254 281 -162 c 128,-1,50
 195 -70 195 -70 166 49 c 0,51,52
 131 200 131 200 168 375 c 0,53,54
 210 570 210 570 327 747 c 0,55,56
 470 964 470 964 674.5 1079 c 128,-1,57
 879 1194 879 1194 1135 1194 c 0,58,59
 1333 1194 1333 1194 1474 1113 c 128,-1,60
 1615 1032 1615 1032 1672 871 c 0,61,62
 1720 733 1720 733 1686 570 c 0,63,64
 1636 338 1636 338 1435 158 c 0,65,66
 1255 -3 1255 -3 1082 -3 c 0,67,68
 1027 -3 1027 -3 996.5 13.5 c 128,-1,69
 966 30 966 30 957 62 c 0,70,71
 951 82 951 82 956 130 c 1,0,1
615 347 m 0,72,73
 592 238 592 238 631 177 c 128,-1,74
 670 116 670 116 737 116 c 0,75,76
 782 116 782 116 837.5 143 c 128,-1,77
 893 170 893 170 949 222.5 c 128,-1,78
 1005 275 1005 275 1051.5 356.5 c 128,-1,79
 1098 438 1098 438 1115 519 c 0,80,81
 1138 628 1138 628 1096.5 688 c 128,-1,82
 1055 748 1055 748 977 748 c 0,83,84
 926 748 926 748 875.5 722 c 128,-1,85
 825 696 825 696 770.5 638.5 c 128,-1,86
 716 581 716 581 673 498.5 c 128,-1,87
 630 416 630 416 615 347 c 0,72,73
EndSplineSet
EndChar

StartChar: A
Encoding: 65 65 27
Width: 1093
Flags: W
LayerCount: 2
Fore
SplineSet
-2 0 m 1,0,-1
 697 1173 l 1,1,-1
 864 1173 l 1,2,-1
 1095 0 l 1,3,-1
 918 0 l 1,4,-1
 857 355 l 1,5,-1
 366 355 l 1,6,-1
 162 0 l 1,7,-1
 -2 0 l 1,0,-1
438 482 m 1,8,-1
 836 482 l 1,9,-1
 782 806 l 2,10,11
 757 954 757 954 751 1050 c 1,12,13
 705 937 705 937 640 826 c 2,14,-1
 438 482 l 1,8,-1
EndSplineSet
EndChar

StartChar: B
Encoding: 66 66 28
Width: 1093
Flags: W
LayerCount: 2
Fore
SplineSet
120 0 m 1,0,-1
 369 1173 l 1,1,-1
 809 1173 l 2,2,3
 943 1173 943 1173 1017 1137.5 c 128,-1,4
 1091 1102 1091 1102 1121 1028 c 128,-1,5
 1151 954 1151 954 1134 873 c 0,6,7
 1118 798 1118 798 1063 731.5 c 128,-1,8
 1008 665 1008 665 917 624 c 1,9,10
 1017 593 1017 593 1058 517.5 c 128,-1,11
 1099 442 1099 442 1078 340 c 0,12,13
 1060 258 1060 258 1010 187 c 128,-1,14
 960 116 960 116 901 77.5 c 128,-1,15
 842 39 842 39 760.5 19.5 c 128,-1,16
 679 0 679 0 567 0 c 2,17,-1
 120 0 l 1,0,-1
419 680 m 1,18,-1
 673 680 l 2,19,20
 776 680 776 680 824 694 c 0,21,22
 887 711 887 711 925.5 752 c 128,-1,23
 964 793 964 793 977 854 c 0,24,25
 990 913 990 913 971 957.5 c 128,-1,26
 952 1002 952 1002 903.5 1018 c 128,-1,27
 855 1034 855 1034 729 1034 c 2,28,-1
 494 1034 l 1,29,-1
 419 680 l 1,18,-1
304 138 m 1,30,-1
 596 138 l 2,31,32
 671 138 671 138 703 144 c 0,33,34
 758 154 758 154 799 176 c 128,-1,35
 840 198 840 198 872.5 241 c 128,-1,36
 905 284 905 284 917 340 c 0,37,38
 931 406 931 406 907.5 454 c 128,-1,39
 884 502 884 502 828.5 522 c 128,-1,40
 773 542 773 542 661 542 c 2,41,-1
 390 542 l 1,42,-1
 304 138 l 1,30,-1
EndSplineSet
EndChar

StartChar: C
Encoding: 67 67 29
Width: 1183
Flags: W
LayerCount: 2
Fore
SplineSet
1050 411 m 1,0,-1
 1197 372 l 1,1,2
 1108 181 1108 181 959.5 80.5 c 128,-1,3
 811 -20 811 -20 628 -20 c 0,4,5
 438 -20 438 -20 336 57 c 128,-1,6
 234 134 234 134 203 280.5 c 128,-1,7
 172 427 172 427 208 595 c 0,8,9
 247 778 247 778 346 914.5 c 128,-1,10
 445 1051 445 1051 589 1122 c 128,-1,11
 733 1193 733 1193 888 1193 c 0,12,13
 1064 1193 1064 1193 1165 1103.5 c 128,-1,14
 1266 1014 1266 1014 1278 851 c 1,15,-1
 1119 815 l 1,16,17
 1105 943 1105 943 1040 1001.5 c 128,-1,18
 975 1060 975 1060 857 1060 c 0,19,20
 722 1060 722 1060 617 995 c 128,-1,21
 512 930 512 930 452.5 821 c 128,-1,22
 393 712 393 712 368 596 c 0,23,24
 336 446 336 446 356 334.5 c 128,-1,25
 376 223 376 223 456.5 168 c 128,-1,26
 537 113 537 113 644 113 c 0,27,28
 774 113 774 113 880 188 c 128,-1,29
 986 263 986 263 1050 411 c 1,0,-1
EndSplineSet
EndChar

StartChar: D
Encoding: 68 68 30
Width: 1183
Flags: W
LayerCount: 2
Fore
SplineSet
126 0 m 1,0,-1
 375 1173 l 1,1,-1
 779 1173 l 2,2,3
 916 1173 916 1173 984 1156 c 0,4,5
 1080 1133 1080 1133 1138 1072 c 0,6,7
 1215 994 1215 994 1235 872 c 128,-1,8
 1255 750 1255 750 1222 593 c 0,9,10
 1193 459 1193 459 1140 356 c 128,-1,11
 1087 253 1087 253 1024 185.5 c 128,-1,12
 961 118 961 118 894.5 79 c 128,-1,13
 828 40 828 40 742 20 c 128,-1,14
 656 0 656 0 550 0 c 2,15,-1
 126 0 l 1,0,-1
311 138 m 1,16,-1
 561 138 l 2,17,18
 677 138 677 138 747.5 160 c 128,-1,19
 818 182 818 182 865 221 c 0,20,21
 932 276 932 276 983 369 c 128,-1,22
 1034 462 1034 462 1062 595 c 0,23,24
 1101 779 1101 779 1061.5 878 c 128,-1,25
 1022 977 1022 977 943 1010 c 0,26,27
 885 1034 885 1034 747 1034 c 2,28,-1
 501 1034 l 1,29,-1
 311 138 l 1,16,-1
EndSplineSet
EndChar

StartChar: E
Encoding: 69 69 31
Width: 1093
Flags: W
LayerCount: 2
Fore
SplineSet
130 0 m 1,0,-1
 379 1173 l 1,1,-1
 1227 1173 l 1,2,-1
 1197 1034 l 1,3,-1
 504 1034 l 1,4,-1
 428 675 l 1,5,-1
 1077 675 l 1,6,-1
 1048 538 l 1,7,-1
 399 538 l 1,8,-1
 314 138 l 1,9,-1
 1034 138 l 1,10,-1
 1005 0 l 1,11,-1
 130 0 l 1,0,-1
EndSplineSet
EndChar

StartChar: F
Encoding: 70 70 32
Width: 1001
Flags: W
LayerCount: 2
Fore
SplineSet
134 0 m 1,0,-1
 383 1173 l 1,1,-1
 1175 1173 l 1,2,-1
 1145 1034 l 1,3,-1
 509 1034 l 1,4,-1
 432 671 l 1,5,-1
 982 671 l 1,6,-1
 953 533 l 1,7,-1
 403 533 l 1,8,-1
 290 0 l 1,9,-1
 134 0 l 1,0,-1
EndSplineSet
EndChar

StartChar: G
Encoding: 71 71 33
Width: 1274
Flags: W
LayerCount: 2
Fore
SplineSet
772 460 m 1,0,-1
 802 598 l 1,1,-1
 1299 598 l 1,2,-1
 1206 163 l 1,3,4
 1073 72 1073 72 941 26 c 128,-1,5
 809 -20 809 -20 681 -20 c 0,6,7
 509 -20 509 -20 383.5 54 c 128,-1,8
 258 128 258 128 215.5 268 c 128,-1,9
 173 408 173 408 210 581 c 0,10,11
 246 752 246 752 349 900.5 c 128,-1,12
 452 1049 452 1049 602 1121 c 128,-1,13
 752 1193 752 1193 927 1193 c 0,14,15
 1055 1193 1055 1193 1148.5 1151.5 c 128,-1,16
 1242 1110 1242 1110 1285 1036.5 c 128,-1,17
 1328 963 1328 963 1333 845 c 1,18,-1
 1185 806 l 1,19,20
 1178 896 1178 896 1150 947 c 128,-1,21
 1122 998 1122 998 1055.5 1029 c 128,-1,22
 989 1060 989 1060 900 1060 c 0,23,24
 794 1060 794 1060 709.5 1027.5 c 128,-1,25
 625 995 625 995 566 942.5 c 128,-1,26
 507 890 507 890 467 826 c 0,27,28
 399 718 399 718 372 590 c 0,29,30
 339 434 339 434 370.5 328 c 128,-1,31
 402 222 402 222 494.5 171 c 128,-1,32
 587 120 587 120 703 120 c 0,33,34
 803 120 803 120 907.5 159 c 128,-1,35
 1012 198 1012 198 1071 242 c 1,36,-1
 1117 460 l 1,37,-1
 772 460 l 1,0,-1
EndSplineSet
EndChar

StartChar: H
Encoding: 72 72 34
Width: 1183
Flags: W
LayerCount: 2
Fore
SplineSet
131 0 m 1,0,-1
 380 1173 l 1,1,-1
 535 1173 l 1,2,-1
 432 691 l 1,3,-1
 1042 691 l 1,4,-1
 1145 1173 l 1,5,-1
 1300 1173 l 1,6,-1
 1051 0 l 1,7,-1
 896 0 l 1,8,-1
 1013 553 l 1,9,-1
 403 553 l 1,10,-1
 286 0 l 1,11,-1
 131 0 l 1,0,-1
EndSplineSet
EndChar

StartChar: I
Encoding: 73 73 35
Width: 455
Flags: W
LayerCount: 2
Fore
SplineSet
153 0 m 1,0,-1
 402 1173 l 1,1,-1
 557 1173 l 1,2,-1
 308 0 l 1,3,-1
 153 0 l 1,0,-1
EndSplineSet
EndChar

StartChar: J
Encoding: 74 74 36
Width: 819
Flags: W
LayerCount: 2
Fore
SplineSet
117 333 m 1,0,-1
 261 352 l 1,1,2
 239 218 239 218 273 168 c 128,-1,3
 307 118 307 118 387 118 c 0,4,5
 445 118 445 118 493 145 c 128,-1,6
 541 172 541 172 567 218 c 128,-1,7
 593 264 593 264 614 365 c 2,8,-1
 786 1173 l 1,9,-1
 941 1173 l 1,10,-1
 771 374 l 2,11,12
 740 226 740 226 687 145.5 c 128,-1,13
 634 65 634 65 547.5 22.5 c 128,-1,14
 461 -20 461 -20 357 -20 c 0,15,16
 203 -20 203 -20 140 69 c 128,-1,17
 77 158 77 158 117 333 c 1,0,-1
EndSplineSet
EndChar

StartChar: K
Encoding: 75 75 37
Width: 1093
Flags: W
LayerCount: 2
Fore
SplineSet
120 0 m 1,0,-1
 369 1173 l 1,1,-1
 524 1173 l 1,2,-1
 400 591 l 1,3,-1
 1107 1173 l 1,4,-1
 1317 1173 l 1,5,-1
 724 698 l 1,6,-1
 1090 0 l 1,7,-1
 885 0 l 1,8,-1
 593 594 l 1,9,-1
 361 406 l 1,10,-1
 275 0 l 1,11,-1
 120 0 l 1,0,-1
EndSplineSet
EndChar

StartChar: L
Encoding: 76 76 38
Width: 911
Flags: W
LayerCount: 2
Fore
SplineSet
120 0 m 1,0,-1
 369 1173 l 1,1,-1
 524 1173 l 1,2,-1
 304 138 l 1,3,-1
 882 138 l 1,4,-1
 853 0 l 1,5,-1
 120 0 l 1,0,-1
EndSplineSet
EndChar

StartChar: M
Encoding: 77 77 39
Width: 1365
Flags: W
LayerCount: 2
Fore
SplineSet
122 0 m 1,0,-1
 371 1173 l 1,1,-1
 604 1173 l 1,2,-1
 705 342 l 2,3,4
 719 226 719 226 724 169 c 1,5,6
 758 233 758 233 826 357 c 2,7,-1
 1281 1173 l 1,8,-1
 1490 1173 l 1,9,-1
 1241 0 l 1,10,-1
 1091 0 l 1,11,-1
 1299 982 l 1,12,-1
 750 0 l 1,13,-1
 610 0 l 1,14,-1
 483 998 l 1,15,-1
 271 0 l 1,16,-1
 122 0 l 1,0,-1
EndSplineSet
EndChar

StartChar: N
Encoding: 78 78 40
Width: 1183
Flags: W
LayerCount: 2
Fore
SplineSet
125 0 m 1,0,-1
 374 1173 l 1,1,-1
 533 1173 l 1,2,-1
 953 252 l 1,3,-1
 1149 1173 l 1,4,-1
 1298 1173 l 1,5,-1
 1049 0 l 1,6,-1
 890 0 l 1,7,-1
 469 922 l 1,8,-1
 274 0 l 1,9,-1
 125 0 l 1,0,-1
EndSplineSet
EndChar

StartChar: O
Encoding: 79 79 41
Width: 1274
Flags: W
LayerCount: 2
Fore
SplineSet
200 571 m 0,0,1
 262 863 262 863 454 1028.5 c 128,-1,2
 646 1194 646 1194 894 1194 c 0,3,4
 1056 1194 1056 1194 1170 1116 c 128,-1,5
 1284 1038 1284 1038 1323 899.5 c 128,-1,6
 1362 761 1362 761 1325 585 c 0,7,8
 1287 406 1287 406 1185 265.5 c 128,-1,9
 1083 125 1083 125 935.5 52.5 c 128,-1,10
 788 -20 788 -20 635 -20 c 0,11,12
 469 -20 469 -20 356 60 c 128,-1,13
 243 140 243 140 205 278.5 c 128,-1,14
 167 417 167 417 200 571 c 0,0,1
359 569 m 0,15,16
 314 357 314 357 402.5 235 c 128,-1,17
 491 113 491 113 663 113 c 0,18,19
 838 113 838 113 977.5 236 c 128,-1,20
 1117 359 1117 359 1165 586 c 0,21,22
 1195 729 1195 729 1169.5 835.5 c 128,-1,23
 1144 942 1144 942 1063.5 1001 c 128,-1,24
 983 1060 983 1060 867 1060 c 0,25,26
 702 1060 702 1060 559 947 c 128,-1,27
 416 834 416 834 359 569 c 0,15,16
EndSplineSet
EndChar

StartChar: P
Encoding: 80 80 42
Width: 1093
Flags: W
LayerCount: 2
Fore
SplineSet
126 0 m 1,0,-1
 375 1173 l 1,1,-1
 818 1173 l 2,2,3
 935 1173 935 1173 993 1162 c 0,4,5
 1077 1147 1077 1147 1126.5 1106.5 c 128,-1,6
 1176 1066 1176 1066 1196.5 993.5 c 128,-1,7
 1217 921 1217 921 1199 834 c 0,8,9
 1167 684 1167 684 1049.5 580.5 c 128,-1,10
 932 477 932 477 683 477 c 2,11,-1
 383 477 l 1,12,-1
 282 0 l 1,13,-1
 126 0 l 1,0,-1
412 615 m 1,14,-1
 715 615 l 2,15,16
 865 615 865 615 940.5 671 c 128,-1,17
 1016 727 1016 727 1038 829 c 0,18,19
 1053 902 1053 902 1027 954.5 c 128,-1,20
 1001 1007 1001 1007 943 1024 c 0,21,22
 906 1034 906 1034 801 1034 c 2,23,-1
 501 1034 l 1,24,-1
 412 615 l 1,14,-1
EndSplineSet
EndChar

StartChar: Q
Encoding: 81 81 43
Width: 1274
Flags: W
LayerCount: 2
Fore
SplineSet
1041 126 m 1,0,1
 1133 51 1133 51 1217 17 c 1,2,-1
 1149 -91 l 1,3,4
 1032 -46 1032 -46 928 53 c 1,5,6
 781 -20 781 -20 624 -20 c 0,7,8
 465 -20 465 -20 351.5 57 c 128,-1,9
 238 134 238 134 197.5 273 c 128,-1,10
 157 412 157 412 194 586 c 256,11,12
 231 760 231 760 332 902.5 c 128,-1,13
 433 1045 433 1045 578.5 1119.5 c 128,-1,14
 724 1194 724 1194 885 1194 c 0,15,16
 1047 1194 1047 1194 1161 1116.5 c 128,-1,17
 1275 1039 1275 1039 1314 900.5 c 128,-1,18
 1353 762 1353 762 1316 587 c 0,19,20
 1285 442 1285 442 1216.5 326.5 c 128,-1,21
 1148 211 1148 211 1041 126 c 1,0,1
742 324 m 1,22,23
 868 286 868 286 940 212 c 1,24,25
 1103 337 1103 337 1156 587 c 0,26,27
 1187 730 1187 730 1161 836 c 128,-1,28
 1135 942 1135 942 1054.5 1001 c 128,-1,29
 974 1060 974 1060 858 1060 c 0,30,31
 684 1060 684 1060 544 941 c 128,-1,32
 404 822 404 822 354 586 c 0,33,34
 306 358 306 358 393.5 235.5 c 128,-1,35
 481 113 481 113 657 113 c 0,36,37
 740 113 740 113 820 144 c 1,38,39
 757 191 757 191 680 211 c 1,40,-1
 742 324 l 1,22,23
EndSplineSet
EndChar

StartChar: R
Encoding: 82 82 44
Width: 1183
Flags: W
LayerCount: 2
Fore
SplineSet
129 0 m 1,0,-1
 378 1173 l 1,1,-1
 898 1173 l 2,2,3
 1055 1173 1055 1173 1129.5 1141.5 c 128,-1,4
 1204 1110 1204 1110 1235.5 1030 c 128,-1,5
 1267 950 1267 950 1247 853 c 0,6,7
 1220 728 1220 728 1121.5 642.5 c 128,-1,8
 1023 557 1023 557 849 534 c 1,9,10
 905 504 905 504 930 475 c 0,11,12
 985 413 985 413 1025 319 c 2,13,-1
 1162 0 l 1,14,-1
 967 0 l 1,15,-1
 863 244 l 2,16,17
 818 350 818 350 786 406 c 128,-1,18
 754 462 754 462 723.5 484 c 128,-1,19
 693 506 693 506 659 515 c 0,20,21
 634 521 634 521 574 521 c 2,22,-1
 394 521 l 1,23,-1
 284 0 l 1,24,-1
 129 0 l 1,0,-1
423 655 m 1,25,-1
 757 655 l 2,26,27
 863 655 863 655 927.5 677 c 128,-1,28
 992 699 992 699 1033.5 747.5 c 128,-1,29
 1075 796 1075 796 1087 853 c 0,30,31
 1104 936 1104 936 1055.5 989.5 c 128,-1,32
 1007 1043 1007 1043 876 1043 c 2,33,-1
 505 1043 l 1,34,-1
 423 655 l 1,25,-1
EndSplineSet
EndChar

StartChar: S
Encoding: 83 83 45
Width: 1093
Flags: W
LayerCount: 2
Fore
SplineSet
154 377 m 1,0,-1
 302 390 l 1,1,2
 294 302 294 302 320 245.5 c 128,-1,3
 346 189 346 189 418.5 154 c 128,-1,4
 491 119 491 119 591 119 c 0,5,6
 680 119 680 119 753.5 145.5 c 128,-1,7
 827 172 827 172 870.5 218 c 128,-1,8
 914 264 914 264 925 318 c 0,9,10
 937 374 937 374 913.5 415 c 128,-1,11
 890 456 890 456 822 484 c 0,12,13
 779 502 779 502 626 541 c 128,-1,14
 473 580 473 580 415 614 c 0,15,16
 340 658 340 658 312.5 723.5 c 128,-1,17
 285 789 285 789 302 870 c 0,18,19
 321 958 321 958 388 1035.5 c 128,-1,20
 455 1113 455 1113 560.5 1153 c 128,-1,21
 666 1193 666 1193 784 1193 c 0,22,23
 915 1193 915 1193 1005.5 1151 c 128,-1,24
 1096 1109 1096 1109 1132.5 1027.5 c 128,-1,25
 1169 946 1169 946 1150 842 c 1,26,-1
 999 831 l 1,27,28
 1011 942 1011 942 954 999 c 128,-1,29
 897 1056 897 1056 762 1056 c 0,30,31
 621 1056 621 1056 545.5 1004.5 c 128,-1,32
 470 953 470 953 455 880 c 0,33,34
 441 817 441 817 478 776 c 0,35,36
 514 735 514 735 694.5 692.5 c 128,-1,37
 875 650 875 650 938 618 c 0,38,39
 1031 570 1031 570 1064 498 c 128,-1,40
 1097 426 1097 426 1077 331 c 0,41,42
 1057 238 1057 238 986 155 c 128,-1,43
 915 72 915 72 804.5 26 c 128,-1,44
 694 -20 694 -20 569 -20 c 0,45,46
 409 -20 409 -20 311.5 26.5 c 128,-1,47
 214 73 214 73 173 166 c 128,-1,48
 132 259 132 259 154 377 c 1,0,-1
EndSplineSet
EndChar

StartChar: T
Encoding: 84 84 46
Width: 1001
Flags: W
LayerCount: 2
Fore
SplineSet
425 0 m 1,0,-1
 644 1034 l 1,1,-1
 257 1034 l 1,2,-1
 287 1173 l 1,3,-1
 1217 1173 l 1,4,-1
 1187 1034 l 1,5,-1
 799 1034 l 1,6,-1
 580 0 l 1,7,-1
 425 0 l 1,0,-1
EndSplineSet
EndChar

StartChar: U
Encoding: 85 85 47
Width: 1183
Flags: W
LayerCount: 2
Fore
SplineSet
1145 1173 m 1,0,-1
 1300 1173 l 1,1,-1
 1156 495 l 2,2,3
 1118 318 1118 318 1056 214 c 128,-1,4
 994 110 994 110 875.5 45 c 128,-1,5
 757 -20 757 -20 588 -20 c 0,6,7
 423 -20 423 -20 330 37 c 128,-1,8
 237 94 237 94 215.5 201.5 c 128,-1,9
 194 309 194 309 234 495 c 2,10,-1
 378 1173 l 1,11,-1
 533 1173 l 1,12,-1
 389 496 l 2,13,14
 356 343 356 343 369.5 270.5 c 128,-1,15
 383 198 383 198 443.5 159 c 128,-1,16
 504 120 504 120 604 120 c 0,17,18
 775 120 775 120 864.5 197.5 c 128,-1,19
 954 275 954 275 1001 496 c 2,20,-1
 1145 1173 l 1,0,-1
EndSplineSet
EndChar

StartChar: V
Encoding: 86 86 48
Width: 1093
Flags: W
LayerCount: 2
Fore
SplineSet
462 0 m 1,0,-1
 256 1173 l 1,1,-1
 424 1173 l 1,2,-1
 548 321 l 2,3,4
 563 218 563 218 569 129 c 1,5,6
 616 225 616 225 673 321 c 2,7,-1
 1171 1173 l 1,8,-1
 1329 1173 l 1,9,-1
 621 0 l 1,10,-1
 462 0 l 1,0,-1
EndSplineSet
EndChar

StartChar: W
Encoding: 87 87 49
Width: 1546
Flags: W
LayerCount: 2
Fore
SplineSet
331 0 m 1,0,-1
 269 1173 l 1,1,-1
 428 1173 l 1,2,-1
 443 404 l 2,3,4
 446 283 446 283 441 164 c 1,5,6
 526 352 526 352 540 381 c 2,7,-1
 932 1173 l 1,8,-1
 1119 1173 l 1,9,-1
 1161 579 l 2,10,11
 1178 358 1178 358 1164 164 c 1,12,13
 1210 275 1210 275 1277 419 c 2,14,-1
 1621 1173 l 1,15,-1
 1777 1173 l 1,16,-1
 1206 0 l 1,17,-1
 1057 0 l 1,18,-1
 1000 894 l 2,19,20
 991 1006 991 1006 992 1031 c 1,21,22
 955 950 955 950 928 894 c 2,23,-1
 490 0 l 1,24,-1
 331 0 l 1,0,-1
EndSplineSet
EndChar

StartChar: X
Encoding: 88 88 50
Width: 1093
Flags: W
LayerCount: 2
Fore
SplineSet
7 0 m 1,0,-1
 590 611 l 1,1,-1
 310 1173 l 1,2,-1
 495 1173 l 1,3,-1
 643 872 l 2,4,5
 690 778 690 778 707 728 c 1,6,7
 760 792 760 792 829 862 c 2,8,-1
 1131 1173 l 1,9,-1
 1299 1173 l 1,10,-1
 769 620 l 1,11,-1
 1082 0 l 1,12,-1
 890 0 l 1,13,-1
 683 418 l 2,14,15
 666 454 666 454 649 497 c 1,16,17
 597 433 597 433 574 409 c 2,18,-1
 194 0 l 1,19,-1
 7 0 l 1,0,-1
EndSplineSet
EndChar

StartChar: Y
Encoding: 89 89 51
Width: 1093
Flags: W
LayerCount: 2
Fore
SplineSet
457 0 m 1,0,-1
 562 497 l 1,1,-1
 254 1173 l 1,2,-1
 443 1173 l 1,3,-1
 599 819 l 2,4,5
 642 720 642 720 675 621 c 1,6,7
 748 713 748 713 847 828 c 2,8,-1
 1148 1173 l 1,9,-1
 1329 1173 l 1,10,-1
 717 497 l 1,11,-1
 612 0 l 1,12,-1
 457 0 l 1,0,-1
EndSplineSet
EndChar

StartChar: Z
Encoding: 90 90 52
Width: 1001
Flags: W
LayerCount: 2
Fore
SplineSet
33 0 m 1,0,-1
 63 144 l 1,1,-1
 824 895 l 2,2,3
 905 975 905 975 974 1034 c 1,4,-1
 320 1034 l 1,5,-1
 350 1173 l 1,6,-1
 1190 1173 l 1,7,-1
 1160 1034 l 1,8,-1
 328 221 l 1,9,-1
 240 138 l 1,10,-1
 989 138 l 1,11,-1
 960 0 l 1,12,-1
 33 0 l 1,0,-1
EndSplineSet
EndChar

StartChar: bracketleft
Encoding: 91 91 53
Width: 455
Flags: W
LayerCount: 2
Fore
SplineSet
41 -326 m 1,0,-1
 360 1173 l 1,1,-1
 678 1173 l 1,2,-1
 653 1054 l 1,3,-1
 479 1054 l 1,4,-1
 211 -206 l 1,5,-1
 385 -206 l 1,6,-1
 359 -326 l 1,7,-1
 41 -326 l 1,0,-1
EndSplineSet
EndChar

StartChar: backslash
Encoding: 92 92 54
Width: 455
Flags: W
LayerCount: 2
Fore
SplineSet
335 -20 m 1,0,-1
 253 1193 l 1,1,-1
 369 1193 l 1,2,-1
 450 -20 l 1,3,-1
 335 -20 l 1,0,-1
EndSplineSet
EndChar

StartChar: bracketright
Encoding: 93 93 55
Width: 455
Flags: W
LayerCount: 2
Fore
SplineSet
279 -326 m 1,0,-1
 -38 -326 l 1,1,-1
 -12 -206 l 1,2,-1
 161 -206 l 1,3,-1
 429 1054 l 1,4,-1
 255 1054 l 1,5,-1
 280 1173 l 1,6,-1
 598 1173 l 1,7,-1
 279 -326 l 1,0,-1
EndSplineSet
EndChar

StartChar: asciicircum
Encoding: 94 94 56
Width: 769
Flags: W
LayerCount: 2
Fore
SplineSet
308 552 m 1,0,-1
 160 552 l 1,1,-1
 579 1193 l 1,2,-1
 695 1193 l 1,3,-1
 843 552 l 1,4,-1
 698 552 l 1,5,-1
 601 1030 l 1,6,-1
 308 552 l 1,0,-1
EndSplineSet
EndChar

StartChar: underscore
Encoding: 95 95 57
Width: 911
Flags: W
LayerCount: 2
Fore
SplineSet
-94 -326 m 1,0,-1
 -72 -222 l 1,1,-1
 882 -222 l 1,2,-1
 860 -326 l 1,3,-1
 -94 -326 l 1,0,-1
EndSplineSet
EndChar

StartChar: grave
Encoding: 96 96 58
Width: 212
Flags: W
LayerCount: 2
Fore
SplineSet
120 1002 m 1,0,1
 155 922 155 922 176 851 c 1,2,3
 183 799 183 799 172 805 c 1,4,5
 150 837 150 837 102.5 927 c 128,-1,6
 55 1017 55 1017 46 1049 c 1,7,8
 43 1086 43 1086 120 1002 c 1,0,1
EndSplineSet
EndChar

StartChar: a
Encoding: 97 97 59
Width: 911
Flags: W
LayerCount: 2
Fore
SplineSet
684 105 m 1,0,1
 589 37 589 37 509 9 c 128,-1,2
 429 -19 429 -19 345 -19 c 0,3,4
 205 -19 205 -19 144.5 49.5 c 128,-1,5
 84 118 84 118 106 224 c 0,6,7
 119 286 119 286 158.5 338 c 128,-1,8
 198 390 198 390 251 421 c 128,-1,9
 304 452 304 452 365 468 c 0,10,11
 409 479 409 479 498 490 c 0,12,13
 676 510 676 510 764 539 c 1,14,15
 771 569 771 569 773 577 c 0,16,17
 792 665 792 665 759 701 c 0,18,19
 714 750 714 750 605 750 c 0,20,21
 504 750 504 750 448 714 c 128,-1,22
 392 678 392 678 349 588 c 1,23,-1
 213 607 l 1,24,25
 251 698 251 698 306.5 753.5 c 128,-1,26
 362 809 362 809 452 839 c 128,-1,27
 542 869 542 869 651 869 c 256,28,29
 760 869 760 869 822.5 843.5 c 128,-1,30
 885 818 885 818 909 779 c 128,-1,31
 933 740 933 740 933 681 c 0,32,33
 932 644 932 644 912 548 c 2,34,-1
 871 356 l 2,35,36
 828 155 828 155 826 102 c 128,-1,37
 824 49 824 49 842 0 c 1,38,-1
 691 0 l 1,39,40
 678 45 678 45 684 105 c 1,0,1
740 426 m 1,41,42
 655 394 655 394 494 372 c 0,43,44
 402 359 402 359 362 343 c 128,-1,45
 322 327 322 327 295.5 296.5 c 128,-1,46
 269 266 269 266 261 228 c 0,47,48
 249 170 249 170 284 132 c 128,-1,49
 319 94 319 94 403 94 c 0,50,51
 486 94 486 94 559 130 c 128,-1,52
 632 166 632 166 675 230 c 0,53,54
 709 278 709 278 729 374 c 2,55,-1
 740 426 l 1,41,42
EndSplineSet
EndChar

StartChar: b
Encoding: 98 98 60
Width: 911
Flags: W
LayerCount: 2
Fore
SplineSet
241 0 m 1,0,-1
 107 0 l 1,1,-1
 356 1173 l 1,2,-1
 500 1173 l 1,3,-1
 411 754 l 1,4,5
 526 869 526 869 668 869 c 0,6,7
 746 869 746 869 809.5 837.5 c 128,-1,8
 873 806 873 806 906 748.5 c 128,-1,9
 939 691 939 691 947.5 610.5 c 128,-1,10
 956 530 956 530 937 438 c 0,11,12
 890 219 890 219 756.5 100 c 128,-1,13
 623 -19 623 -19 472 -19 c 256,14,15
 321 -19 321 -19 263 106 c 1,16,-1
 241 0 l 1,0,-1
330 431 m 0,17,18
 298 278 298 278 325 210 c 0,19,20
 370 99 370 99 486 99 c 0,21,22
 580 99 580 99 666 181 c 128,-1,23
 752 263 752 263 787 426 c 0,24,25
 822 592 822 592 773 671 c 128,-1,26
 724 750 724 750 630 750 c 256,27,28
 536 750 536 750 449.5 668 c 128,-1,29
 363 586 363 586 330 431 c 0,17,18
EndSplineSet
EndChar

StartChar: c
Encoding: 99 99 61
Width: 819
Flags: W
LayerCount: 2
Fore
SplineSet
728 311 m 1,0,-1
 866 293 l 1,1,2
 812 146 812 146 698.5 63.5 c 128,-1,3
 585 -19 585 -19 445 -19 c 0,4,5
 271 -19 271 -19 189.5 95 c 128,-1,6
 108 209 108 209 153 422 c 0,7,8
 182 559 182 559 249.5 662.5 c 128,-1,9
 317 766 317 766 421.5 817.5 c 128,-1,10
 526 869 526 869 635 869 c 0,11,12
 774 869 774 869 847 799 c 128,-1,13
 920 729 920 729 917 600 c 1,14,-1
 772 578 l 1,15,16
 771 664 771 664 729.5 707 c 128,-1,17
 688 750 688 750 616 750 c 0,18,19
 507 750 507 750 422.5 672 c 128,-1,20
 338 594 338 594 302 426 c 0,21,22
 265 254 265 254 314.5 176.5 c 128,-1,23
 364 99 364 99 470 99 c 0,24,25
 555 99 555 99 622.5 151 c 128,-1,26
 690 203 690 203 728 311 c 1,0,-1
EndSplineSet
EndChar

StartChar: d
Encoding: 100 100 62
Width: 911
Flags: W
LayerCount: 2
Fore
SplineSet
659 0 m 1,0,-1
 681 107 l 1,1,2
 573 -19 573 -19 417 -19 c 0,3,4
 315 -19 315 -19 242 37 c 128,-1,5
 169 93 169 93 143.5 193.5 c 128,-1,6
 118 294 118 294 146 424 c 0,7,8
 173 551 173 551 237.5 654.5 c 128,-1,9
 302 758 302 758 398 813.5 c 128,-1,10
 494 869 494 869 599 869 c 0,11,12
 676 869 676 869 729 836.5 c 128,-1,13
 782 804 782 804 809 752 c 1,14,-1
 899 1173 l 1,15,-1
 1042 1173 l 1,16,-1
 793 0 l 1,17,-1
 659 0 l 1,0,-1
294 424 m 0,18,19
 259 261 259 261 311 180 c 128,-1,20
 363 99 363 99 456 99 c 0,21,22
 551 99 551 99 633 176.5 c 128,-1,23
 715 254 715 254 749 412 c 0,24,25
 786 586 786 586 736 668 c 128,-1,26
 686 750 686 750 588 750 c 0,27,28
 492 750 492 750 411 671.5 c 128,-1,29
 330 593 330 593 294 424 c 0,18,19
EndSplineSet
EndChar

StartChar: e
Encoding: 101 101 63
Width: 911
Flags: W
LayerCount: 2
Fore
SplineSet
748 274 m 1,0,-1
 892 255 l 1,1,2
 829 125 829 125 718.5 53 c 128,-1,3
 608 -19 608 -19 460 -19 c 0,4,5
 273 -19 273 -19 188.5 95.5 c 128,-1,6
 104 210 104 210 148 418 c 0,7,8
 194 632 194 632 329.5 750.5 c 128,-1,9
 465 869 465 869 641 869 c 0,10,11
 811 869 811 869 894.5 753 c 128,-1,12
 978 637 978 637 933 426 c 0,13,14
 930 414 930 414 924 388 c 1,15,-1
 291 388 l 1,16,17
 269 248 269 248 324.5 173.5 c 128,-1,18
 380 99 380 99 487 99 c 0,19,20
 566 99 566 99 630.5 140.5 c 128,-1,21
 695 182 695 182 748 274 c 1,0,-1
324 506 m 1,22,-1
 798 506 l 1,23,24
 812 614 812 614 778 667 c 0,25,26
 727 750 727 750 617 750 c 0,27,28
 518 750 518 750 436.5 684 c 128,-1,29
 355 618 355 618 324 506 c 1,22,-1
EndSplineSet
EndChar

StartChar: f
Encoding: 102 102 64
Width: 455
Flags: W
LayerCount: 2
Fore
SplineSet
142 0 m 1,0,-1
 298 738 l 1,1,-1
 171 738 l 1,2,-1
 195 850 l 1,3,-1
 322 850 l 1,4,-1
 341 940 l 2,5,6
 360 1026 360 1026 384 1067 c 0,7,8
 416 1123 416 1123 476 1158 c 128,-1,9
 536 1193 536 1193 631 1193 c 0,10,11
 691 1193 691 1193 762 1178 c 1,12,-1
 713 1053 l 1,13,14
 671 1061 671 1061 631 1061 c 0,15,16
 565 1061 565 1061 532 1033 c 128,-1,17
 499 1005 499 1005 483 928 c 2,18,-1
 466 850 l 1,19,-1
 631 850 l 1,20,-1
 607 738 l 1,21,-1
 442 738 l 1,22,-1
 286 0 l 1,23,-1
 142 0 l 1,0,-1
EndSplineSet
EndChar

StartChar: g
Encoding: 103 103 65
Width: 911
Flags: W
LayerCount: 2
Fore
SplineSet
67 -70 m 1,0,-1
 202 -91 l 1,1,2
 196 -156 196 -156 230 -186 c 0,3,4
 275 -226 275 -226 368 -226 c 0,5,6
 468 -226 468 -226 531 -186 c 128,-1,7
 594 -146 594 -146 629 -74 c 0,8,9
 649 -30 649 -30 678 111 c 1,10,11
 561 0 561 0 420 0 c 0,12,13
 245 0 245 0 175.5 126.5 c 128,-1,14
 106 253 106 253 144 430 c 0,15,16
 170 551 170 551 235.5 654 c 128,-1,17
 301 757 301 757 396.5 813 c 128,-1,18
 492 869 492 869 605 869 c 0,19,20
 755 869 755 869 827 747 c 1,21,-1
 849 850 l 1,22,-1
 982 850 l 1,23,-1
 826 115 l 2,24,25
 784 -83 784 -83 726 -166 c 128,-1,26
 668 -249 668 -249 570 -297 c 128,-1,27
 472 -345 472 -345 344 -345 c 0,28,29
 192 -345 192 -345 112.5 -276.5 c 128,-1,30
 33 -208 33 -208 67 -70 c 1,0,-1
294 440 m 0,31,32
 259 273 259 273 309 196 c 128,-1,33
 359 119 359 119 459 119 c 0,34,35
 558 119 558 119 641 195.5 c 128,-1,36
 724 272 724 272 759 435 c 0,37,38
 792 591 792 591 740 670.5 c 128,-1,39
 688 750 688 750 590 750 c 0,40,41
 494 750 494 750 410.5 672 c 128,-1,42
 327 594 327 594 294 440 c 0,31,32
EndSplineSet
EndChar

StartChar: h
Encoding: 104 104 66
Width: 911
Flags: W
LayerCount: 2
Fore
SplineSet
108 0 m 1,0,-1
 357 1173 l 1,1,-1
 501 1173 l 1,2,-1
 411 752 l 1,3,4
 537 869 537 869 690 869 c 0,5,6
 785 869 785 869 846.5 831.5 c 128,-1,7
 908 794 908 794 924 728.5 c 128,-1,8
 940 663 940 663 914 538 c 2,9,-1
 800 0 l 1,10,-1
 656 0 l 1,11,-1
 770 538 l 2,12,13
 793 646 793 646 756.5 695.5 c 128,-1,14
 720 745 720 745 635 745 c 0,15,16
 571 745 571 745 507.5 711.5 c 128,-1,17
 444 678 444 678 408 621.5 c 128,-1,18
 372 565 372 565 350 465 c 2,19,-1
 252 0 l 1,20,-1
 108 0 l 1,0,-1
EndSplineSet
EndChar

StartChar: i
Encoding: 105 105 67
Width: 364
Flags: W
LayerCount: 2
Fore
SplineSet
323 1007 m 1,0,-1
 358 1173 l 1,1,-1
 502 1173 l 1,2,-1
 467 1007 l 1,3,-1
 323 1007 l 1,0,-1
109 0 m 1,4,-1
 289 850 l 1,5,-1
 433 850 l 1,6,-1
 253 0 l 1,7,-1
 109 0 l 1,4,-1
EndSplineSet
EndChar

StartChar: j
Encoding: 106 106 68
Width: 364
Flags: W
LayerCount: 2
Fore
SplineSet
320 1006 m 1,0,-1
 356 1173 l 1,1,-1
 500 1173 l 1,2,-1
 464 1006 l 1,3,-1
 320 1006 l 1,0,-1
-145 -330 m 1,4,-1
 -91 -207 l 1,5,6
 -51 -218 -51 -218 -26 -218 c 0,7,8
 17 -218 17 -218 44.5 -189 c 128,-1,9
 72 -160 72 -160 97 -43 c 2,10,-1
 287 850 l 1,11,-1
 431 850 l 1,12,-1
 241 -46 l 2,13,14
 207 -203 207 -203 153 -265 c 0,15,16
 84 -345 84 -345 -35 -345 c 0,17,18
 -94 -345 -94 -345 -145 -330 c 1,4,-1
EndSplineSet
EndChar

StartChar: k
Encoding: 107 107 69
Width: 819
Flags: W
LayerCount: 2
Fore
SplineSet
109 0 m 1,0,-1
 358 1173 l 1,1,-1
 502 1173 l 1,2,-1
 360 504 l 1,3,-1
 774 850 l 1,4,-1
 960 850 l 1,5,-1
 568 534 l 1,6,-1
 813 0 l 1,7,-1
 635 0 l 1,8,-1
 446 434 l 1,9,-1
 324 337 l 1,10,-1
 253 0 l 1,11,-1
 109 0 l 1,0,-1
EndSplineSet
EndChar

StartChar: l
Encoding: 108 108 70
Width: 364
Flags: W
LayerCount: 2
Fore
SplineSet
105 0 m 1,0,-1
 354 1173 l 1,1,-1
 498 1173 l 1,2,-1
 249 0 l 1,3,-1
 105 0 l 1,0,-1
EndSplineSet
EndChar

StartChar: m
Encoding: 109 109 71
Width: 1365
Flags: W
LayerCount: 2
Fore
SplineSet
108 0 m 1,0,-1
 288 850 l 1,1,-1
 417 850 l 1,2,-1
 392 730 l 1,3,4
 445 793 445 793 519.5 831 c 128,-1,5
 594 869 594 869 678 869 c 0,6,7
 773 869 773 869 825 829.5 c 128,-1,8
 877 790 877 790 887 720 c 1,9,10
 1019 869 1019 869 1181 869 c 0,11,12
 1307 869 1307 869 1360 799 c 128,-1,13
 1413 729 1413 729 1382 583 c 2,14,-1
 1259 0 l 1,15,-1
 1116 0 l 1,16,-1
 1229 535 l 2,17,18
 1248 622 1248 622 1242 660 c 128,-1,19
 1236 698 1236 698 1204 721 c 128,-1,20
 1172 744 1172 744 1123 744 c 0,21,22
 1033 744 1033 744 961 684.5 c 128,-1,23
 889 625 889 625 862 494 c 2,24,-1
 757 0 l 1,25,-1
 613 0 l 1,26,-1
 730 552 l 2,27,28
 750 648 750 648 725 696 c 128,-1,29
 700 744 700 744 620 744 c 0,30,31
 560 744 560 744 501 712 c 128,-1,32
 442 680 442 680 406 618.5 c 128,-1,33
 370 557 370 557 345 441 c 2,34,-1
 252 0 l 1,35,-1
 108 0 l 1,0,-1
EndSplineSet
EndChar

StartChar: n
Encoding: 110 110 72
Width: 911
Flags: W
LayerCount: 2
Fore
SplineSet
108 0 m 1,0,-1
 288 850 l 1,1,-1
 418 850 l 1,2,-1
 392 729 l 1,3,4
 515 869 515 869 692 869 c 0,5,6
 769 869 769 869 828 841.5 c 128,-1,7
 887 814 887 814 909 769 c 128,-1,8
 931 724 931 724 930 662 c 0,9,10
 930 622 930 622 908 522 c 2,11,-1
 798 0 l 1,12,-1
 654 0 l 1,13,-1
 763 517 l 2,14,15
 782 605 782 605 775 648.5 c 128,-1,16
 768 692 768 692 730.5 718 c 128,-1,17
 693 744 693 744 636 744 c 0,18,19
 544 744 544 744 464.5 685.5 c 128,-1,20
 385 627 385 627 350 464 c 2,21,-1
 252 0 l 1,22,-1
 108 0 l 1,0,-1
EndSplineSet
EndChar

StartChar: o
Encoding: 111 111 73
Width: 911
Flags: W
LayerCount: 2
Fore
SplineSet
144 425 m 0,0,1
 194 661 194 661 350 774 c 0,2,3
 479 869 479 869 637 869 c 0,4,5
 812 869 812 869 898.5 754 c 128,-1,6
 985 639 985 639 942 437 c 0,7,8
 908 273 908 273 839 179 c 128,-1,9
 770 85 770 85 664.5 33 c 128,-1,10
 559 -19 559 -19 448 -19 c 0,11,12
 269 -19 269 -19 183.5 95.5 c 128,-1,13
 98 210 98 210 144 425 c 0,0,1
292 425 m 0,14,15
 257 262 257 262 311.5 180.5 c 128,-1,16
 366 99 366 99 474 99 c 0,17,18
 581 99 581 99 669 180.5 c 128,-1,19
 757 262 757 262 793 430 c 0,20,21
 826 587 826 587 772 668.5 c 128,-1,22
 718 750 718 750 612 750 c 0,23,24
 504 750 504 750 415 669 c 128,-1,25
 326 588 326 588 292 425 c 0,14,15
EndSplineSet
EndChar

StartChar: p
Encoding: 112 112 74
Width: 911
Flags: W
LayerCount: 2
Fore
SplineSet
38 -326 m 1,0,-1
 288 850 l 1,1,-1
 419 850 l 1,2,-1
 396 739 l 1,3,4
 456 804 456 804 521 836.5 c 128,-1,5
 586 869 586 869 670 869 c 0,6,7
 778 869 778 869 849.5 813 c 128,-1,8
 921 757 921 757 942 655 c 128,-1,9
 963 553 963 553 937 431 c 0,10,11
 909 301 909 301 840 196.5 c 128,-1,12
 771 92 771 92 670 36.5 c 128,-1,13
 569 -19 569 -19 470 -19 c 0,14,15
 398 -19 398 -19 347.5 11.5 c 128,-1,16
 297 42 297 42 270 88 c 1,17,-1
 182 -326 l 1,18,-1
 38 -326 l 1,0,-1
327 420 m 256,19,20
 292 256 292 256 342 177.5 c 128,-1,21
 392 99 392 99 487 99 c 0,22,23
 583 99 583 99 668 180.5 c 128,-1,24
 753 262 753 262 789 432 c 0,25,26
 824 594 824 594 774.5 675 c 128,-1,27
 725 756 725 756 632 756 c 0,28,29
 540 756 540 756 451 670 c 128,-1,30
 362 584 362 584 327 420 c 256,19,20
EndSplineSet
EndChar

StartChar: q
Encoding: 113 113 75
Width: 911
Flags: W
LayerCount: 2
Fore
SplineSet
580 -326 m 1,0,-1
 669 90 l 1,1,2
 625 43 625 43 557.5 12 c 128,-1,3
 490 -19 490 -19 422 -19 c 0,4,5
 271 -19 271 -19 188 101.5 c 128,-1,6
 105 222 105 222 150 433 c 0,7,8
 177 561 177 561 242.5 662.5 c 128,-1,9
 308 764 308 764 403.5 816.5 c 128,-1,10
 499 869 499 869 600 869 c 0,11,12
 758 869 758 869 820 736 c 1,13,-1
 844 850 l 1,14,-1
 974 850 l 1,15,-1
 724 -326 l 1,16,-1
 580 -326 l 1,0,-1
296 427 m 0,17,18
 261 263 261 263 312.5 181 c 128,-1,19
 364 99 364 99 460 99 c 0,20,21
 552 99 552 99 635 177 c 128,-1,22
 718 255 718 255 751 414 c 0,23,24
 788 584 788 584 736 669.5 c 128,-1,25
 684 755 684 755 590 755 c 256,26,27
 496 755 496 755 414 675.5 c 128,-1,28
 332 596 332 596 296 427 c 0,17,18
EndSplineSet
EndChar

StartChar: r
Encoding: 114 114 76
Width: 546
Flags: W
LayerCount: 2
Fore
SplineSet
106 0 m 1,0,-1
 286 850 l 1,1,-1
 416 850 l 1,2,-1
 389 721 l 1,3,4
 458 811 458 811 506 840 c 128,-1,5
 554 869 554 869 604 869 c 0,6,7
 677 869 677 869 742 822 c 1,8,-1
 664 689 l 1,9,10
 619 720 619 720 566 720 c 0,11,12
 519 720 519 720 474.5 691.5 c 128,-1,13
 430 663 430 663 404 613 c 0,14,15
 363 536 363 536 344 445 c 2,16,-1
 250 0 l 1,17,-1
 106 0 l 1,0,-1
EndSplineSet
EndChar

StartChar: s
Encoding: 115 115 77
Width: 819
Flags: W
LayerCount: 2
Fore
SplineSet
103 254 m 1,0,-1
 251 276 l 1,1,2
 245 190 245 190 290 144.5 c 128,-1,3
 335 99 335 99 434 99 c 256,4,5
 533 99 533 99 589.5 139.5 c 128,-1,6
 646 180 646 180 657 234 c 0,7,8
 668 283 668 283 632 311 c 0,9,10
 606 330 606 330 494 360 c 0,11,12
 345 400 345 400 290 429 c 128,-1,13
 235 458 235 458 214 510 c 128,-1,14
 193 562 193 562 206 624 c 0,15,16
 218 681 218 681 254.5 729.5 c 128,-1,17
 291 778 291 778 343 810 c 0,18,19
 382 834 382 834 443.5 851.5 c 128,-1,20
 505 869 505 869 571 869 c 0,21,22
 671 869 671 869 740.5 840 c 128,-1,23
 810 811 810 811 835.5 762 c 128,-1,24
 861 713 861 713 857 630 c 1,25,-1
 712 611 l 1,26,27
 717 677 717 677 679 713.5 c 128,-1,28
 641 750 641 750 557 750 c 0,29,30
 457 750 457 750 408 717.5 c 128,-1,31
 359 685 359 685 350 641 c 0,32,33
 344 613 344 613 356 590 c 0,34,35
 369 567 369 567 403 552 c 0,36,37
 423 544 423 544 523 515 c 0,38,39
 666 474 666 474 721 448 c 128,-1,40
 776 422 776 422 800 372.5 c 128,-1,41
 824 323 824 323 809 250 c 0,42,43
 793 178 793 178 737.5 114 c 128,-1,44
 682 50 682 50 595.5 15.5 c 128,-1,45
 509 -19 509 -19 409 -19 c 0,46,47
 243 -19 243 -19 171 49.5 c 128,-1,48
 99 118 99 118 103 254 c 1,0,-1
EndSplineSet
EndChar

StartChar: t
Encoding: 116 116 78
Width: 455
Flags: W
LayerCount: 2
Fore
SplineSet
449 129 m 1,0,-1
 443 2 l 1,1,2
 379 -11 379 -11 331 -11 c 0,3,4
 253 -11 253 -11 215.5 13.5 c 128,-1,5
 178 38 178 38 168.5 78.5 c 128,-1,6
 159 119 159 119 186 249 c 2,7,-1
 290 738 l 1,8,-1
 185 738 l 1,9,-1
 209 850 l 1,10,-1
 314 850 l 1,11,-1
 359 1060 l 1,12,-1
 521 1146 l 1,13,-1
 458 850 l 1,14,-1
 602 850 l 1,15,-1
 578 738 l 1,16,-1
 434 738 l 1,17,-1
 329 241 l 2,18,19
 316 179 316 179 319.5 161.5 c 128,-1,20
 323 144 323 144 338 133.5 c 128,-1,21
 353 123 353 123 385 123 c 0,22,23
 409 123 409 123 449 129 c 1,0,-1
EndSplineSet
EndChar

StartChar: u
Encoding: 117 117 79
Width: 911
Flags: W
LayerCount: 2
Fore
SplineSet
665 0 m 1,0,-1
 691 125 l 1,1,2
 561 -19 561 -19 390 -19 c 0,3,4
 315 -19 315 -19 256.5 9.5 c 128,-1,5
 198 38 198 38 175 82 c 128,-1,6
 152 126 152 126 154 189 c 0,7,8
 154 231 154 231 173 323 c 2,9,-1
 285 850 l 1,10,-1
 429 850 l 1,11,-1
 329 378 l 2,12,13
 305 266 305 266 306 226 c 0,14,15
 307 170 307 170 344 137.5 c 128,-1,16
 381 105 381 105 446 105 c 256,17,18
 511 105 511 105 574.5 138 c 128,-1,19
 638 171 638 171 674 228.5 c 128,-1,20
 710 286 710 286 733 394 c 2,21,-1
 830 850 l 1,22,-1
 974 850 l 1,23,-1
 794 0 l 1,24,-1
 665 0 l 1,0,-1
EndSplineSet
EndChar

StartChar: v
Encoding: 118 118 80
Width: 819
Flags: W
LayerCount: 2
Fore
SplineSet
344 0 m 1,0,-1
 201 850 l 1,1,-1
 353 850 l 1,2,-1
 427 341 l 2,3,4
 439 258 439 258 446 170 c 1,5,6
 479 237 479 237 533 331 c 2,7,-1
 832 850 l 1,8,-1
 980 850 l 1,9,-1
 478 0 l 1,10,-1
 344 0 l 1,0,-1
EndSplineSet
EndChar

StartChar: w
Encoding: 119 119 81
Width: 1183
Flags: W
LayerCount: 2
Fore
SplineSet
265 0 m 1,0,-1
 185 850 l 1,1,-1
 334 850 l 1,2,-1
 365 359 l 1,3,-1
 376 177 l 1,4,5
 382 190 382 190 457 352 c 2,6,-1
 698 850 l 1,7,-1
 846 850 l 1,8,-1
 869 357 l 1,9,-1
 877 194 l 1,10,-1
 961 358 l 1,11,-1
 1210 850 l 1,12,-1
 1350 850 l 1,13,-1
 905 0 l 1,14,-1
 755 0 l 1,15,-1
 728 509 l 1,16,-1
 726 654 l 1,17,-1
 415 0 l 1,18,-1
 265 0 l 1,0,-1
EndSplineSet
EndChar

StartChar: x
Encoding: 120 120 82
Width: 819
Flags: W
LayerCount: 2
Fore
SplineSet
12 0 m 1,0,-1
 415 442 l 1,1,-1
 215 850 l 1,2,-1
 395 850 l 1,3,-1
 484 650 l 2,4,5
 508 594 508 594 522 555 c 1,6,7
 569 608 569 608 607 649 c 2,8,-1
 793 850 l 1,9,-1
 965 850 l 1,10,-1
 586 450 l 1,11,-1
 807 0 l 1,12,-1
 630 0 l 1,13,-1
 512 264 l 1,14,-1
 481 335 l 1,15,-1
 186 0 l 1,16,-1
 12 0 l 1,0,-1
EndSplineSet
EndChar

StartChar: y
Encoding: 121 121 83
Width: 819
Flags: W
LayerCount: 2
Fore
SplineSet
32 -327 m 1,0,-1
 45 -192 l 1,1,2
 89 -205 89 -205 124 -205 c 0,3,4
 172 -205 172 -205 204.5 -189 c 128,-1,5
 237 -173 237 -173 261 -144 c 0,6,7
 280 -122 280 -122 328 -37 c 0,8,9
 334 -25 334 -25 348 -2 c 1,10,-1
 206 850 l 1,11,-1
 362 850 l 1,12,-1
 434 358 l 2,13,14
 449 264 449 264 454 161 c 1,15,16
 500 260 500 260 554 354 c 2,17,-1
 841 850 l 1,18,-1
 985 850 l 1,19,-1
 479 -14 l 2,20,21
 397 -154 397 -154 357 -207 c 0,22,23
 302 -278 302 -278 245.5 -311.5 c 128,-1,24
 189 -345 189 -345 120 -345 c 0,25,26
 79 -345 79 -345 32 -327 c 1,0,-1
EndSplineSet
EndChar

StartChar: z
Encoding: 122 122 84
Width: 819
Flags: W
LayerCount: 2
Fore
SplineSet
32 0 m 1,0,-1
 56 117 l 1,1,-1
 729 738 l 1,2,3
 636 733 636 733 565 733 c 2,4,-1
 219 733 l 1,5,-1
 244 850 l 1,6,-1
 938 850 l 1,7,-1
 918 754 l 1,8,-1
 343 215 l 1,9,-1
 234 117 l 1,10,11
 332 124 332 124 417 124 c 2,12,-1
 810 124 l 1,13,-1
 784 0 l 1,14,-1
 32 0 l 1,0,-1
EndSplineSet
EndChar

StartChar: braceleft
Encoding: 123 123 85
Width: 547
Flags: W
LayerCount: 2
Fore
SplineSet
150 490 m 1,0,1
 211 491 211 491 256.5 522.5 c 128,-1,2
 302 554 302 554 326.5 609.5 c 128,-1,3
 351 665 351 665 380.5 798.5 c 128,-1,4
 410 932 410 932 423 974 c 0,5,6
 444 1042 444 1042 472 1082.5 c 128,-1,7
 500 1123 500 1123 534.5 1147.5 c 128,-1,8
 569 1172 569 1172 616 1185 c 0,9,10
 648 1193 648 1193 717 1193 c 2,11,-1
 762 1193 l 1,12,-1
 735 1067 l 1,13,-1
 710 1067 l 2,14,15
 627 1067 627 1067 593.5 1037 c 128,-1,16
 560 1007 560 1007 537 903 c 0,17,18
 493 694 493 694 473 638 c 0,19,20
 440 553 440 553 395.5 506.5 c 128,-1,21
 351 460 351 460 269 424 c 1,22,23
 349 387 349 387 372.5 311.5 c 128,-1,24
 396 236 396 236 359 64 c 0,25,26
 326 -92 326 -92 324 -122 c 0,27,28
 318 -176 318 -176 339.5 -197.5 c 128,-1,29
 361 -219 361 -219 437 -219 c 2,30,-1
 462 -219 l 1,31,-1
 435 -345 l 1,32,-1
 390 -345 l 2,33,34
 312 -345 312 -345 279 -332 c 0,35,36
 232 -314 232 -314 207 -272.5 c 128,-1,37
 182 -231 182 -231 185.5 -168 c 128,-1,38
 189 -105 189 -105 218.5 39 c 128,-1,39
 248 183 248 183 247.5 238.5 c 128,-1,40
 247 294 247 294 215 326 c 128,-1,41
 183 358 183 358 122 359 c 1,42,-1
 150 490 l 1,0,1
EndSplineSet
EndChar

StartChar: bar
Encoding: 124 124 86
Width: 426
Flags: W
LayerCount: 2
Fore
SplineSet
76 -345 m 1,0,-1
 403 1193 l 1,1,-1
 529 1193 l 1,2,-1
 202 -345 l 1,3,-1
 76 -345 l 1,0,-1
EndSplineSet
EndChar

StartChar: asciitilde
Encoding: 126 126 87
Width: 957
Flags: W
LayerCount: 2
Fore
SplineSet
164 446 m 1,0,-1
 199 610 l 1,1,2
 304 706 304 706 442 706 c 0,3,4
 490 706 490 706 540 692 c 128,-1,5
 590 678 590 678 678 636 c 0,6,7
 728 613 728 613 754.5 605.5 c 128,-1,8
 781 598 781 598 809 598 c 0,9,10
 861 598 861 598 923 629.5 c 128,-1,11
 985 661 985 661 1038 708 c 1,12,-1
 1002 538 l 1,13,14
 941 490 941 490 884 468.5 c 128,-1,15
 827 447 827 447 761 447 c 0,16,17
 713 447 713 447 671.5 458.5 c 128,-1,18
 630 470 630 470 544.5 512 c 128,-1,19
 459 554 459 554 395 554 c 0,20,21
 344 554 344 554 294.5 532 c 128,-1,22
 245 510 245 510 164 446 c 1,0,-1
EndSplineSet
EndChar

StartChar: ccedilla
Encoding: 231 231 90
Width: 805
Flags: W
LayerCount: 2
Fore
SplineSet
775 198 m 1,0,-1
 764 142 l 1,1,2
 616 37 616 37 445 -9 c 1,3,-1
 408 -65 l 1,4,5
 481 -86 481 -86 481 -146 c 0,6,7
 481 -197 481 -197 424.5 -240.5 c 128,-1,8
 368 -284 368 -284 301 -284 c 0,9,10
 272 -284 272 -284 232 -277 c 1,11,-1
 287 -201 l 1,12,13
 322 -223 322 -223 348 -223 c 0,14,15
 412 -223 412 -223 412 -172 c 0,16,17
 412 -117 412 -117 311 -111 c 1,18,-1
 376 -19 l 1,19,20
 145 5 145 5 145 228 c 0,21,22
 145 445 145 445 302 622 c 128,-1,23
 459 799 459 799 652 799 c 0,24,25
 736 799 736 799 819 762 c 1,26,-1
 770 578 l 1,27,-1
 725 578 l 1,28,-1
 728 589 l 2,29,30
 735 622 735 622 735 638 c 0,31,32
 735 737 735 737 599 737 c 0,33,34
 475 737 475 737 382.5 595 c 128,-1,35
 290 453 290 453 290 263 c 0,36,37
 290 62 290 62 446 62 c 0,38,39
 563 62 563 62 775 198 c 1,0,-1
EndSplineSet
EndChar

StartChar: icircumflex
Encoding: 238 238 95
Width: 468
Flags: W
LayerCount: 2
Fore
SplineSet
328 0 m 1,0,-1
 140 0 l 1,1,-1
 140 1117 l 1,2,-1
 328 1117 l 1,3,-1
 328 0 l 1,0,-1
521 1297 m 1,4,-1
 370 1297 l 1,5,-1
 231 1560 l 1,6,-1
 93 1297 l 1,7,-1
 -54 1297 l 1,8,-1
 120 1676 l 1,9,-1
 347 1676 l 1,10,-1
 521 1297 l 1,4,-1
EndSplineSet
EndChar

StartChar: idieresis
Encoding: 239 239 96
Width: 468
Flags: W
LayerCount: 2
Fore
SplineSet
328 0 m 1,0,-1
 140 0 l 1,1,-1
 140 1117 l 1,2,-1
 328 1117 l 1,3,-1
 328 0 l 1,0,-1
506 1304 m 1,4,-1
 317 1304 l 1,5,-1
 317 1499 l 1,6,-1
 506 1499 l 1,7,-1
 506 1304 l 1,4,-1
151 1304 m 1,8,-1
 -38 1304 l 1,9,-1
 -38 1499 l 1,10,-1
 151 1499 l 1,11,-1
 151 1304 l 1,8,-1
EndSplineSet
EndChar

StartChar: dagger
Encoding: 8224 8224 101
Width: 932
Flags: W
LayerCount: 2
Fore
SplineSet
347 -231 m 1,0,-1
 567 622 l 1,1,-1
 248 592 l 1,2,-1
 297 700 l 1,3,-1
 576 668 l 1,4,-1
 607 1066 l 1,5,-1
 755 1093 l 1,6,-1
 621 668 l 1,7,-1
 941 700 l 1,8,-1
 895 592 l 1,9,-1
 612 622 l 1,10,-1
 496 -213 l 1,11,-1
 347 -231 l 1,0,-1
EndSplineSet
EndChar

StartChar: degree
Encoding: 176 176 102
Width: 409
Flags: W
LayerCount: 2
Fore
SplineSet
395 844 m 0,0,1
 344 844 344 844 307.5 880 c 128,-1,2
 271 916 271 916 271 968 c 0,3,4
 271 1021 271 1021 307.5 1057 c 128,-1,5
 344 1093 344 1093 395 1093 c 0,6,7
 447 1093 447 1093 483 1057 c 128,-1,8
 519 1021 519 1021 519 968 c 0,9,10
 519 916 519 916 483 880 c 128,-1,11
 447 844 447 844 395 844 c 0,0,1
395 888 m 256,12,13
 427 888 427 888 450.5 912 c 128,-1,14
 474 936 474 936 474 968 c 256,15,16
 474 1000 474 1000 450.5 1024 c 128,-1,17
 427 1048 427 1048 395 1048 c 256,18,19
 363 1048 363 1048 339 1024 c 128,-1,20
 315 1000 315 1000 315 968 c 256,21,22
 315 936 315 936 339 912 c 128,-1,23
 363 888 363 888 395 888 c 256,12,13
EndSplineSet
EndChar

StartChar: cent
Encoding: 162 162 103
Width: 693
Flags: W
LayerCount: 2
Fore
SplineSet
365 -18 m 1,0,-1
 404 176 l 1,1,2
 142 195 142 195 142 355 c 0,3,4
 142 459 142 459 242 534.5 c 128,-1,5
 342 610 342 610 492 622 c 1,6,-1
 527 799 l 1,7,-1
 572 799 l 1,8,-1
 537 622 l 1,9,10
 637 617 637 617 715 601 c 1,11,-1
 689 471 l 1,12,-1
 644 471 l 1,13,14
 644 477 644 477 645 488 c 0,15,16
 648 509 648 509 648 517 c 0,17,18
 648 572 648 572 528 578 c 1,19,-1
 459 229 l 1,20,21
 567 229 567 229 661 280 c 1,22,-1
 650 229 l 1,23,24
 544 176 544 176 448 176 c 1,25,-1
 409 -18 l 1,26,-1
 365 -18 l 1,0,-1
415 232 m 1,27,-1
 484 578 l 1,28,29
 272 547 272 547 272 383 c 0,30,31
 272 255 272 255 415 232 c 1,27,-1
EndSplineSet
EndChar

StartChar: sterling
Encoding: 163 163 104
Width: 874
Flags: W
LayerCount: 2
Fore
SplineSet
17 0 m 1,0,-1
 109 88 l 1,1,-1
 122 88 l 2,2,3
 229 88 229 88 272.5 136.5 c 128,-1,4
 316 185 316 185 347 343 c 2,5,-1
 356 391 l 1,6,-1
 196 391 l 1,7,-1
 205 436 l 1,8,-1
 365 436 l 1,9,-1
 378 499 l 2,10,11
 407 642 407 642 496.5 721 c 128,-1,12
 586 800 586 800 718 800 c 0,13,14
 797 800 797 800 892 765 c 1,15,-1
 858 586 l 1,16,-1
 808 586 l 1,17,-1
 810 598 l 2,18,19
 812 608 812 608 812 620 c 0,20,21
 812 746 812 746 679 746 c 0,22,23
 614 746 614 746 584.5 710 c 128,-1,24
 555 674 555 674 535 569 c 2,25,-1
 508 436 l 1,26,-1
 748 436 l 1,27,-1
 739 391 l 1,28,-1
 499 391 l 1,29,-1
 492 359 l 2,30,31
 473 265 473 265 427.5 208 c 128,-1,32
 382 151 382 151 275 88 c 1,33,-1
 480 88 l 2,34,35
 617 88 617 88 679 102.5 c 128,-1,36
 741 117 741 117 819 167 c 1,37,-1
 808 113 l 1,38,39
 735 35 735 35 665.5 7.5 c 128,-1,40
 596 -20 596 -20 470 -20 c 1,41,-1
 442 -19 l 1,42,-1
 17 0 l 1,0,-1
EndSplineSet
EndChar

StartChar: section
Encoding: 167 167 105
Width: 932
Flags: W
LayerCount: 2
Fore
SplineSet
107 -153 m 1,0,-1
 232 -80 l 1,1,2
 348 -178 348 -178 481 -178 c 0,3,4
 564 -178 564 -178 621.5 -127.5 c 128,-1,5
 679 -77 679 -77 679 -5 c 0,6,7
 679 48 679 48 645.5 80.5 c 128,-1,8
 612 113 612 113 513 160 c 2,9,-1
 440 193 l 2,10,11
 247 283 247 283 247 409 c 0,12,13
 247 528 247 528 409 652 c 1,14,15
 328 717 328 717 328 815 c 0,16,17
 328 938 328 938 440 1015.5 c 128,-1,18
 552 1093 552 1093 727 1093 c 0,19,20
 814 1093 814 1093 933 1060 c 1,21,-1
 897 879 l 1,22,-1
 853 879 l 1,23,24
 857 904 857 904 857 916 c 0,25,26
 857 1039 857 1039 652 1039 c 0,27,28
 560 1039 560 1039 500.5 987 c 128,-1,29
 441 935 441 935 441 853 c 0,30,31
 441 798 441 798 466 774.5 c 128,-1,32
 491 751 491 751 613 686 c 2,33,-1
 674 652 l 2,34,35
 854 553 854 553 854 444 c 0,36,37
 854 319 854 319 703 200 c 1,38,39
 801 136 801 136 801 40 c 0,40,41
 801 -75 801 -75 684.5 -153 c 128,-1,42
 568 -231 568 -231 397 -231 c 0,43,44
 244 -231 244 -231 107 -153 c 1,0,-1
667 229 m 1,45,46
 747 319 747 319 747 394 c 0,47,48
 747 470 747 470 628 527 c 2,49,-1
 558 562 l 2,50,51
 495 593 495 593 445 625 c 1,52,53
 355 545 355 545 355 456 c 0,54,55
 355 382 355 382 474 326 c 2,56,-1
 571 279 l 2,57,58
 607 263 607 263 667 229 c 1,45,46
EndSplineSet
EndChar

StartChar: bullet
Encoding: 8226 8226 106
Width: 931
Flags: W
LayerCount: 2
Fore
SplineSet
817 662 m 256,0,1
 817 517 817 517 713.5 414 c 128,-1,2
 610 311 610 311 465 311 c 256,3,4
 320 311 320 311 217 414 c 128,-1,5
 114 517 114 517 114 662 c 256,6,7
 114 807 114 807 217 910 c 128,-1,8
 320 1013 320 1013 465 1013 c 256,9,10
 610 1013 610 1013 713.5 910 c 128,-1,11
 817 807 817 807 817 662 c 256,0,1
EndSplineSet
EndChar

StartChar: paragraph
Encoding: 182 182 107
Width: 932
Flags: W
LayerCount: 2
Fore
SplineSet
365 -239 m 1,0,-1
 511 496 l 1,1,2
 241 542 241 542 241 747 c 0,3,4
 241 876 241 876 346.5 968 c 128,-1,5
 452 1060 452 1060 628 1085 c 1,6,-1
 660 1244 l 1,7,-1
 704 1244 l 1,8,-1
 673 1085 l 1,9,-1
 703 1086 l 2,10,11
 744 1086 744 1086 796 1080 c 1,12,-1
 828 1244 l 1,13,-1
 873 1244 l 1,14,-1
 839 1071 l 1,15,16
 891 1057 891 1057 948 1036 c 1,17,-1
 938 988 l 1,18,19
 898 1005 898 1005 830 1024 c 1,20,-1
 742 586 l 1,21,22
 794 603 794 603 869 643 c 1,23,-1
 859 586 l 1,24,25
 794 549 794 549 732 530 c 1,26,-1
 578 -239 l 1,27,-1
 534 -239 l 1,28,-1
 684 514 l 1,29,30
 597 496 597 496 556 496 c 1,31,-1
 409 -239 l 1,32,-1
 365 -239 l 1,0,-1
695 568 m 1,33,-1
 787 1031 l 1,34,35
 738 1040 738 1040 704 1040 c 0,36,37
 691 1040 691 1040 664 1039 c 1,38,-1
 567 553 l 1,39,40
 625 553 625 553 695 568 c 1,33,-1
EndSplineSet
EndChar

StartChar: registered
Encoding: 174 174 108
Width: 897
Flags: W
LayerCount: 2
Fore
SplineSet
580 445 m 0,0,1
 448 445 448 445 354.5 538.5 c 128,-1,2
 261 632 261 632 261 764 c 256,3,4
 261 896 261 896 354.5 990 c 128,-1,5
 448 1084 448 1084 580 1084 c 0,6,7
 714 1084 714 1084 807 990 c 128,-1,8
 900 896 900 896 900 764 c 256,9,10
 900 632 900 632 806.5 538.5 c 128,-1,11
 713 445 713 445 580 445 c 0,0,1
580 484 m 0,12,13
 695 484 695 484 777.5 567 c 128,-1,14
 860 650 860 650 860 764 c 256,15,16
 860 878 860 878 777.5 961 c 128,-1,17
 695 1044 695 1044 580 1044 c 0,18,19
 466 1044 466 1044 383.5 961 c 128,-1,20
 301 878 301 878 301 764 c 256,21,22
 301 650 301 650 383.5 567 c 128,-1,23
 466 484 466 484 580 484 c 0,12,13
529 737 m 1,24,-1
 501 596 l 1,25,-1
 394 596 l 1,26,-1
 403 639 l 1,27,-1
 456 639 l 1,28,-1
 511 915 l 1,29,-1
 458 915 l 1,30,-1
 466 959 l 1,31,-1
 598 959 l 2,32,33
 751 959 751 959 751 875 c 0,34,35
 751 800 751 800 650 750 c 1,36,-1
 685 639 l 1,37,-1
 747 639 l 1,38,-1
 738 596 l 1,39,-1
 641 596 l 1,40,-1
 591 737 l 1,41,-1
 529 737 l 1,24,-1
538 782 m 1,42,-1
 574 782 l 2,43,44
 697 782 697 782 697 866 c 0,45,46
 697 915 697 915 607 915 c 2,47,-1
 564 915 l 1,48,-1
 538 782 l 1,42,-1
EndSplineSet
EndChar

StartChar: copyright
Encoding: 169 169 109
Width: 1244
Flags: W
LayerCount: 2
Fore
SplineSet
725 -27 m 0,0,1
 495 -27 495 -27 330.5 137 c 128,-1,2
 166 301 166 301 166 533 c 256,3,4
 166 765 166 765 330.5 929 c 128,-1,5
 495 1093 495 1093 725 1093 c 0,6,7
 958 1093 958 1093 1122 929 c 128,-1,8
 1286 765 1286 765 1286 533 c 256,9,10
 1286 301 1286 301 1122 137 c 128,-1,11
 958 -27 958 -27 725 -27 c 0,0,1
725 18 m 0,12,13
 939 18 939 18 1090 169 c 128,-1,14
 1241 320 1241 320 1241 533 c 256,15,16
 1241 746 1241 746 1090 897 c 128,-1,17
 939 1048 939 1048 725 1048 c 0,18,19
 513 1048 513 1048 362 897 c 128,-1,20
 211 746 211 746 211 533 c 256,21,22
 211 320 211 320 362 169 c 128,-1,23
 513 18 513 18 725 18 c 0,12,13
890 246 m 1,24,25
 785 213 785 213 704 213 c 0,26,27
 580 213 580 213 508 279.5 c 128,-1,28
 436 346 436 346 436 462 c 0,29,30
 436 625 436 625 541 734.5 c 128,-1,31
 646 844 646 844 805 844 c 0,32,33
 896 844 896 844 1003 814 c 1,34,-1
 967 675 l 1,35,-1
 915 684 l 1,36,-1
 923 766 l 1,37,38
 854 798 854 798 792 798 c 0,39,40
 688 798 688 798 616 700 c 128,-1,41
 544 602 544 602 544 462 c 0,42,43
 544 271 544 271 722 271 c 0,44,45
 823 271 823 271 902 307 c 1,46,-1
 890 246 l 1,24,25
EndSplineSet
EndChar

StartChar: trademark
Encoding: 8482 8482 110
Width: 1333
Flags: W
LayerCount: 2
Fore
SplineSet
440 1021 m 1,0,-1
 307 1021 l 1,1,-1
 288 923 l 1,2,-1
 225 923 l 1,3,-1
 254 1066 l 1,4,-1
 751 1066 l 1,5,-1
 723 923 l 1,6,-1
 661 923 l 1,7,-1
 679 1021 l 1,8,-1
 546 1021 l 1,9,-1
 456 569 l 1,10,-1
 554 569 l 1,11,-1
 545 524 l 1,12,-1
 243 524 l 1,13,-1
 253 569 l 1,14,-1
 350 569 l 1,15,-1
 440 1021 l 1,0,-1
1011 569 m 1,16,-1
 942 956 l 1,17,-1
 857 524 l 1,18,-1
 688 524 l 1,19,-1
 697 569 l 1,20,-1
 794 569 l 1,21,-1
 884 1021 l 1,22,-1
 787 1021 l 1,23,-1
 796 1066 l 1,24,-1
 1036 1066 l 1,25,-1
 1092 747 l 1,26,-1
 1265 1066 l 1,27,-1
 1481 1066 l 1,28,-1
 1473 1021 l 1,29,-1
 1375 1021 l 1,30,-1
 1285 569 l 1,31,-1
 1383 569 l 1,32,-1
 1373 524 l 1,33,-1
 1178 524 l 1,34,-1
 1270 985 l 1,35,-1
 1041 569 l 1,36,-1
 1011 569 l 1,16,-1
EndSplineSet
EndChar

StartChar: acute
Encoding: 180 180 111
Width: 256
Flags: W
LayerCount: 2
Fore
SplineSet
118 999 m 1,0,1
 195 1083 195 1083 192 1046 c 1,2,3
 183 1014 183 1014 135.5 924 c 128,-1,4
 88 834 88 834 66 802 c 1,5,6
 55 796 55 796 62 848 c 1,7,8
 83 919 83 919 118 999 c 1,0,1
EndSplineSet
EndChar

StartChar: dieresis
Encoding: 168 168 112
Width: 862
Flags: W
LayerCount: 2
Fore
SplineSet
495 923 m 1,0,-1
 408 1033 l 1,1,-1
 520 1119 l 1,2,-1
 607 1003 l 1,3,-1
 495 923 l 1,0,-1
841 923 m 1,4,-1
 752 1035 l 1,5,-1
 866 1119 l 1,6,-1
 951 1004 l 1,7,-1
 841 923 l 1,4,-1
EndSplineSet
EndChar

StartChar: plusminus
Encoding: 177 177 113
Width: 932
Flags: W
LayerCount: 2
Fore
SplineSet
76 0 m 1,0,-1
 92 80 l 1,1,-1
 873 80 l 1,2,-1
 858 0 l 1,3,-1
 76 0 l 1,0,-1
469 213 m 1,4,-1
 525 493 l 1,5,-1
 174 493 l 1,6,-1
 189 573 l 1,7,-1
 541 573 l 1,8,-1
 596 852 l 1,9,-1
 676 852 l 1,10,-1
 621 573 l 1,11,-1
 971 573 l 1,12,-1
 956 493 l 1,13,-1
 605 493 l 1,14,-1
 549 213 l 1,15,-1
 469 213 l 1,4,-1
EndSplineSet
EndChar

StartChar: yen
Encoding: 165 165 114
Width: 965
Flags: W
LayerCount: 2
Fore
SplineSet
156 0 m 1,0,-1
 247 99 l 1,1,2
 269 97 269 97 279 97 c 0,3,4
 415 97 415 97 477 257 c 1,5,-1
 272 257 l 1,6,-1
 280 301 l 1,7,-1
 489 301 l 1,8,9
 495 346 495 346 499 409 c 1,10,-1
 301 409 l 1,11,-1
 310 453 l 1,12,-1
 499 453 l 1,13,14
 499 465 499 465 499 470 c 0,15,16
 499 567 499 567 463.5 631 c 128,-1,17
 428 695 428 695 375 695 c 256,18,19
 322 695 322 695 250 638 c 128,-1,20
 178 581 178 581 139 509 c 1,21,-1
 106 534 l 1,22,23
 172 650 172 650 268.5 724.5 c 128,-1,24
 365 799 365 799 452 799 c 0,25,26
 612 799 612 799 612 518 c 1,27,-1
 611 472 l 1,28,29
 736 799 736 799 971 799 c 0,30,31
 1045 799 1045 799 1100 765 c 1,32,-1
 1016 653 l 1,33,34
 967 684 967 684 915 684 c 0,35,36
 742 684 742 684 651 453 c 1,37,-1
 835 453 l 1,38,-1
 826 409 l 1,39,-1
 643 409 l 1,40,-1
 634 369 l 2,41,42
 627 335 627 335 609 301 c 1,43,-1
 805 301 l 1,44,-1
 796 257 l 1,45,-1
 585 257 l 1,46,47
 519 138 519 138 389 91 c 1,48,-1
 624 77 l 1,49,-1
 534 -18 l 1,50,-1
 156 0 l 1,0,-1
EndSplineSet
EndChar

StartChar: mu1
Encoding: 181 181 115
Width: 992
Flags: W
LayerCount: 2
Fore
SplineSet
100 -302 m 1,0,-1
 155 -76 l 1,1,-1
 270 500 l 2,2,3
 282 560 282 560 282 611 c 0,4,5
 282 693 282 693 206 782 c 1,6,-1
 368 790 l 1,7,8
 427 740 427 740 427 623 c 0,9,10
 427 576 427 576 409 481 c 2,11,-1
 355 213 l 2,12,13
 347 176 347 176 347 161 c 0,14,15
 347 106 347 106 391 106 c 0,16,17
 446 106 446 106 553.5 229 c 128,-1,18
 661 352 661 352 753 519 c 1,19,-1
 805 782 l 1,20,-1
 958 790 l 1,21,-1
 905 569 l 1,22,-1
 834 213 l 2,23,24
 818 132 818 132 818 106 c 0,25,26
 818 53 818 53 861 53 c 0,27,28
 931 53 931 53 1075 218 c 1,29,-1
 1062 151 l 1,30,31
 905 -18 905 -18 779 -18 c 0,32,33
 675 -18 675 -18 675 91 c 0,34,35
 675 128 675 128 692 213 c 2,36,-1
 727 391 l 1,37,-1
 717 391 l 1,38,39
 517 0 517 0 312 0 c 1,40,-1
 255 -284 l 1,41,-1
 100 -302 l 1,0,-1
EndSplineSet
EndChar

StartChar: logicalnot
Encoding: 172 172 116
Width: 932
Flags: W
LayerCount: 2
Fore
SplineSet
177 510 m 1,0,-1
 193 590 l 1,1,-1
 975 590 l 1,2,-1
 906 248 l 1,3,-1
 814 248 l 1,4,-1
 866 510 l 1,5,-1
 177 510 l 1,0,-1
EndSplineSet
EndChar

StartChar: florin
Encoding: 402 402 117
Width: 679
Flags: W
LayerCount: 2
Fore
SplineSet
158 -231 m 1,0,-1
 210 -18 l 1,1,-1
 286 364 l 1,2,-1
 108 364 l 1,3,-1
 117 409 l 1,4,-1
 294 409 l 1,5,-1
 298 427 l 2,6,7
 330 586 330 586 463 692.5 c 128,-1,8
 596 799 596 799 761 799 c 0,9,10
 818 799 818 799 860 784 c 1,11,-1
 764 678 l 1,12,13
 712 729 712 729 643 729 c 0,14,15
 500 729 500 729 457 512 c 2,16,-1
 436 409 l 1,17,-1
 623 409 l 1,18,-1
 614 364 l 1,19,-1
 427 364 l 1,20,-1
 313 -213 l 1,21,-1
 158 -231 l 1,0,-1
EndSplineSet
EndChar

StartChar: ellipsis
Encoding: 8230 8230 118
Width: 1474
Flags: W
LayerCount: 2
Fore
SplineSet
178 0 m 1,0,-1
 206 142 l 1,1,-1
 348 142 l 1,2,-1
 319 0 l 1,3,-1
 178 0 l 1,0,-1
667 0 m 1,4,-1
 695 142 l 1,5,-1
 837 142 l 1,6,-1
 808 0 l 1,7,-1
 667 0 l 1,4,-1
1155 0 m 1,8,-1
 1183 142 l 1,9,-1
 1326 142 l 1,10,-1
 1297 0 l 1,11,-1
 1155 0 l 1,8,-1
EndSplineSet
EndChar

StartChar: OE
Encoding: 338 338 119
Width: 1477
Flags: W
LayerCount: 2
Fore
SplineSet
816 0 m 1,0,-1
 831 70 l 1,1,2
 711 -27 711 -27 549 -27 c 0,3,4
 371 -27 371 -27 269 81 c 128,-1,5
 167 189 167 189 167 378 c 0,6,7
 167 661 167 661 358 877 c 128,-1,8
 549 1093 549 1093 799 1093 c 0,9,10
 931 1093 931 1093 1017 1007 c 1,11,-1
 1029 1066 l 1,12,-1
 1593 1066 l 1,13,-1
 1529 862 l 1,14,-1
 1484 862 l 1,15,16
 1490 891 1490 891 1490 913 c 0,17,18
 1490 969 1490 969 1424.5 990.5 c 128,-1,19
 1359 1012 1359 1012 1187 1012 c 2,20,-1
 1165 1012 l 1,21,-1
 1082 586 l 1,22,-1
 1402 586 l 1,23,-1
 1329 512 l 1,24,25
 1165 533 1165 533 1107 533 c 2,26,-1
 1071 533 l 1,27,-1
 1012 218 l 2,28,29
 1002 167 1002 167 1002 156 c 0,30,31
 1002 80 1002 80 1228 80 c 0,32,33
 1348 80 1348 80 1453 160 c 1,34,-1
 1442 103 l 1,35,36
 1318 -23 1318 -23 1203 -23 c 0,37,38
 1183 -23 1183 -23 1161 -21 c 2,39,-1
 816 0 l 1,0,-1
888 361 m 2,40,-1
 961 723 l 2,41,42
 974 786 974 786 974 841 c 0,43,44
 974 933 974 933 916.5 990.5 c 128,-1,45
 859 1048 859 1048 769 1048 c 0,46,47
 604 1048 604 1048 466.5 844 c 128,-1,48
 329 640 329 640 329 395 c 0,49,50
 329 218 329 218 396.5 117.5 c 128,-1,51
 464 17 464 17 585 17 c 0,52,53
 818 17 818 17 888 361 c 2,40,-1
EndSplineSet
EndChar

StartChar: oe
Encoding: 339 339 120
Width: 1350
Flags: W
LayerCount: 2
Fore
SplineSet
706 145 m 1,0,1
 535 -18 535 -18 370 -18 c 0,2,3
 273 -18 273 -18 209 55 c 128,-1,4
 145 128 145 128 145 237 c 0,5,6
 145 448 145 448 302.5 623.5 c 128,-1,7
 460 799 460 799 650 799 c 0,8,9
 794 799 794 799 859 630 c 1,10,11
 1025 799 1025 799 1183 799 c 0,12,13
 1246 799 1246 799 1286.5 758 c 128,-1,14
 1327 717 1327 717 1327 651 c 0,15,16
 1327 508 1327 508 1192.5 414 c 128,-1,17
 1058 320 1058 320 841 311 c 1,18,-1
 840 278 l 1,19,20
 840 66 840 66 998 66 c 0,21,22
 1113 66 1113 66 1327 200 c 1,23,-1
 1316 146 l 1,24,25
 1083 -18 1083 -18 917 -18 c 0,26,27
 758 -18 758 -18 706 145 c 1,0,1
431 35 m 0,28,29
 544 35 544 35 636 178.5 c 128,-1,30
 728 322 728 322 728 499 c 0,31,32
 728 607 728 607 689 672 c 128,-1,33
 650 737 650 737 584 737 c 0,34,35
 472 737 472 737 382 594 c 128,-1,36
 292 451 292 451 292 272 c 0,37,38
 292 35 292 35 431 35 c 0,28,29
844 355 m 1,39,40
 1004 368 1004 368 1097.5 438.5 c 128,-1,41
 1191 509 1191 509 1191 620 c 0,42,43
 1191 733 1191 733 1110 733 c 0,44,45
 1024 733 1024 733 941.5 616 c 128,-1,46
 859 499 859 499 844 355 c 1,39,40
EndSplineSet
EndChar

StartChar: endash
Encoding: 8211 8211 121
Width: 434
Flags: W
LayerCount: 2
Fore
SplineSet
434 154 m 1,0,-1
 0 154 l 1,1,-1
 0 234 l 1,2,-1
 434 234 l 1,3,-1
 434 154 l 1,0,-1
EndSplineSet
EndChar

StartChar: emdash
Encoding: 8212 8212 122
Width: 1862
Flags: W
LayerCount: 2
Fore
SplineSet
1866 572 m 1,0,-1
 -4 572 l 1,1,-1
 -4 732 l 1,2,-1
 1866 732 l 1,3,-1
 1866 572 l 1,0,-1
EndSplineSet
EndChar

StartChar: quotedblleft
Encoding: 8220 8220 123
Width: 690
Flags: W
LayerCount: 2
Fore
SplineSet
323 1233 m 1,0,1
 213 1212 213 1212 247 1050 c 1,2,-1
 356 1050 l 1,3,-1
 395 866 l 1,4,-1
 204 866 l 1,5,-1
 182 970 l 2,6,7
 123 1250 123 1250 316 1267 c 1,8,-1
 323 1233 l 1,0,1
53 1233 m 1,9,10
 -56 1212 -56 1212 -22 1050 c 1,11,-1
 86 1050 l 1,12,-1
 125 866 l 1,13,-1
 -65 866 l 1,14,-1
 -87 970 l 2,15,16
 -146 1250 -146 1250 46 1267 c 1,17,-1
 53 1233 l 1,9,10
EndSplineSet
EndChar

StartChar: quotedblright
Encoding: 8221 8221 124
Width: 662
Flags: W
LayerCount: 2
Fore
SplineSet
-72 900 m 1,0,1
 38 921 38 921 3 1083 c 1,2,-1
 -105 1083 l 1,3,-1
 -144 1267 l 1,4,-1
 46 1267 l 1,5,-1
 68 1163 l 2,6,7
 128 883 128 883 -65 866 c 1,8,-1
 -72 900 l 1,0,1
197 900 m 1,9,10
 308 921 308 921 273 1083 c 1,11,-1
 164 1083 l 1,12,-1
 125 1267 l 1,13,-1
 316 1267 l 1,14,-1
 338 1163 l 2,15,16
 398 883 398 883 204 866 c 1,17,-1
 197 900 l 1,9,10
EndSplineSet
EndChar

StartChar: divide
Encoding: 247 247 125
Width: 1093
Flags: W
LayerCount: 2
Fore
SplineSet
624 674 m 1,0,-1
 466 674 l 1,1,-1
 466 855 l 1,2,-1
 624 855 l 1,3,-1
 624 674 l 1,0,-1
933 383 m 1,4,-1
 157 383 l 1,5,-1
 157 489 l 1,6,-1
 933 489 l 1,7,-1
 933 383 l 1,4,-1
624 17 m 1,8,-1
 466 17 l 1,9,-1
 466 198 l 1,10,-1
 624 198 l 1,11,-1
 624 17 l 1,8,-1
EndSplineSet
EndChar

StartChar: lozenge
Encoding: 9674 9674 126
Width: 1118
Flags: W
LayerCount: 2
Fore
SplineSet
854 699 m 1,0,-1
 518 197 l 1,1,-1
 -31 699 l 1,2,-1
 304 1202 l 1,3,-1
 854 699 l 1,0,-1
699 699 m 1,4,-1
 339 1036 l 1,5,-1
 122 699 l 1,6,-1
 482 364 l 1,7,-1
 699 699 l 1,4,-1
EndSplineSet
EndChar

StartChar: Euro
Encoding: 8364 8364 128
Width: 812
Flags: W
LayerCount: 2
Fore
SplineSet
210 464 m 1,0,1
 252 596 252 596 371.5 697.5 c 128,-1,2
 491 799 491 799 674 799 c 0,3,4
 773 799 773 799 885 769 c 1,5,-1
 845 624 l 1,6,-1
 795 624 l 1,7,8
 801 653 801 653 801 665 c 0,9,10
 801 701 801 701 757 726 c 128,-1,11
 713 751 713 751 649 751 c 0,12,13
 445 751 445 751 349 464 c 1,14,-1
 686 464 l 1,15,-1
 677 420 l 1,16,-1
 337 420 l 2,17,18
 335 418 335 418 332 404 c 2,19,-1
 325 365 l 1,20,-1
 325 360 l 1,21,-1
 665 360 l 1,22,-1
 656 315 l 1,23,-1
 319 315 l 1,24,-1
 319 289 l 2,25,26
 319 178 319 178 370 115.5 c 128,-1,27
 421 53 421 53 512 53 c 0,28,29
 636 53 636 53 765 135 c 1,30,-1
 755 72 l 1,31,32
 604 -18 604 -18 459 -18 c 0,33,34
 324 -18 324 -18 249.5 59 c 128,-1,35
 175 136 175 136 175 274 c 0,36,37
 175 300 175 300 175 315 c 1,38,-1
 111 315 l 1,39,-1
 120 360 l 1,40,-1
 182 360 l 1,41,-1
 182 364 l 1,42,43
 189 401 189 401 194 420 c 1,44,-1
 118 420 l 1,45,-1
 127 464 l 1,46,-1
 210 464 l 1,0,1
EndSplineSet
EndChar

StartChar: guilsinglleft
Encoding: 8249 8249 129
Width: 560
Flags: W
LayerCount: 2
Fore
SplineSet
375 71 m 1,0,1
 304 237 304 237 167 391 c 1,2,3
 358 507 358 507 437 653 c 1,4,-1
 587 711 l 1,5,6
 536 589 536 589 315 441 c 1,7,8
 423 310 423 310 499 138 c 1,9,-1
 375 71 l 1,0,1
EndSplineSet
EndChar

StartChar: guilsinglright
Encoding: 8250 8250 130
Width: 560
Flags: W
LayerCount: 2
Fore
SplineSet
339 711 m 1,0,1
 410 545 410 545 546 391 c 1,2,3
 356 275 356 275 276 128 c 1,4,-1
 128 71 l 1,5,6
 178 193 178 193 400 341 c 1,7,8
 293 470 293 470 215 643 c 1,9,-1
 339 711 l 1,0,1
EndSplineSet
EndChar

StartChar: daggerdbl
Encoding: 8225 8225 133
Width: 932
Flags: W
LayerCount: 2
Fore
SplineSet
349 -231 m 1,0,-1
 481 185 l 1,1,-1
 161 154 l 1,2,-1
 211 261 l 1,3,-1
 490 229 l 1,4,-1
 567 616 l 1,5,-1
 247 586 l 1,6,-1
 297 693 l 1,7,-1
 575 661 l 1,8,-1
 608 1066 l 1,9,-1
 758 1093 l 1,10,-1
 620 661 l 1,11,-1
 940 693 l 1,12,-1
 889 586 l 1,13,-1
 611 616 l 1,14,-1
 535 229 l 1,15,-1
 855 261 l 1,16,-1
 804 154 l 1,17,-1
 525 185 l 1,18,-1
 499 -213 l 1,19,-1
 349 -231 l 1,0,-1
EndSplineSet
EndChar

StartChar: middot.001
Encoding: 8729 8729 134
Width: 620
Flags: W
LayerCount: 2
Fore
SplineSet
319 516 m 1,0,-1
 80 516 l 1,1,-1
 22 789 l 1,2,-1
 261 789 l 1,3,-1
 319 516 l 1,0,-1
EndSplineSet
EndChar

StartChar: quotesinglbase
Encoding: 8218 8218 135
Width: 418
Flags: W
LayerCount: 2
Fore
SplineSet
103 128 m 1,0,-1
 247 231 l 1,1,-1
 353 90 l 1,2,3
 345 -56 345 -56 262.5 -134.5 c 128,-1,4
 180 -213 180 -213 36 -213 c 1,5,-1
 76 -168 l 1,6,7
 189 -158 189 -158 211 -18 c 1,8,-1
 103 128 l 1,0,-1
EndSplineSet
EndChar

StartChar: quotedblbase
Encoding: 8222 8222 136
Width: 684
Flags: W
LayerCount: 2
Fore
SplineSet
91 92 m 1,0,-1
 204 178 l 1,1,-1
 292 64 l 1,2,3
 270 -213 270 -213 31 -213 c 1,4,-1
 60 -168 l 1,5,6
 166 -148 166 -148 179 -16 c 1,7,-1
 91 92 l 1,0,-1
401 92 m 1,8,-1
 516 178 l 1,9,-1
 602 64 l 1,10,11
 581 -213 581 -213 341 -213 c 1,12,-1
 372 -168 l 1,13,14
 476 -148 476 -148 490 -16 c 1,15,-1
 401 92 l 1,8,-1
EndSplineSet
EndChar

StartChar: perthousand
Encoding: 8240 8240 137
Width: 1571
Flags: W
LayerCount: 2
Fore
SplineSet
385 533 m 0,0,1
 304 533 304 533 254.5 584.5 c 128,-1,2
 205 636 205 636 205 722 c 0,3,4
 205 865 205 865 286.5 965.5 c 128,-1,5
 368 1066 368 1066 483 1066 c 0,6,7
 567 1066 567 1066 617.5 1014.5 c 128,-1,8
 668 963 668 963 668 877 c 0,9,10
 668 733 668 733 585.5 633 c 128,-1,11
 503 533 503 533 385 533 c 0,0,1
311 715 m 0,12,13
 311 578 311 578 398 578 c 0,14,15
 463 578 463 578 517 671.5 c 128,-1,16
 571 765 571 765 571 881 c 0,17,18
 571 1022 571 1022 483 1022 c 0,19,20
 416 1022 416 1022 363.5 928 c 128,-1,21
 311 834 311 834 311 715 c 0,12,13
850 0 m 0,22,23
 769 0 769 0 719.5 51.5 c 128,-1,24
 670 103 670 103 670 189 c 0,25,26
 670 331 670 331 751 432 c 128,-1,27
 832 533 832 533 947 533 c 0,28,29
 1031 533 1031 533 1081.5 481.5 c 128,-1,30
 1132 430 1132 430 1132 344 c 0,31,32
 1132 200 1132 200 1049.5 100 c 128,-1,33
 967 0 967 0 850 0 c 0,22,23
776 182 m 0,34,35
 776 44 776 44 862 44 c 0,36,37
 929 44 929 44 982 138 c 128,-1,38
 1035 232 1035 232 1035 348 c 0,39,40
 1035 490 1035 490 948 490 c 0,41,42
 880 490 880 490 828 395.5 c 128,-1,43
 776 301 776 301 776 182 c 0,34,35
131 -27 m 1,44,-1
 1111 1093 l 1,45,-1
 1206 1093 l 1,46,-1
 225 -27 l 1,47,-1
 131 -27 l 1,44,-1
1376 0 m 0,48,49
 1294 0 1294 0 1244.5 51.5 c 128,-1,50
 1195 103 1195 103 1195 189 c 0,51,52
 1195 331 1195 331 1276.5 432 c 128,-1,53
 1358 533 1358 533 1473 533 c 0,54,55
 1557 533 1557 533 1607.5 481.5 c 128,-1,56
 1658 430 1658 430 1658 344 c 0,57,58
 1658 200 1658 200 1575.5 100 c 128,-1,59
 1493 0 1493 0 1376 0 c 0,48,49
1301 183 m 0,60,61
 1301 44 1301 44 1389 44 c 0,62,63
 1453 44 1453 44 1507 138 c 128,-1,64
 1561 232 1561 232 1561 347 c 0,65,66
 1561 490 1561 490 1473 490 c 0,67,68
 1406 490 1406 490 1353.5 395.5 c 128,-1,69
 1301 301 1301 301 1301 183 c 0,60,61
EndSplineSet
EndChar

StartChar: circumflex
Encoding: 710 710 139
Width: 862
Flags: W
LayerCount: 2
Fore
SplineSet
870 976 m 1,0,-1
 783 923 l 1,1,2
 729 984 729 984 693 1082 c 1,3,4
 652 1032 652 1032 574 953 c 0,5,6
 571 949 571 949 553 931 c 1,7,-1
 452 923 l 1,8,9
 607 1037 607 1037 674 1120 c 1,10,-1
 772 1182 l 1,11,12
 805 1069 805 1069 870 976 c 1,0,-1
EndSplineSet
EndChar

StartChar: cedilla
Encoding: 184 184 140
Width: 862
Flags: W
LayerCount: 2
Fore
SplineSet
456 0 m 1,0,-1
 414 -64 l 1,1,2
 485 -86 485 -86 485 -147 c 0,3,4
 485 -198 485 -198 428.5 -241 c 128,-1,5
 372 -284 372 -284 303 -284 c 0,6,7
 272 -284 272 -284 237 -277 c 1,8,-1
 292 -201 l 1,9,10
 326 -223 326 -223 352 -223 c 0,11,12
 416 -223 416 -223 416 -171 c 0,13,14
 416 -112 416 -112 318 -112 c 1,15,-1
 394 0 l 1,16,-1
 456 0 l 1,0,-1
EndSplineSet
EndChar

StartChar: brokenbar
Encoding: 166 166 141
Width: 355
Flags: W
LayerCount: 2
Fore
SplineSet
86 -213 m 1,0,-1
 203 373 l 1,1,-1
 301 373 l 1,2,-1
 184 -213 l 1,3,-1
 86 -213 l 1,0,-1
238 551 m 1,4,-1
 355 1137 l 1,5,-1
 453 1137 l 1,6,-1
 337 551 l 1,7,-1
 238 551 l 1,4,-1
EndSplineSet
EndChar

StartChar: minus
Encoding: 8722 8722 142
Width: 1490
Flags: W
LayerCount: 2
Fore
SplineSet
1186 572 m 1,0,-1
 60 572 l 1,1,-1
 26 732 l 1,2,-1
 1152 732 l 1,3,-1
 1186 572 l 1,0,-1
EndSplineSet
EndChar

StartChar: multiply
Encoding: 215 215 143
Width: 915
Flags: W
LayerCount: 2
Fore
SplineSet
233 517 m 1,0,-1
 -33 737 l 1,1,-1
 48 841 l 1,2,-1
 315 621 l 1,3,-1
 490 844 l 1,4,-1
 616 740 l 1,5,-1
 441 517 l 1,6,-1
 719 288 l 1,7,-1
 637 184 l 1,8,-1
 359 413 l 1,9,-1
 184 192 l 1,10,-1
 58 296 l 1,11,-1
 233 517 l 1,0,-1
EndSplineSet
EndChar

StartChar: onesuperior
Encoding: 185 185 144
Width: 596
Flags: W
LayerCount: 2
Fore
SplineSet
573 1093 m 1,0,-1
 487 657 l 2,1,2
 476 607 476 607 476 589 c 0,3,4
 476 570 476 570 532 563 c 1,5,-1
 591 560 l 1,6,-1
 582 516 l 1,7,-1
 210 516 l 1,8,-1
 218 560 l 1,9,-1
 279 563 l 2,10,11
 328 567 328 567 337.5 578 c 128,-1,12
 347 589 347 589 362 657 c 2,13,-1
 418 938 l 2,14,15
 423 960 423 960 423 978 c 0,16,17
 423 1004 423 1004 355 1013 c 2,18,-1
 310 1021 l 1,19,-1
 319 1066 l 1,20,-1
 573 1093 l 1,0,-1
EndSplineSet
EndChar

StartChar: twosuperior
Encoding: 178 178 145
Width: 596
Flags: W
LayerCount: 2
Fore
SplineSet
187 516 m 1,0,-1
 207 617 l 1,1,2
 362 712 362 712 454.5 803.5 c 128,-1,3
 547 895 547 895 547 952 c 0,4,5
 547 1046 547 1046 463 1046 c 0,6,7
 352 1046 352 1046 331 928 c 1,8,-1
 278 928 l 1,9,-1
 304 1059 l 1,10,11
 400 1093 400 1093 484 1093 c 0,12,13
 674 1093 674 1093 674 959 c 0,14,15
 674 887 674 887 624.5 842 c 128,-1,16
 575 797 575 797 297 617 c 1,17,-1
 607 617 l 1,18,-1
 587 516 l 1,19,-1
 187 516 l 1,0,-1
EndSplineSet
EndChar

StartChar: threesuperior
Encoding: 179 179 146
Width: 596
Flags: W
LayerCount: 2
Fore
SplineSet
185 545 m 1,0,-1
 257 620 l 1,1,2
 337 556 337 556 418 556 c 0,3,4
 460 556 460 556 490.5 587 c 128,-1,5
 521 618 521 618 521 661 c 0,6,7
 521 776 521 776 345 776 c 0,8,9
 323 776 323 776 301 773 c 1,10,-1
 331 859 l 1,11,12
 350 860 350 860 365 860 c 0,13,14
 412 860 412 860 466 849 c 1,15,16
 547 886 547 886 547 961 c 0,17,18
 547 1046 547 1046 454 1046 c 0,19,20
 365 1046 365 1046 342 941 c 1,21,-1
 289 941 l 1,22,-1
 311 1057 l 1,23,24
 398 1093 398 1093 484 1093 c 0,25,26
 662 1093 662 1093 662 984 c 0,27,28
 662 893 662 893 520 829 c 1,29,30
 625 790 625 790 625 693 c 0,31,32
 625 616 625 616 554.5 563 c 128,-1,33
 484 510 484 510 378 510 c 0,34,35
 289 510 289 510 185 545 c 1,0,-1
EndSplineSet
EndChar

StartChar: onehalf
Encoding: 189 189 147
Width: 1262
Flags: W
LayerCount: 2
Fore
SplineSet
528 1093 m 1,0,-1
 442 657 l 2,1,2
 432 606 432 606 432 589 c 0,3,4
 432 570 432 570 488 563 c 1,5,-1
 547 560 l 1,6,-1
 538 516 l 1,7,-1
 165 516 l 1,8,-1
 174 560 l 1,9,-1
 235 563 l 2,10,11
 283 567 283 567 293 578 c 128,-1,12
 303 589 303 589 318 657 c 2,13,-1
 373 938 l 2,14,15
 378 960 378 960 378 978 c 0,16,17
 378 1004 378 1004 310 1013 c 2,18,-1
 265 1021 l 1,19,-1
 274 1066 l 1,20,-1
 528 1093 l 1,0,-1
160 -27 m 1,21,-1
 1180 1093 l 1,22,-1
 1280 1093 l 1,23,-1
 257 -27 l 1,24,-1
 160 -27 l 1,21,-1
778 0 m 1,25,-1
 797 103 l 1,26,27
 952 197 952 197 1045 288 c 128,-1,28
 1138 379 1138 379 1138 436 c 0,29,30
 1138 530 1138 530 1053 530 c 0,31,32
 942 530 942 530 922 413 c 1,33,-1
 868 413 l 1,34,-1
 895 544 l 1,35,36
 989 578 989 578 1075 578 c 0,37,38
 1264 578 1264 578 1264 445 c 0,39,40
 1264 373 1264 373 1214.5 328 c 128,-1,41
 1165 283 1165 283 887 103 c 1,42,-1
 1197 103 l 1,43,-1
 1177 0 l 1,44,-1
 778 0 l 1,25,-1
EndSplineSet
EndChar

StartChar: onequarter
Encoding: 188 188 148
Width: 1262
Flags: W
LayerCount: 2
Fore
SplineSet
546 1093 m 1,0,-1
 460 657 l 2,1,2
 450 606 450 606 450 589 c 0,3,4
 450 570 450 570 506 563 c 1,5,-1
 565 560 l 1,6,-1
 556 516 l 1,7,-1
 183 516 l 1,8,-1
 192 560 l 1,9,-1
 253 563 l 2,10,11
 301 567 301 567 311 578 c 128,-1,12
 321 589 321 589 336 657 c 2,13,-1
 391 938 l 2,14,15
 396 960 396 960 396 978 c 0,16,17
 396 1004 396 1004 328 1013 c 2,18,-1
 283 1021 l 1,19,-1
 292 1066 l 1,20,-1
 546 1093 l 1,0,-1
178 -27 m 1,21,-1
 1198 1093 l 1,22,-1
 1298 1093 l 1,23,-1
 275 -27 l 1,24,-1
 178 -27 l 1,21,-1
981 164 m 1,25,-1
 732 182 l 1,26,-1
 747 261 l 1,27,-1
 1102 578 l 1,28,-1
 1170 578 l 1,29,-1
 1102 236 l 1,30,-1
 1212 229 l 1,31,-1
 1168 149 l 1,32,-1
 1086 157 l 1,33,34
 1076 102 1076 102 1076 74 c 0,35,36
 1076 52 1076 52 1129 49 c 2,37,-1
 1189 45 l 1,38,-1
 1180 0 l 1,39,-1
 820 0 l 1,40,-1
 829 45 l 1,41,-1
 886 49 l 2,42,43
 937 52 937 52 952 64 c 128,-1,44
 967 76 967 76 973 117 c 0,45,46
 976 134 976 134 981 164 c 1,25,-1
997 244 m 1,47,-1
 1038 446 l 1,48,-1
 823 255 l 1,49,-1
 997 244 l 1,47,-1
EndSplineSet
EndChar

StartChar: threequarters
Encoding: 190 190 149
Width: 1262
Flags: W
LayerCount: 2
Fore
SplineSet
174 545 m 1,0,-1
 247 620 l 1,1,2
 326 556 326 556 407 556 c 0,3,4
 448 556 448 556 478.5 587 c 128,-1,5
 509 618 509 618 509 661 c 0,6,7
 509 776 509 776 333 776 c 0,8,9
 311 776 311 776 289 773 c 1,10,-1
 319 859 l 1,11,12
 338 860 338 860 355 860 c 0,13,14
 401 860 401 860 455 849 c 1,15,16
 535 886 535 886 535 961 c 0,17,18
 535 1046 535 1046 442 1046 c 0,19,20
 354 1046 354 1046 330 941 c 1,21,-1
 277 941 l 1,22,-1
 301 1057 l 1,23,24
 387 1093 387 1093 472 1093 c 0,25,26
 651 1093 651 1093 651 984 c 0,27,28
 651 893 651 893 508 829 c 1,29,30
 614 790 614 790 614 693 c 0,31,32
 614 616 614 616 543 563 c 128,-1,33
 472 510 472 510 366 510 c 0,34,35
 277 510 277 510 174 545 c 1,0,-1
178 -27 m 1,36,-1
 1198 1093 l 1,37,-1
 1298 1093 l 1,38,-1
 275 -27 l 1,39,-1
 178 -27 l 1,36,-1
981 164 m 1,40,-1
 732 182 l 1,41,-1
 747 261 l 1,42,-1
 1102 578 l 1,43,-1
 1170 578 l 1,44,-1
 1102 236 l 1,45,-1
 1212 229 l 1,46,-1
 1168 149 l 1,47,-1
 1086 157 l 1,48,49
 1076 102 1076 102 1076 74 c 0,50,51
 1076 52 1076 52 1129 49 c 2,52,-1
 1189 45 l 1,53,-1
 1180 0 l 1,54,-1
 820 0 l 1,55,-1
 829 45 l 1,56,-1
 886 49 l 2,57,58
 938 52 938 52 952.5 64 c 128,-1,59
 967 76 967 76 973 117 c 0,60,61
 976 134 976 134 981 164 c 1,40,-1
997 244 m 1,62,-1
 1038 446 l 1,63,-1
 823 255 l 1,64,-1
 997 244 l 1,62,-1
EndSplineSet
EndChar

StartChar: macron
Encoding: 175 175 150
Width: 1118
Flags: W
LayerCount: 2
Fore
SplineSet
1134 1659 m 1,0,-1
 -16 1659 l 1,1,-1
 -16 1789 l 1,2,-1
 1134 1789 l 1,3,-1
 1134 1659 l 1,0,-1
EndSplineSet
EndChar

StartChar: periodcentered
Encoding: 183 183 151
Width: 724
Flags: W
LayerCount: 2
Fore
SplineSet
482 832 m 1,0,-1
 243 832 l 1,1,-1
 243 1117 l 1,2,-1
 482 1117 l 1,3,-1
 482 832 l 1,0,-1
EndSplineSet
EndChar

StartChar: H22073
Encoding: 9633 9633 152
Width: 1237
Flags: W
LayerCount: 2
Fore
SplineSet
-54 944 m 1,0,-1
 889 944 l 1,1,-1
 1090 0 l 1,2,-1
 146 0 l 1,3,-1
 -54 944 l 1,0,-1
37 868 m 1,4,-1
 205 76 l 1,5,-1
 997 76 l 1,6,-1
 829 868 l 1,7,-1
 37 868 l 1,4,-1
EndSplineSet
EndChar

StartChar: H18543
Encoding: 9642 9642 153
Width: 1089
Flags: W
LayerCount: 2
Fore
SplineSet
674 994 m 1,0,-1
 822 300 l 1,1,-1
 128 300 l 1,2,-1
 -19 994 l 1,3,-1
 674 994 l 1,0,-1
EndSplineSet
EndChar

StartChar: H18551
Encoding: 9643 9643 154
Width: 1089
Flags: W
LayerCount: 2
Fore
SplineSet
676 996 m 1,0,-1
 824 301 l 1,1,-1
 129 301 l 1,2,-1
 -18 996 l 1,3,-1
 676 996 l 1,0,-1
586 882 m 1,4,-1
 119 882 l 1,5,-1
 218 415 l 1,6,-1
 685 415 l 1,7,-1
 586 882 l 1,4,-1
EndSplineSet
EndChar

StartChar: H18533
Encoding: 9679 9679 155
Width: 1339
Flags: W
LayerCount: 2
Fore
SplineSet
51 719 m 0,0,1
 8 920 8 920 119 1061 c 128,-1,2
 230 1202 230 1202 429 1202 c 0,3,4
 629 1202 629 1202 800 1061 c 128,-1,5
 971 920 971 920 1014 719 c 0,6,7
 1056 521 1056 521 945 380 c 128,-1,8
 834 239 834 239 634 239 c 0,9,10
 435 239 435 239 264 380 c 128,-1,11
 93 521 93 521 51 719 c 0,0,1
EndSplineSet
EndChar

StartChar: openbullet
Encoding: 9702 9702 156
Width: 1089
Flags: W
LayerCount: 2
Fore
SplineSet
295 1171 m 0,0,1
 451 1171 451 1171 585 1060.5 c 128,-1,2
 719 950 719 950 752 794 c 256,3,4
 785 638 785 638 698 528 c 128,-1,5
 611 418 611 418 455 418 c 256,6,7
 299 418 299 418 165.5 528 c 128,-1,8
 32 638 32 638 0 794 c 0,9,10
 -33 950 -33 950 52.5 1060.5 c 128,-1,11
 138 1171 138 1171 295 1171 c 0,0,1
319 1057 m 0,12,13
 210 1057 210 1057 150 979.5 c 128,-1,14
 90 902 90 902 113 794 c 0,15,16
 136 685 136 685 229 608.5 c 128,-1,17
 322 532 322 532 430 532 c 256,18,19
 538 532 538 532 599.5 608.5 c 128,-1,20
 661 685 661 685 638 794 c 0,21,22
 615 902 615 902 522 979.5 c 128,-1,23
 429 1057 429 1057 319 1057 c 0,12,13
EndSplineSet
EndChar

StartChar: currency
Encoding: 164 164 157
Width: 932
Flags: W
LayerCount: 2
Fore
SplineSet
769 322 m 1,0,-1
 879 184 l 1,1,-1
 841 153 l 1,2,-1
 732 292 l 1,3,4
 616 214 616 214 504 214 c 0,5,6
 394 214 394 214 310 292 c 1,7,-1
 145 153 l 1,8,-1
 120 184 l 1,9,-1
 286 322 l 1,10,11
 243 397 243 397 243 470 c 0,12,13
 243 613 243 613 369 743 c 1,14,-1
 259 882 l 1,15,-1
 297 913 l 1,16,-1
 407 775 l 1,17,18
 521 852 521 852 634 852 c 0,19,20
 744 852 744 852 828 775 c 1,21,-1
 994 913 l 1,22,-1
 1019 882 l 1,23,-1
 852 743 l 1,24,25
 895 668 895 668 895 596 c 0,26,27
 895 455 895 455 769 322 c 1,0,-1
818 579 m 0,28,29
 818 666 818 666 762 721.5 c 128,-1,30
 706 777 706 777 620 777 c 0,31,32
 502 777 502 777 411 688 c 128,-1,33
 320 599 320 599 320 485 c 0,34,35
 320 400 320 400 376.5 344.5 c 128,-1,36
 433 289 433 289 519 289 c 0,37,38
 635 289 635 289 726.5 377.5 c 128,-1,39
 818 466 818 466 818 579 c 0,28,29
EndSplineSet
EndChar

StartChar: uniFFFC
Encoding: 65532 65532 158
Width: 2048
Flags: W
LayerCount: 2
Fore
SplineSet
2048 1150 m 1,0,-1
 1948 1150 l 1,1,-1
 1948 1373 l 1,2,-1
 1725 1373 l 1,3,-1
 1725 1473 l 1,4,-1
 2048 1473 l 1,5,-1
 2048 1150 l 1,0,-1
1473 1373 m 1,6,-1
 1150 1373 l 1,7,-1
 1150 1473 l 1,8,-1
 1473 1473 l 1,9,-1
 1473 1373 l 1,6,-1
2048 575 m 1,10,-1
 1948 575 l 1,11,-1
 1948 898 l 1,12,-1
 2048 898 l 1,13,-1
 2048 575 l 1,10,-1
1782 611 m 2,14,15
 1782 370 1782 370 1571 370 c 0,16,17
 1485 370 1485 370 1433 415 c 1,18,-1
 1506 494 l 1,19,20
 1531 468 1531 468 1571 468 c 0,21,22
 1666 468 1666 468 1666 606 c 2,23,-1
 1666 1090 l 1,24,-1
 1782 1090 l 1,25,-1
 1782 611 l 2,14,15
898 1373 m 1,26,-1
 575 1373 l 1,27,-1
 575 1473 l 1,28,-1
 898 1473 l 1,29,-1
 898 1373 l 1,26,-1
2048 0 m 1,30,-1
 1725 0 l 1,31,-1
 1725 100 l 1,32,-1
 1948 100 l 1,33,-1
 1948 323 l 1,34,-1
 2048 323 l 1,35,-1
 2048 0 l 1,30,-1
1423 591 m 0,36,37
 1423 382 1423 382 1149 382 c 2,38,-1
 909 382 l 1,39,-1
 909 1090 l 1,40,-1
 1144 1090 l 2,41,42
 1393 1090 1393 1090 1393 904 c 0,43,44
 1393 813 1393 813 1304 759 c 1,45,46
 1423 713 1423 713 1423 591 c 0,36,37
323 1373 m 1,47,-1
 100 1373 l 1,48,-1
 100 1150 l 1,49,-1
 0 1150 l 1,50,-1
 0 1473 l 1,51,-1
 323 1473 l 1,52,-1
 323 1373 l 1,47,-1
1473 0 m 1,53,-1
 1150 0 l 1,54,-1
 1150 100 l 1,55,-1
 1473 100 l 1,56,-1
 1473 0 l 1,53,-1
854 735 m 0,57,58
 854 562 854 562 772 466 c 128,-1,59
 690 370 690 370 537 370 c 256,60,61
 384 370 384 370 303.5 466 c 128,-1,62
 223 562 223 562 223 735 c 0,63,64
 223 910 223 910 303.5 1006 c 128,-1,65
 384 1102 384 1102 537 1102 c 256,66,67
 690 1102 690 1102 772 1006 c 128,-1,68
 854 910 854 910 854 735 c 0,57,58
100 575 m 1,69,-1
 0 575 l 1,70,-1
 0 898 l 1,71,-1
 100 898 l 1,72,-1
 100 575 l 1,69,-1
898 0 m 1,73,-1
 575 0 l 1,74,-1
 575 100 l 1,75,-1
 898 100 l 1,76,-1
 898 0 l 1,73,-1
323 0 m 1,77,-1
 0 0 l 1,78,-1
 0 323 l 1,79,-1
 100 323 l 1,80,-1
 100 100 l 1,81,-1
 323 100 l 1,82,-1
 323 0 l 1,77,-1
1277 893 m 0,83,84
 1277 992 1277 992 1114 992 c 2,85,-1
 1025 992 l 1,86,-1
 1025 798 l 1,87,-1
 1126 798 l 2,88,89
 1277 798 1277 798 1277 893 c 0,83,84
1307 591 m 0,90,91
 1307 700 1307 700 1136 700 c 2,92,-1
 1025 700 l 1,93,-1
 1025 480 l 1,94,-1
 1149 480 l 2,95,96
 1307 480 1307 480 1307 591 c 0,90,91
738 735 m 0,97,98
 738 1004 738 1004 537 1004 c 0,99,100
 339 1004 339 1004 339 735 c 0,101,102
 339 468 339 468 537 468 c 0,103,104
 738 468 738 468 738 735 c 0,97,98
EndSplineSet
EndChar

StartChar: dotbelowcomb
Encoding: 65538 -1 160
Width: 0
Flags: W
LayerCount: 2
Fore
SplineSet
747 -382 m 1,0,-1
 533 -382 l 1,1,-1
 491 -187 l 1,2,-1
 705 -187 l 1,3,-1
 747 -382 l 1,0,-1
EndSplineSet
EndChar

StartChar: zerowidthnonjoiner
Encoding: 8204 8204 175
Width: 0
GlyphClass: 2
Flags: W
LayerCount: 2
Fore
SplineSet
36 1289 m 1,0,-1
 36 -275 l 1,1,-1
 -36 -275 l 1,2,-1
 -36 1289 l 1,3,-1
 36 1289 l 1,0,-1
EndSplineSet
EndChar

StartChar: zerowidthjoiner
Encoding: 8205 8205 176
Width: 0
GlyphClass: 2
Flags: W
LayerCount: 2
Fore
SplineSet
36 -275 m 1,0,-1
 -36 -275 l 1,1,-1
 -36 1114 l 1,2,-1
 -170 978 l 1,3,-1
 -219 1027 l 1,4,-1
 -48 1196 l 1,5,-1
 -219 1364 l 1,6,-1
 -170 1413 l 1,7,-1
 0 1242 l 1,8,-1
 170 1413 l 1,9,-1
 219 1364 l 1,10,-1
 48 1196 l 1,11,-1
 219 1027 l 1,12,-1
 170 978 l 1,13,-1
 36 1114 l 1,14,-1
 36 -275 l 1,0,-1
EndSplineSet
EndChar

StartChar: lefttorightmark
Encoding: 8206 8206 177
Width: 0
GlyphClass: 2
Flags: W
LayerCount: 2
Fore
SplineSet
430 1198 m 1,0,-1
 213 984 l 1,1,-1
 164 1033 l 1,2,-1
 301 1163 l 1,3,-1
 35 1163 l 1,4,-1
 35 -275 l 1,5,-1
 -36 -275 l 1,6,-1
 -36 1234 l 1,7,-1
 301 1234 l 1,8,-1
 164 1364 l 1,9,-1
 213 1413 l 1,10,-1
 430 1198 l 1,0,-1
EndSplineSet
EndChar

StartChar: righttoleftmark
Encoding: 8207 8207 178
Width: 0
GlyphClass: 2
Flags: W
LayerCount: 2
Fore
SplineSet
35 -275 m 1,0,-1
 -36 -275 l 1,1,-1
 -36 1163 l 1,2,-1
 -302 1163 l 1,3,-1
 -165 1033 l 1,4,-1
 -214 984 l 1,5,-1
 -431 1198 l 1,6,-1
 -214 1413 l 1,7,-1
 -165 1364 l 1,8,-1
 -302 1234 l 1,9,-1
 35 1234 l 1,10,-1
 35 -275 l 1,0,-1
EndSplineSet
EndChar

StartChar: afii57388.001
Encoding: 1644 1644 179
Width: 353
GlyphClass: 2
Flags: W
LayerCount: 2
Fore
SplineSet
210 654 m 0,0,1
 200 627 200 627 185 603 c 0,2,3
 180 597 180 597 173.5 593.5 c 128,-1,4
 167 590 167 590 162 590 c 128,-1,5
 157 590 157 590 154.5 593 c 128,-1,6
 152 596 152 596 155 603 c 0,7,8
 187 660 187 660 202.5 713.5 c 128,-1,9
 218 767 218 767 218 800 c 1,10,11
 194 806 194 806 179 816 c 128,-1,12
 164 826 164 826 155 837.5 c 128,-1,13
 146 849 146 849 143 859 c 128,-1,14
 140 869 140 869 140 874 c 0,15,16
 140 890 140 890 145.5 907 c 128,-1,17
 151 924 151 924 160.5 937.5 c 128,-1,18
 170 951 170 951 183.5 959.5 c 128,-1,19
 197 968 197 968 213 968 c 0,20,21
 272 968 272 968 272 874 c 0,22,23
 272 859 272 859 268 835 c 128,-1,24
 264 811 264 811 256 781.5 c 128,-1,25
 248 752 248 752 236.5 719.5 c 128,-1,26
 225 687 225 687 210 654 c 0,0,1
EndSplineSet
EndChar

StartChar: afii57409
Encoding: 1569 1569 180
Width: 981
GlyphClass: 2
Flags: W
AnchorPoint: "Anchor-1" 570 -285 basechar 0
AnchorPoint: "Anchor-0" 405 750 basechar 0
LayerCount: 2
Fore
SplineSet
879 173 m 1,0,-1
 231 -8 l 1,1,-1
 177 102 l 1,2,-1
 396 162 l 1,3,4
 290 249 290 249 264 368 c 0,5,6
 243 466 243 466 301 527 c 0,7,8
 356 584 356 584 455 584 c 0,9,10
 522 584 522 584 641 555 c 1,11,-1
 644 457 l 1,12,13
 553 479 553 479 499 479 c 0,14,15
 446 479 446 479 406 448 c 0,16,17
 363 413 363 413 374 362 c 0,18,19
 387 300 387 300 460 259 c 0,20,21
 525 223 525 223 590 223 c 0,22,23
 630 223 630 223 825 280 c 1,24,-1
 879 173 l 1,0,-1
EndSplineSet
EndChar

StartChar: afii57440
Encoding: 1600 1600 181
Width: 654
GlyphClass: 2
Flags: W
LayerCount: 2
Fore
SplineSet
684 0 m 1,0,-1
 -27 0 l 1,1,-1
 -64 178 l 1,2,-1
 646 178 l 1,3,-1
 684 0 l 1,0,-1
EndSplineSet
EndChar

StartChar: afii57453
Encoding: 1613 1613 182
Width: 0
GlyphClass: 4
Flags: W
AnchorPoint: "Anchor-3" 0 0 mark 0
AnchorPoint: "Anchor-1" 0 0 mark 0
LayerCount: 2
Fore
SplineSet
209 111 m 1,0,-1
 -208 0 l 1,1,-1
 -248 78 l 1,2,-1
 166 195 l 1,3,-1
 209 111 l 1,0,-1
246 -62 m 1,4,-1
 -171 -172 l 1,5,-1
 -211 -95 l 1,6,-1
 203 23 l 1,7,-1
 246 -62 l 1,4,-1
EndSplineSet
EndChar

StartChar: afii57455.001
Encoding: 65539 -1 183
Width: 583
GlyphClass: 4
Flags: W
LayerCount: 2
Fore
SplineSet
213 1499 m 0,0,1
 239 1376 239 1376 95 1340 c 2,2,-1
 -191 1263 l 1,3,-1
 -223 1331 l 1,4,5
 -112 1360 -112 1360 -35 1393 c 1,6,7
 -80 1439 -80 1439 -91 1491 c 0,8,9
 -104 1551 -104 1551 -60 1596 c 0,10,11
 -22 1635 -22 1635 23 1635 c 0,12,13
 83 1635 83 1635 140 1598 c 0,14,15
 201 1557 201 1557 213 1499 c 0,0,1
131 1488 m 0,16,17
 125 1516 125 1516 99.5 1536 c 128,-1,18
 74 1556 74 1556 46 1556 c 0,19,20
 17 1556 17 1556 0 1536 c 128,-1,21
 -17 1516 -17 1516 -11 1488 c 256,22,23
 -5 1460 -5 1460 20.5 1439.5 c 128,-1,24
 46 1419 46 1419 75 1419 c 0,25,26
 103 1419 103 1419 120 1439 c 128,-1,27
 137 1459 137 1459 131 1488 c 0,16,17
EndSplineSet
EndChar

StartChar: afii57458.001
Encoding: 65540 -1 184
Width: 471
GlyphClass: 4
Flags: W
LayerCount: 2
Fore
SplineSet
250 744 m 0,0,1
 265 677 265 677 228 629.5 c 128,-1,2
 191 582 191 582 123 582 c 0,3,4
 57 582 57 582 -1 630 c 128,-1,5
 -59 678 -59 678 -73 744 c 0,6,7
 -86 808 -86 808 -47 857 c 128,-1,8
 -8 906 -8 906 54 906 c 256,9,10
 116 906 116 906 176.5 856 c 128,-1,11
 237 806 237 806 250 744 c 0,0,1
171 747 m 0,12,13
 163 782 163 782 133 804.5 c 128,-1,14
 103 827 103 827 68 827 c 0,15,16
 37 827 37 827 18.5 801.5 c 128,-1,17
 0 776 0 776 5 744 c 0,18,19
 23 661 23 661 106 661 c 256,20,21
 189 661 189 661 171 747 c 0,12,13
EndSplineSet
EndChar

StartChar: afii57381
Encoding: 1642 1642 185
Width: 1024
GlyphClass: 2
Flags: W
LayerCount: 2
Fore
SplineSet
248 -132 m 1,0,-1
 497 1335 l 1,1,-1
 590 1301 l 1,2,-1
 342 -166 l 1,3,-1
 248 -132 l 1,0,-1
927 52 m 0,4,5
 936 11 936 11 913 -18.5 c 128,-1,6
 890 -48 890 -48 849 -48 c 0,7,8
 807 -48 807 -48 771 -18.5 c 128,-1,9
 735 11 735 11 726 53 c 0,10,11
 718 94 718 94 741 123.5 c 128,-1,12
 764 153 764 153 805 153 c 0,13,14
 848 153 848 153 883.5 123.5 c 128,-1,15
 919 94 919 94 927 52 c 0,4,5
79 1135 m 0,16,17
 88 1095 88 1095 64.5 1065.5 c 128,-1,18
 41 1036 41 1036 0 1036 c 256,19,20
 -41 1036 -41 1036 -76.5 1065.5 c 128,-1,21
 -112 1095 -112 1095 -121 1137 c 0,22,23
 -130 1178 -130 1178 -106.5 1207.5 c 128,-1,24
 -83 1237 -83 1237 -42 1237 c 0,25,26
 0 1237 0 1237 35 1207.5 c 128,-1,27
 70 1178 70 1178 79 1135 c 0,16,17
EndSplineSet
EndChar

StartChar: afii57461
Encoding: 1643 1643 186
Width: 985
GlyphClass: 2
Flags: W
LayerCount: 2
Fore
SplineSet
228 -521 m 1,0,-1
 664 502 l 1,1,-1
 778 502 l 1,2,-1
 342 -521 l 1,3,-1
 228 -521 l 1,0,-1
EndSplineSet
EndChar

StartChar: afii63167
Encoding: 1645 1645 187
Width: 1118
GlyphClass: 2
Flags: W
LayerCount: 2
Fore
SplineSet
694 729 m 1,0,-1
 1057 733 l 1,1,-1
 1057 610 l 1,2,-1
 702 612 l 1,3,-1
 971 352 l 1,4,-1
 883 264 l 1,5,-1
 616 539 l 1,6,-1
 623 168 l 1,7,-1
 498 168 l 1,8,-1
 502 539 l 1,9,-1
 236 264 l 1,10,-1
 147 352 l 1,11,-1
 422 614 l 1,12,-1
 63 610 l 1,13,-1
 63 733 l 1,14,-1
 420 729 l 1,15,-1
 170 975 l 1,16,-1
 258 1065 l 1,17,-1
 502 817 l 1,18,-1
 498 1176 l 1,19,-1
 623 1176 l 1,20,-1
 616 813 l 1,21,-1
 860 1065 l 1,22,-1
 948 975 l 1,23,-1
 694 729 l 1,0,-1
EndSplineSet
EndChar

StartChar: afii57459
Encoding: 65541 -1 188
Width: 672
GlyphClass: 2
Flags: W
LayerCount: 2
Fore
SplineSet
556 349 m 0,0,1
 590 191 590 191 529 99 c 0,2,3
 466 1 466 1 311 0 c 2,4,-1
 -70 0 l 1,5,-1
 -107 178 l 1,6,-1
 287 178 l 2,7,8
 426 178 426 178 417 298 c 1,9,-1
 274 298 l 2,10,11
 158 298 158 298 75 361 c 0,12,13
 -11 425 -11 425 -37 539 c 0,14,15
 -59 631 -59 631 -18 708 c 0,16,17
 28 789 28 789 118 790 c 0,18,19
 280 790 280 790 408 646 c 0,20,21
 520 519 520 519 556 349 c 0,0,1
379 460 m 1,22,23
 266 638 266 638 158 638 c 0,24,25
 116 638 116 638 94.5 609 c 128,-1,26
 73 580 73 580 82 538 c 0,27,28
 99 460 99 460 221 460 c 2,29,-1
 379 460 l 1,22,23
EndSplineSet
EndChar

StartChar: afii57543
Encoding: 65542 -1 189
Width: 538
Flags: W
LayerCount: 2
Fore
SplineSet
538 0 m 1,0,-1
 513 0 l 2,1,2
 357 0 357 0 265 114 c 1,3,4
 221 0 221 0 83 0 c 2,5,-1
 -70 0 l 1,6,-1
 -107 178 l 1,7,-1
 5 178 l 2,8,9
 98 177 98 177 115 216 c 0,10,11
 126 243 126 243 106 338 c 2,12,-1
 61 550 l 1,13,-1
 215 550 l 1,14,-1
 249 386 l 2,15,16
 277 258 277 258 333 214 c 0,17,18
 380 178 380 178 484 178 c 2,19,-1
 500 178 l 1,20,-1
 538 0 l 1,0,-1
EndSplineSet
EndChar

StartChar: afii57534
Encoding: 1749 1749 190
Width: 959
GlyphClass: 2
Flags: W
LayerCount: 2
Fore
SplineSet
856 275 m 0,0,1
 886 133 886 133 785 60 c 0,2,3
 702 1 702 1 564 1 c 0,4,5
 388 1 388 1 275.5 94.5 c 128,-1,6
 163 188 163 188 126 362 c 0,7,8
 100 480 100 480 139 569 c 0,9,10
 183 671 183 671 295 671 c 0,11,12
 433 671 433 671 622 550 c 0,13,14
 825 419 825 419 856 275 c 0,0,1
711 281 m 0,15,16
 696 352 696 352 544 440 c 0,17,18
 404 522 404 522 339 522 c 0,19,20
 288 522 288 522 272 461 c 0,21,22
 259 412 259 412 271 355 c 0,23,24
 290 267 290 267 363 220 c 0,25,26
 428 178 428 178 519 178 c 0,27,28
 733 178 733 178 711 281 c 0,15,16
EndSplineSet
EndChar

StartChar: afii64240
Encoding: 65543 -1 191
Width: 382
Flags: W
LayerCount: 2
Fore
SplineSet
263 0 m 1,0,-1
 104 0 l 1,1,-1
 70 158 l 1,2,-1
 229 158 l 1,3,-1
 263 0 l 1,0,-1
EndSplineSet
EndChar

StartChar: afii64241
Encoding: 65544 -1 192
Width: 467
Flags: W
LayerCount: 2
Fore
SplineSet
420 3 m 1,0,-1
 262 3 l 1,1,-1
 228 161 l 1,2,-1
 386 161 l 1,3,-1
 420 3 l 1,0,-1
204 3 m 1,4,-1
 46 3 l 1,5,-1
 12 161 l 1,6,-1
 170 161 l 1,7,-1
 204 3 l 1,4,-1
EndSplineSet
EndChar

StartChar: afii63954
Encoding: 65545 -1 193
Width: 509
Flags: W
LayerCount: 2
Fore
SplineSet
295 204 m 1,0,-1
 136 204 l 1,1,-1
 103 362 l 1,2,-1
 262 362 l 1,3,-1
 295 204 l 1,0,-1
445 1 m 1,4,-1
 287 1 l 1,5,-1
 254 159 l 1,6,-1
 412 159 l 1,7,-1
 445 1 l 1,4,-1
229 1 m 1,8,-1
 71 1 l 1,9,-1
 38 159 l 1,10,-1
 196 159 l 1,11,-1
 229 1 l 1,8,-1
EndSplineSet
EndChar

StartChar: afii57382
Encoding: 65546 -1 194
Width: 484
Flags: W
LayerCount: 2
Fore
SplineSet
463 -158 m 1,0,-1
 304 -158 l 1,1,-1
 271 0 l 1,2,-1
 430 0 l 1,3,-1
 463 -158 l 1,0,-1
246 -158 m 1,4,-1
 89 -158 l 1,5,-1
 56 0 l 1,6,-1
 213 0 l 1,7,-1
 246 -158 l 1,4,-1
397 -361 m 1,8,-1
 238 -361 l 1,9,-1
 205 -203 l 1,10,-1
 364 -203 l 1,11,-1
 397 -361 l 1,8,-1
EndSplineSet
EndChar

StartChar: afii64242
Encoding: 65547 -1 195
Width: 449
Flags: W
LayerCount: 2
Fore
SplineSet
345 252 m 0,0,1
 365 157 365 157 322 87 c 0,2,3
 268 1 268 1 135 0 c 2,4,-1
 -70 0 l 1,5,-1
 -107 178 l 1,6,-1
 94 178 l 2,7,8
 206 178 206 178 188 260 c 0,9,10
 181 294 181 294 148 337 c 2,11,-1
 21 500 l 1,12,-1
 131 591 l 1,13,14
 240 448 240 448 265 411 c 0,15,16
 332 312 332 312 345 252 c 0,0,1
EndSplineSet
EndChar

StartChar: afii62881
Encoding: 59416 59416 196
Width: 0
GlyphClass: 4
Flags: W
AnchorPoint: "Anchor-2" 0 0 mark 0
AnchorPoint: "Anchor-0" 0 0 mark 0
LayerCount: 2
Fore
SplineSet
209 178 m 0,0,1
 220 126 220 126 200 90 c 0,2,3
 180 51 180 51 129 51 c 0,4,5
 41 51 41 51 -23 121 c 1,6,7
 -50 3 -50 3 -159 3 c 0,8,9
 -207 3 -207 3 -245 39 c 0,10,11
 -280 72 -280 72 -290 120 c 0,12,13
 -304 184 -304 184 -284 278 c 1,14,-1
 -219 249 l 1,15,16
 -230 177 -230 177 -226 158 c 0,17,18
 -213 96 -213 96 -162 96 c 0,19,20
 -62 96 -62 96 -103 264 c 1,21,-1
 -33 307 l 1,22,23
 6 141 6 141 89 141 c 0,24,25
 143 141 143 141 130 198 c 0,26,27
 123 231 123 231 64 298 c 1,28,-1
 115 344 l 1,29,30
 191 263 191 263 209 178 c 0,0,1
103 654 m 1,31,-1
 -358 524 l 1,32,-1
 -398 601 l 1,33,-1
 60 739 l 1,34,-1
 103 654 l 1,31,-1
140 484 m 1,35,-1
 -322 354 l 1,36,-1
 -362 431 l 1,37,-1
 97 569 l 1,38,-1
 140 484 l 1,35,-1
EndSplineSet
Ligature2: "'ccmp' Glyph Composition/Decomposition in Arabic lookup 4 subtable" afii57457 afii57451
EndChar

StartChar: afii57373
Encoding: 65548 -1 200
Width: 530
Flags: W
LayerCount: 2
Fore
SplineSet
328 722 m 1,0,-1
 -48 584 l 1,1,-1
 -93 659 l 1,2,-1
 30 705 l 1,3,4
 -29 753 -29 753 -45 832 c 0,5,6
 -60 899 -60 899 0 938 c 0,7,8
 48 970 48 970 120 970 c 0,9,10
 149 970 149 970 181 965 c 1,11,-1
 196 897 l 1,12,13
 174 900 174 900 153 900 c 0,14,15
 107 900 107 900 75 883 c 0,16,17
 32 861 32 861 41 820 c 0,18,19
 48 790 48 790 76 770.5 c 128,-1,20
 104 751 104 751 135 751 c 0,21,22
 172 751 172 751 286 797 c 1,23,-1
 328 722 l 1,0,-1
EndSplineSet
EndChar

StartChar: afii57374
Encoding: 65549 -1 201
Width: 749
GlyphClass: 2
Flags: W
LayerCount: 2
Fore
SplineSet
749 0 m 1,0,-1
 663 0 l 2,1,2
 569 0 569 0 463 30 c 0,3,4
 372 56 372 56 332 87 c 1,5,6
 298 56 298 56 218 30 c 0,7,8
 128 0 128 0 39 0 c 2,9,-1
 -70 0 l 1,10,-1
 -107 178 l 1,11,-1
 16 178 l 2,12,13
 105 178 105 178 151 194 c 1,14,15
 20 279 20 279 -10 424 c 0,16,17
 -32 527 -32 527 47 592 c 0,18,19
 116 650 116 650 224 650 c 0,20,21
 329 650 329 650 422 584 c 0,22,23
 521 515 521 515 543 413 c 0,24,25
 572 276 572 276 465 194 c 1,26,27
 501 178 501 178 561 178 c 2,28,-1
 711 178 l 1,29,-1
 749 0 l 1,0,-1
398 396 m 0,30,31
 388 443 388 443 343 473 c 128,-1,32
 298 503 298 503 250 503 c 0,33,34
 200 503 200 503 168 478 c 0,35,36
 132 449 132 449 142 401 c 0,37,38
 153 350 153 350 199 303.5 c 128,-1,39
 245 257 245 257 297 241 c 1,40,41
 344 257 344 257 375 300 c 0,42,43
 409 347 409 347 398 396 c 0,30,31
EndSplineSet
EndChar

StartChar: afii57375
Encoding: 1619 1619 202
Width: 932
GlyphClass: 2
Flags: W
LayerCount: 2
Fore
SplineSet
562 1297 m 1,0,1
 410 1197 410 1197 190 1197 c 0,2,3
 79 1200 79 1200 -54 1268 c 1,4,5
 -67 1264 -67 1264 -88 1203 c 1,6,-1
 -204 1265 l 1,7,8
 -152 1417 -152 1417 -110 1417 c 0,9,10
 -102 1417 -102 1417 3.5 1372 c 128,-1,11
 109 1327 109 1327 177 1327 c 0,12,13
 368 1330 368 1330 535 1422 c 1,14,-1
 562 1297 l 1,0,1
EndSplineSet
EndChar

StartChar: afii57471
Encoding: 65550 -1 203
Width: 1923
Flags: W
LayerCount: 2
Fore
SplineSet
1923 0 m 1,0,-1
 1860 0 l 2,1,2
 1688 1 1688 1 1566 132 c 1,3,4
 1526 1 1526 1 1360 1 c 2,5,-1
 446 1 l 2,6,7
 316 1 316 1 218 86.5 c 128,-1,8
 120 172 120 172 92 303 c 2,9,-1
 77 374 l 1,10,-1
 226 374 l 1,11,-1
 233 340 l 2,12,13
 268 178 268 178 424 178 c 2,14,-1
 1307 178 l 2,15,16
 1431 178 1431 178 1416 249 c 0,17,18
 1408 285 1408 285 1362 344 c 2,19,-1
 1248 493 l 1,20,-1
 1359 579 l 1,21,-1
 1485 410 l 2,22,23
 1569 297 1569 297 1626 252 c 0,24,25
 1719 178 1719 178 1826 178 c 2,26,-1
 1885 178 l 1,27,-1
 1923 0 l 1,0,-1
EndSplineSet
EndChar

StartChar: afii52258
Encoding: 65551 -1 204
Width: 1875
GlyphClass: 2
Flags: W
LayerCount: 2
Fore
SplineSet
1875 0 m 1,0,-1
 1788 0 l 2,1,2
 1730 0 1730 0 1619 27 c 0,3,4
 1498 56 1498 56 1457 87 c 1,5,6
 1421 56 1421 56 1338.5 28.5 c 128,-1,7
 1256 1 1256 1 1163 1 c 2,8,-1
 462 1 l 2,9,10
 315 1 315 1 217 88 c 128,-1,11
 119 175 119 175 88 323 c 2,12,-1
 75 385 l 1,13,-1
 222 385 l 1,14,-1
 232 337 l 2,15,16
 266 178 266 178 415 178 c 2,17,-1
 1140 178 l 2,18,19
 1230 178 1230 178 1274 194 c 1,20,21
 1144 279 1144 279 1113 425 c 1,22,23
 1098 527 1098 527 1172 592 c 0,24,25
 1242 651 1242 651 1348 651 c 0,26,27
 1453 651 1453 651 1546 585 c 0,28,29
 1645 515 1645 515 1667 413 c 0,30,31
 1696 274 1696 274 1589 194 c 1,32,33
 1626 178 1626 178 1686 178 c 2,34,-1
 1837 178 l 1,35,-1
 1875 0 l 1,0,-1
1522 396 m 0,36,37
 1513 442 1513 442 1466 474 c 0,38,39
 1422 503 1422 503 1375 503 c 0,40,41
 1325 503 1325 503 1293 478 c 0,42,43
 1257 449 1257 449 1267 401 c 0,44,45
 1278 349 1278 349 1322 304 c 128,-1,46
 1366 259 1366 259 1420 241 c 1,47,48
 1463 255 1463 255 1496 296 c 0,49,50
 1533 344 1533 344 1522 396 c 0,36,37
EndSplineSet
EndChar

StartChar: afii62889
Encoding: 65552 -1 210
Width: 1403
Flags: W
LayerCount: 2
Fore
SplineSet
1403 0 m 1,0,-1
 1257 0 l 1,1,2
 1283 -227 1283 -227 1121 -365 c 0,3,4
 972 -491 972 -491 735 -491 c 0,5,6
 495 -491 495 -491 339 -373 c 0,7,8
 177 -250 177 -250 126 -13 c 0,9,10
 100 109 100 109 112 234 c 1,11,-1
 257 205 l 1,12,13
 255 83 255 83 271 8 c 0,14,15
 303 -144 303 -144 408 -231 c 128,-1,16
 513 -318 513 -318 665 -318 c 0,17,18
 851 -318 851 -318 976 -250 c 0,19,20
 1136 -164 1136 -164 1102 0 c 1,21,-1
 957 0 l 2,22,23
 826 3 826 3 739 74 c 128,-1,24
 652 145 652 145 624 275 c 0,25,26
 604 369 604 369 649 442 c 0,27,28
 696 520 696 520 788 520 c 0,29,30
 920 520 920 520 1041 411 c 0,31,32
 1148 316 1148 316 1209 178 c 1,33,-1
 1365 178 l 1,34,-1
 1403 0 l 1,0,-1
1066 178 m 1,35,36
 963 355 963 355 843 355 c 0,37,38
 802 355 802 355 780.5 326 c 128,-1,39
 759 297 759 297 768 256 c 0,40,41
 785 177 785 177 906 178 c 2,42,-1
 1066 178 l 1,35,36
EndSplineSet
EndChar

StartChar: afii62887
Encoding: 65553 -1 211
Width: 1618
Flags: W
LayerCount: 2
Fore
SplineSet
1523 241 m 0,0,1
 1546 133 1546 133 1484 65 c 0,2,3
 1425 0 1425 0 1315 0 c 2,4,-1
 401 0 l 2,5,6
 270 1 270 1 172 86.5 c 128,-1,7
 74 172 74 172 46 303 c 2,8,-1
 31 374 l 1,9,-1
 180 374 l 1,10,-1
 187 340 l 2,11,12
 222 178 222 178 378 178 c 2,13,-1
 1261 178 l 2,14,15
 1383 178 1383 178 1368 248 c 0,16,17
 1360 283 1360 283 1316 344 c 2,18,-1
 1204 499 l 1,19,-1
 1316 584 l 1,20,-1
 1447 397 l 1,21,22
 1511 298 1511 298 1523 241 c 0,0,1
EndSplineSet
EndChar

StartChar: afii62888
Encoding: 1697 1697 212
Width: 1650
GlyphClass: 2
Flags: W
LayerCount: 2
Fore
SplineSet
1531 349 m 0,0,1
 1565 190 1565 190 1506 98 c 0,2,3
 1443 1 1443 1 1286 1 c 2,4,-1
 440 1 l 2,5,6
 293 1 293 1 195 88 c 128,-1,7
 97 175 97 175 66 323 c 2,8,-1
 53 385 l 1,9,-1
 200 385 l 1,10,-1
 210 337 l 2,11,12
 244 178 244 178 393 178 c 2,13,-1
 1260 178 l 2,14,15
 1401 178 1401 178 1393 298 c 1,16,-1
 1250 298 l 2,17,18
 1134 298 1134 298 1051 361 c 0,19,20
 964 425 964 425 938 539 c 0,21,22
 917 630 917 630 958 707 c 0,23,24
 1004 790 1004 790 1093 790 c 0,25,26
 1255 790 1255 790 1383 646 c 0,27,28
 1495 519 1495 519 1531 349 c 0,0,1
1354 460 m 1,29,30
 1242 638 1242 638 1133 638 c 0,31,32
 1092 638 1092 638 1070.5 609 c 128,-1,33
 1049 580 1049 580 1058 538 c 0,34,35
 1075 460 1075 460 1196 460 c 2,36,-1
 1354 460 l 1,29,30
EndSplineSet
Substitution2: "'fina' Terminal Forms in Arabic lookup 3 subtable" afii52258
Substitution2: "'medi' Medial Forms in Arabic lookup 2 subtable" afii57374
Substitution2: "'init' Initial Forms in Arabic lookup 0 subtable" afii57459
EndChar

StartChar: afii57567
Encoding: 1705 1705 219
Width: 1883
GlyphClass: 2
Flags: W
AnchorPoint: "Anchor-1" 690 -525 basechar 0
AnchorPoint: "Anchor-0" 570 1005 basechar 0
LayerCount: 2
Fore
SplineSet
1679 1035 m 1,0,-1
 1171 879 l 2,1,2
 1110 860 1110 860 1117 827 c 0,3,4
 1122 803 1122 803 1162 748 c 2,5,-1
 1398 419 l 2,6,7
 1475 313 1475 313 1488 250 c 0,8,9
 1541 1 1541 1 1236 1 c 2,10,-1
 477 1 l 2,11,12
 335 1 335 1 230 81 c 0,13,14
 122 164 122 164 92 304 c 2,15,-1
 76 379 l 1,16,-1
 221 379 l 1,17,-1
 229 339 l 2,18,19
 264 178 264 178 429 178 c 2,20,-1
 1209 178 l 2,21,22
 1348 178 1348 178 1331 258 c 0,23,24
 1321 302 1321 302 1266 377 c 2,25,-1
 1018 716 l 2,26,27
 976 774 976 774 964 829 c 0,28,29
 936 962 936 962 1083 1008 c 2,30,-1
 1593 1169 l 1,31,-1
 1679 1035 l 1,0,-1
EndSplineSet
Substitution2: "'fina' Terminal Forms in Arabic lookup 3 subtable" afii62964
Substitution2: "'medi' Medial Forms in Arabic lookup 2 subtable" afii52306
Substitution2: "'init' Initial Forms in Arabic lookup 0 subtable" afii52305
EndChar

StartChar: afii62964
Encoding: 64399 64399 220
Width: 1842
GlyphClass: 2
Flags: W
AnchorPoint: "Anchor-1" 750 -450 basechar 0
AnchorPoint: "Anchor-0" 495 1050 basechar 0
LayerCount: 2
Fore
SplineSet
1679 1035 m 1,0,-1
 1171 879 l 2,1,2
 1109 860 1109 860 1116 828 c 0,3,4
 1121 804 1121 804 1162 748 c 2,5,-1
 1401 421 l 2,6,7
 1515 265 1515 265 1614 213 c 0,8,9
 1681 178 1681 178 1783 178 c 2,10,-1
 1804 178 l 1,11,-1
 1842 0 l 1,12,-1
 1796 0 l 2,13,14
 1722 1 1722 1 1632.5 42 c 128,-1,15
 1543 83 1543 83 1489 142 c 1,16,17
 1456 1 1456 1 1236 1 c 2,18,-1
 477 1 l 2,19,20
 335 1 335 1 230 81 c 0,21,22
 122 164 122 164 92 304 c 2,23,-1
 76 379 l 1,24,-1
 221 379 l 1,25,-1
 229 339 l 2,26,27
 264 178 264 178 429 178 c 2,28,-1
 1209 178 l 2,29,30
 1348 178 1348 178 1331 258 c 0,31,32
 1321 302 1321 302 1266 377 c 2,33,-1
 1018 716 l 2,34,35
 975 776 975 776 963 831 c 0,36,37
 935 961 935 961 1083 1008 c 2,38,-1
 1593 1169 l 1,39,-1
 1679 1035 l 1,0,-1
EndSplineSet
EndChar

StartChar: afii52305
Encoding: 64400 64400 221
Width: 762
GlyphClass: 2
Flags: W
AnchorPoint: "Anchor-1" 210 -525 basechar 0
AnchorPoint: "Anchor-0" 0 1215 basechar 0
LayerCount: 2
Fore
SplineSet
554 1035 m 1,0,-1
 47 879 l 2,1,2
 -14 860 -14 860 -7 827 c 0,3,4
 -2 803 -2 803 37 748 c 2,5,-1
 274 419 l 2,6,7
 350 315 350 315 363 250 c 0,8,9
 416 1 416 1 114 0 c 2,10,-1
 -70 0 l 1,11,-1
 -107 178 l 1,12,-1
 84 178 l 2,13,14
 224 178 224 178 207 258 c 0,15,16
 197 302 197 302 142 377 c 2,17,-1
 -105 716 l 2,18,19
 -148 776 -148 776 -160 829 c 0,20,21
 -188 961 -188 961 -40 1008 c 2,22,-1
 469 1169 l 1,23,-1
 554 1035 l 1,0,-1
EndSplineSet
EndChar

StartChar: afii52306
Encoding: 64401 64401 222
Width: 718
GlyphClass: 2
Flags: W
AnchorPoint: "Anchor-1" 270 -540 basechar 0
AnchorPoint: "Anchor-0" -30 1200 basechar 0
LayerCount: 2
Fore
SplineSet
554 1035 m 1,0,-1
 47 879 l 2,1,2
 -14 860 -14 860 -7 828 c 0,3,4
 -2 802 -2 802 37 748 c 2,5,-1
 276 421 l 2,6,7
 390 265 390 265 489 213 c 0,8,9
 556 178 556 178 658 178 c 2,10,-1
 680 178 l 1,11,-1
 718 0 l 1,12,-1
 672 0 l 2,13,14
 598 1 598 1 508.5 42 c 128,-1,15
 419 83 419 83 365 142 c 1,16,17
 331 1 331 1 114 0 c 2,18,-1
 -70 0 l 1,19,-1
 -107 178 l 1,20,-1
 84 178 l 2,21,22
 224 178 224 178 207 258 c 0,23,24
 197 302 197 302 142 377 c 2,25,-1
 -105 716 l 2,26,27
 -150 778 -150 778 -161 831 c 0,28,29
 -189 961 -189 961 -40 1008 c 2,30,-1
 469 1169 l 1,31,-1
 554 1035 l 1,0,-1
EndSplineSet
EndChar

StartChar: afii57509
Encoding: 1711 1711 223
Width: 1915
GlyphClass: 2
Flags: W
AnchorPoint: "Anchor-1" 765 -495 basechar 0
AnchorPoint: "Anchor-0" 405 1110 basechar 0
LayerCount: 2
Fore
SplineSet
1607 1184 m 1,0,-1
 957 1021 l 1,1,-1
 902 1092 l 1,2,-1
 1556 1257 l 1,3,-1
 1607 1184 l 1,0,-1
1716 1027 m 1,4,-1
 1160 889 l 2,5,6
 1098 874 1098 874 1105 838 c 0,7,8
 1111 811 1111 811 1151 757 c 2,9,-1
 1398 419 l 2,10,11
 1475 315 1475 315 1488 250 c 0,12,13
 1541 1 1541 1 1236 1 c 2,14,-1
 477 1 l 2,15,16
 335 1 335 1 230 81 c 0,17,18
 122 164 122 164 92 304 c 2,19,-1
 76 379 l 1,20,-1
 221 379 l 1,21,-1
 229 339 l 2,22,23
 264 178 264 178 429 178 c 2,24,-1
 1209 178 l 2,25,26
 1348 178 1348 178 1331 258 c 0,27,28
 1321 302 1321 302 1266 377 c 2,29,-1
 1018 716 l 2,30,31
 983 764 983 764 972 817 c 0,32,33
 941 963 941 963 1085 1000 c 2,34,-1
 1636 1141 l 1,35,-1
 1716 1027 l 1,4,-1
EndSplineSet
Substitution2: "'fina' Terminal Forms in Arabic lookup 3 subtable" afii62967
Substitution2: "'medi' Medial Forms in Arabic lookup 2 subtable" afii62966
Substitution2: "'init' Initial Forms in Arabic lookup 0 subtable" afii62965
EndChar

StartChar: afii62967
Encoding: 64403 64403 224
Width: 1842
GlyphClass: 2
Flags: W
AnchorPoint: "Anchor-1" 810 -510 basechar 0
AnchorPoint: "Anchor-0" 510 1140 basechar 0
LayerCount: 2
Fore
SplineSet
1607 1184 m 1,0,-1
 957 1021 l 1,1,-1
 902 1092 l 1,2,-1
 1556 1257 l 1,3,-1
 1607 1184 l 1,0,-1
1716 1027 m 1,4,-1
 1160 889 l 2,5,6
 1097 873 1097 873 1104 839 c 0,7,8
 1110 811 1110 811 1151 757 c 2,9,-1
 1401 421 l 2,10,11
 1517 266 1517 266 1614 214 c 0,12,13
 1682 178 1682 178 1783 178 c 2,14,-1
 1804 178 l 1,15,-1
 1842 0 l 1,16,-1
 1796 0 l 2,17,18
 1722 1 1722 1 1632.5 42 c 128,-1,19
 1543 83 1543 83 1489 142 c 1,20,21
 1456 1 1456 1 1236 1 c 2,22,-1
 477 1 l 2,23,24
 335 1 335 1 230 81 c 0,25,26
 122 164 122 164 92 304 c 2,27,-1
 76 379 l 1,28,-1
 221 379 l 1,29,-1
 229 339 l 2,30,31
 264 178 264 178 429 178 c 2,32,-1
 1209 178 l 2,33,34
 1348 178 1348 178 1331 258 c 0,35,36
 1321 302 1321 302 1266 377 c 2,37,-1
 1018 716 l 2,38,39
 983 764 983 764 972 817 c 0,40,41
 941 963 941 963 1085 1000 c 2,42,-1
 1636 1141 l 1,43,-1
 1716 1027 l 1,4,-1
EndSplineSet
EndChar

StartChar: afii62965
Encoding: 64404 64404 225
Width: 805
GlyphClass: 2
Flags: W
AnchorPoint: "Anchor-1" 270 -435 basechar 0
AnchorPoint: "Anchor-0" -15 1320 basechar 0
LayerCount: 2
Fore
SplineSet
483 1184 m 1,0,-1
 -166 1021 l 1,1,-1
 -221 1092 l 1,2,-1
 432 1257 l 1,3,-1
 483 1184 l 1,0,-1
592 1027 m 1,4,-1
 36 889 l 2,5,6
 -26 873 -26 873 -19 838 c 0,7,8
 -13 813 -13 813 27 757 c 2,9,-1
 274 419 l 2,10,11
 349 317 349 317 363 250 c 0,12,13
 416 1 416 1 114 0 c 2,14,-1
 -70 0 l 1,15,-1
 -107 178 l 1,16,-1
 84 178 l 2,17,18
 224 178 224 178 207 258 c 0,19,20
 197 302 197 302 142 377 c 2,21,-1
 -105 716 l 2,22,23
 -141 766 -141 766 -152 817 c 0,24,25
 -183 963 -183 963 -38 1000 c 2,26,-1
 511 1141 l 1,27,-1
 592 1027 l 1,4,-1
EndSplineSet
EndChar

StartChar: afii62966
Encoding: 64405 64405 226
Width: 716
GlyphClass: 2
Flags: W
AnchorPoint: "Anchor-1" 300 -540 basechar 0
AnchorPoint: "Anchor-0" 15 1305 basechar 0
LayerCount: 2
Fore
SplineSet
483 1184 m 1,0,-1
 -166 1021 l 1,1,-1
 -221 1092 l 1,2,-1
 432 1257 l 1,3,-1
 483 1184 l 1,0,-1
592 1027 m 1,4,-1
 36 889 l 2,5,6
 -27 873 -27 873 -20 838 c 0,7,8
 -15 814 -15 814 27 757 c 2,9,-1
 276 421 l 2,10,11
 391 266 391 266 490 214 c 0,12,13
 559 178 559 178 658 178 c 2,14,-1
 678 178 l 1,15,-1
 716 0 l 1,16,-1
 672 0 l 2,17,18
 599 0 599 0 509 41.5 c 128,-1,19
 419 83 419 83 365 142 c 1,20,21
 331 1 331 1 114 0 c 2,22,-1
 -70 0 l 1,23,-1
 -107 178 l 1,24,-1
 84 178 l 2,25,26
 224 178 224 178 207 258 c 0,27,28
 197 302 197 302 142 377 c 2,29,-1
 -105 716 l 2,30,31
 -141 766 -141 766 -152 817 c 0,32,33
 -183 963 -183 963 -38 1000 c 2,34,-1
 511 1141 l 1,35,-1
 592 1027 l 1,4,-1
EndSplineSet
EndChar

StartChar: afii57555
Encoding: 1740 1740 227
Width: 1461
GlyphClass: 2
Flags: W
AnchorPoint: "Anchor-1" 720 -765 basechar 0
AnchorPoint: "Anchor-0" 390 840 basechar 0
LayerCount: 2
Fore
SplineSet
1275 666 m 1,0,-1
 1237 538 l 1,1,2
 1147 580 1147 580 1073 580 c 0,3,4
 934 580 934 580 833 421 c 0,5,6
 816 394 816 394 821 369 c 0,7,8
 830 325 830 325 885 321 c 0,9,10
 961 316 961 316 1164 302 c 0,11,12
 1327 290 1327 290 1361 131 c 0,13,14
 1389 -3 1389 -3 1224 -157 c 0,15,16
 1035 -332 1035 -332 747 -332 c 0,17,18
 517 -332 517 -332 354 -219 c 0,19,20
 177 -96 177 -96 130 127 c 0,21,22
 97 279 97 279 119 401 c 1,23,-1
 251 360 l 1,24,25
 242 247 242 247 257 177 c 0,26,27
 329 -163 329 -163 723 -163 c 0,28,29
 863 -163 863 -163 992 -113 c 0,30,31
 1155 -50 1155 -50 1212 70 c 0,32,33
 1224 96 1224 96 1220 115 c 0,34,35
 1214 144 1214 144 1167 144 c 0,36,37
 945 146 945 146 882 159 c 0,38,39
 703 197 703 197 673 337 c 0,40,41
 646 463 646 463 775 601 c 0,42,43
 899 735 899 735 1024 735 c 0,44,45
 1153 735 1153 735 1275 666 c 1,0,-1
EndSplineSet
Substitution2: "'fina' Terminal Forms in Arabic lookup 3 subtable" afii52364
Substitution2: "'medi' Medial Forms in Arabic lookup 2 subtable" afii62832
Substitution2: "'init' Initial Forms in Arabic lookup 0 subtable" uniFBFE
EndChar

StartChar: afii52364
Encoding: 64509 64509 228
Width: 1447
GlyphClass: 2
Flags: W
AnchorPoint: "Anchor-1" 705 -975 basechar 0
AnchorPoint: "Anchor-0" 420 645 basechar 0
LayerCount: 2
Fore
SplineSet
1447 0 m 1,0,-1
 1349 0 l 1,1,2
 1418 -69 1418 -69 1433 -138 c 0,3,4
 1460 -267 1460 -267 1284 -394 c 0,5,6
 1089 -535 1089 -535 792 -535 c 0,7,8
 527 -535 527 -535 355 -378 c 0,9,10
 209 -245 209 -245 166 -43 c 0,11,12
 130 124 130 124 143 218 c 1,13,-1
 282 179 l 1,14,15
 281 73 281 73 295 7 c 0,16,17
 323 -123 323 -123 403 -215 c 0,18,19
 533 -363 533 -363 765 -363 c 0,20,21
 906 -363 906 -363 1040 -320 c 0,22,23
 1194 -270 1194 -270 1260 -183 c 0,24,25
 1279 -160 1279 -160 1274 -138 c 0,26,27
 1266 -101 1266 -101 1196 -62 c 0,28,29
 1087 -2 1087 -2 760 39 c 1,30,-1
 772 178 l 1,31,-1
 1409 178 l 1,32,-1
 1447 0 l 1,0,-1
EndSplineSet
EndChar

StartChar: afii62882
Encoding: 64606 64606 229
Width: 0
GlyphClass: 4
Flags: W
AnchorPoint: "Anchor-2" 0 0 mark 0
AnchorPoint: "Anchor-0" 0 0 mark 0
LayerCount: 2
Fore
SplineSet
230 174 m 0,0,1
 241 122 241 122 221 86 c 0,2,3
 201 47 201 47 150 47 c 0,4,5
 62 47 62 47 -2 117 c 1,6,7
 -29 -1 -29 -1 -138 -1 c 0,8,9
 -186 -1 -186 -1 -224 35 c 0,10,11
 -259 68 -259 68 -269 116 c 0,12,13
 -283 180 -283 180 -263 274 c 1,14,-1
 -199 245 l 1,15,16
 -209 173 -209 173 -205 154 c 0,17,18
 -192 92 -192 92 -141 92 c 0,19,20
 -41 92 -41 92 -82 260 c 1,21,-1
 -12 303 l 1,22,23
 26 137 26 137 109 137 c 0,24,25
 163 137 163 137 151 194 c 0,26,27
 144 227 144 227 85 294 c 1,28,-1
 136 340 l 1,29,30
 211 259 211 259 230 174 c 0,0,1
176 605 m 0,31,32
 204 470 204 470 51 435 c 1,33,-1
 -286 345 l 1,34,-1
 -322 420 l 1,35,36
 -246 443 -246 443 -261 514 c 0,37,38
 -266 538 -266 538 -274 545 c 0,39,40
 -284 556 -284 556 -297 556 c 0,41,42
 -318 556 -318 556 -347 533 c 1,43,-1
 -396 589 l 1,44,45
 -362 654 -362 654 -304 653 c 0,46,47
 -220 651 -220 651 -202 565 c 0,48,49
 -188 500 -188 500 -216 447 c 1,50,51
 -168 461 -168 461 -85 487 c 1,52,53
 -141 539 -141 539 -153 597 c 0,54,55
 -168 664 -168 664 -119 713 c 0,56,57
 -77 756 -77 756 -26 756 c 0,58,59
 39 756 39 756 102 714 c 1,60,61
 162 669 162 669 176 605 c 0,31,32
92 593 m 0,62,63
 86 625 86 625 58 646.5 c 128,-1,64
 30 668 30 668 -1 668 c 256,65,66
 -32 668 -32 668 -51.5 646 c 128,-1,67
 -71 624 -71 624 -65 593 c 0,68,69
 -58 562 -58 562 -29.5 540 c 128,-1,70
 -1 518 -1 518 29 518 c 0,71,72
 61 518 61 518 80 539.5 c 128,-1,73
 99 561 99 561 92 593 c 0,62,63
EndSplineSet
Ligature2: "'ccmp' Glyph Composition/Decomposition in Arabic lookup 4 subtable" afii57457 afii57452
EndChar

StartChar: afii62883
Encoding: 64607 64607 230
Width: 0
GlyphClass: 4
Flags: W
AnchorPoint: "Anchor-2" 0 0 mark 0
AnchorPoint: "Anchor-0" 0 0 mark 0
LayerCount: 2
Fore
SplineSet
98 574 m 0,0,1
 110 522 110 522 90 486 c 0,2,3
 69 447 69 447 18 447 c 0,4,5
 -69 447 -69 447 -133 517 c 1,6,7
 -160 399 -160 399 -269 399 c 0,8,9
 -317 399 -317 399 -355 435 c 0,10,11
 -390 468 -390 468 -400 516 c 0,12,13
 -414 580 -414 580 -394 674 c 1,14,-1
 -330 645 l 1,15,16
 -340 573 -340 573 -336 554 c 0,17,18
 -323 492 -323 492 -272 492 c 0,19,20
 -172 492 -172 492 -213 660 c 1,21,-1
 -143 703 l 1,22,23
 -104 537 -104 537 -21 537 c 0,24,25
 32 537 32 537 20 594 c 0,26,27
 13 627 13 627 -45 694 c 1,28,-1
 5 740 l 1,29,30
 80 659 80 659 98 574 c 0,0,1
180 294 m 1,31,-1
 -281 164 l 1,32,-1
 -322 241 l 1,33,-1
 137 379 l 1,34,-1
 180 294 l 1,31,-1
216 124 m 1,35,-1
 -245 -6 l 1,36,-1
 -286 71 l 1,37,-1
 173 209 l 1,38,-1
 216 124 l 1,35,-1
EndSplineSet
Ligature2: "'ccmp' Glyph Composition/Decomposition in Arabic lookup 4 subtable" afii57457 afii57453
EndChar

StartChar: afii62884
Encoding: 64608 64608 231
Width: 0
GlyphClass: 4
Flags: W
AnchorPoint: "Anchor-2" 0 0 mark 0
AnchorPoint: "Anchor-0" 0 0 mark 0
LayerCount: 2
Fore
SplineSet
230 174 m 0,0,1
 241 122 241 122 221 86 c 0,2,3
 201 47 201 47 150 47 c 0,4,5
 62 47 62 47 -2 117 c 1,6,7
 -29 -1 -29 -1 -138 -1 c 0,8,9
 -186 -1 -186 -1 -224 35 c 0,10,11
 -259 68 -259 68 -269 116 c 0,12,13
 -283 180 -283 180 -263 274 c 1,14,-1
 -199 245 l 1,15,16
 -209 173 -209 173 -205 154 c 0,17,18
 -192 92 -192 92 -141 92 c 0,19,20
 -41 92 -41 92 -82 260 c 1,21,-1
 -12 303 l 1,22,23
 26 137 26 137 109 137 c 0,24,25
 163 137 163 137 151 194 c 0,26,27
 144 227 144 227 85 294 c 1,28,-1
 136 340 l 1,29,30
 211 259 211 259 230 174 c 0,0,1
155 472 m 1,31,-1
 -306 342 l 1,32,-1
 -347 419 l 1,33,-1
 112 557 l 1,34,-1
 155 472 l 1,31,-1
EndSplineSet
Ligature2: "'ccmp' Glyph Composition/Decomposition in Arabic lookup 4 subtable" afii57457 afii57454
EndChar

StartChar: afii62885
Encoding: 64609 64609 232
Width: 0
GlyphClass: 4
Flags: W
AnchorPoint: "Anchor-2" 0 0 mark 0
AnchorPoint: "Anchor-0" 0 0 mark 0
LayerCount: 2
Fore
SplineSet
204 178 m 0,0,1
 215 126 215 126 195 90 c 0,2,3
 175 51 175 51 124 51 c 0,4,5
 36 51 36 51 -28 121 c 1,6,7
 -55 3 -55 3 -164 3 c 0,8,9
 -212 3 -212 3 -250 39 c 0,10,11
 -285 72 -285 72 -295 120 c 0,12,13
 -309 184 -309 184 -289 278 c 1,14,-1
 -224 249 l 1,15,16
 -235 177 -235 177 -231 158 c 0,17,18
 -218 96 -218 96 -167 96 c 0,19,20
 -67 96 -67 96 -108 264 c 1,21,-1
 -38 307 l 1,22,23
 1 141 1 141 84 141 c 0,24,25
 138 141 138 141 125 198 c 0,26,27
 118 231 118 231 59 298 c 1,28,-1
 110 344 l 1,29,30
 186 263 186 263 204 178 c 0,0,1
129 628 m 0,31,32
 158 493 158 493 -1 453 c 2,33,-1
 -340 368 l 1,34,-1
 -376 443 l 1,35,36
 -230 475 -230 475 -144 512 c 1,37,38
 -195 562 -195 562 -207 620 c 0,39,40
 -222 687 -222 687 -173 736 c 0,41,42
 -131 779 -131 779 -80 779 c 0,43,44
 -14 779 -14 779 48 737 c 0,45,46
 115 692 115 692 129 628 c 0,31,32
39 616 m 0,47,48
 32 648 32 648 4.5 669.5 c 128,-1,49
 -23 691 -23 691 -55 691 c 0,50,51
 -86 691 -86 691 -105.5 669 c 128,-1,52
 -125 647 -125 647 -118 616 c 0,53,54
 -112 585 -112 585 -83 563 c 128,-1,55
 -54 541 -54 541 -23 541 c 256,56,57
 8 541 8 541 26.5 562.5 c 128,-1,58
 45 584 45 584 39 616 c 0,47,48
EndSplineSet
Ligature2: "'ccmp' Glyph Composition/Decomposition in Arabic lookup 4 subtable" afii57457 afii57455
EndChar

StartChar: afii62886
Encoding: 64610 64610 233
Width: 0
GlyphClass: 4
Flags: W
AnchorPoint: "Anchor-2" 0 0 mark 0
AnchorPoint: "Anchor-0" 0 0 mark 0
LayerCount: 2
Fore
SplineSet
133 414 m 0,0,1
 144 362 144 362 124 326 c 0,2,3
 103 287 103 287 52 287 c 0,4,5
 -35 287 -35 287 -99 357 c 1,6,7
 -126 239 -126 239 -235 239 c 0,8,9
 -283 239 -283 239 -321 275 c 0,10,11
 -356 308 -356 308 -366 356 c 0,12,13
 -380 420 -380 420 -360 514 c 1,14,-1
 -296 485 l 1,15,16
 -306 413 -306 413 -302 394 c 0,17,18
 -289 332 -289 332 -238 332 c 0,19,20
 -138 332 -138 332 -179 500 c 1,21,-1
 -109 543 l 1,22,23
 -70 377 -70 377 12 377 c 0,24,25
 66 377 66 377 54 434 c 0,26,27
 47 467 47 467 -11 534 c 1,28,-1
 39 580 l 1,29,30
 114 499 114 499 133 414 c 0,0,1
214 134 m 1,31,-1
 -247 4 l 1,32,-1
 -288 81 l 1,33,-1
 171 219 l 1,34,-1
 214 134 l 1,31,-1
EndSplineSet
Ligature2: "'ccmp' Glyph Composition/Decomposition in Arabic lookup 4 subtable" afii57457 afii57456
EndChar

StartChar: afii62945
Encoding: 65554 -1 234
Width: 1647
GlyphClass: 3
Flags: W
LayerCount: 2
Fore
SplineSet
1505 361 m 2,0,1
 1523 277 1523 277 1524 202 c 0,2,3
 1526 1 1526 1 1316 1 c 0,4,5
 1133 1 1133 1 1027 194 c 1,6,7
 1017 -6 1017 -6 832 -6 c 0,8,9
 644 -6 644 -6 534 197 c 1,10,11
 440 178 440 178 381 178 c 0,12,13
 261 178 261 178 167 220 c 0,14,15
 46 274 46 274 23 382 c 0,16,17
 -9 540 -9 540 326 671 c 1,18,-1
 282 783 l 1,19,-1
 403 823 l 1,20,-1
 573 385 l 2,21,22
 654 177 654 177 788 177 c 0,23,24
 923 177 923 177 880 377 c 2,25,-1
 768 906 l 1,26,-1
 936 906 l 1,27,-1
 1026 483 l 2,28,29
 1050 368 1050 368 1101 288 c 0,30,31
 1172 177 1172 177 1271 177 c 0,32,33
 1345 177 1345 177 1358 224 c 0,34,35
 1367 254 1367 254 1348 340 c 2,36,-1
 1228 906 l 1,37,-1
 1389 906 l 1,38,-1
 1505 361 l 2,0,1
458 339 m 1,39,-1
 366 561 l 1,40,41
 133 487 133 487 151 400 c 0,42,43
 154 386 154 386 163 374 c 0,44,45
 195 328 195 328 327 322 c 0,46,47
 398 319 398 319 458 339 c 1,39,-1
EndSplineSet
EndChar

StartChar: afii64184
Encoding: 65010 65010 235
Width: 1649
GlyphClass: 3
Flags: W
AnchorPoint: "Anchor-3" 1395 -345 baselig 0
AnchorPoint: "Anchor-2" 1275 1020 baselig 0
AnchorPoint: "Anchor-3" 1035 -375 baselig 1
AnchorPoint: "Anchor-2" 810 975 baselig 1
AnchorPoint: "Anchor-3" 585 -420 baselig 2
AnchorPoint: "Anchor-2" 180 855 baselig 2
LayerCount: 2
Fore
SplineSet
750 1521 m 1,0,-1
 776 1292 l 1,1,-1
 741 1292 l 1,2,-1
 669 1521 l 1,3,-1
 750 1521 l 1,0,-1
1027 1128 m 0,4,5
 1037 1080 1037 1080 1016.5 1045.5 c 128,-1,6
 996 1011 996 1011 949 1011 c 0,7,8
 860 1011 860 1011 802 1087 c 1,9,10
 770 1000 770 1000 680 1000 c 0,11,12
 636 1000 636 1000 602 1035 c 0,13,14
 570 1068 570 1068 561 1114 c 0,15,16
 550 1166 550 1166 567 1250 c 1,17,-1
 628 1223 l 1,18,19
 617 1161 617 1161 622 1134 c 0,20,21
 633 1084 633 1084 679 1084 c 0,22,23
 770 1084 770 1084 732 1246 c 1,24,-1
 799 1246 l 1,25,26
 833 1093 833 1093 918 1093 c 0,27,28
 962 1093 962 1093 951 1146 c 0,29,30
 945 1174 945 1174 893 1238 c 1,31,-1
 941 1280 l 1,32,33
 1010 1205 1010 1205 1027 1128 c 0,4,5
1501 361 m 2,34,35
 1519 277 1519 277 1520 202 c 0,36,37
 1522 1 1522 1 1312 1 c 0,38,39
 1129 1 1129 1 1023 194 c 1,40,41
 1013 -6 1013 -6 828 -6 c 0,42,43
 640 -6 640 -6 530 197 c 1,44,45
 436 178 436 178 377 178 c 0,46,47
 257 178 257 178 163 220 c 0,48,49
 42 274 42 274 19 382 c 0,50,51
 -13 540 -13 540 322 671 c 1,52,-1
 278 783 l 1,53,-1
 399 823 l 1,54,-1
 569 385 l 2,55,56
 650 177 650 177 784 177 c 0,57,58
 919 177 919 177 876 377 c 2,59,-1
 764 906 l 1,60,-1
 932 906 l 1,61,-1
 1022 483 l 2,62,63
 1046 368 1046 368 1097 288 c 0,64,65
 1168 177 1168 177 1267 177 c 0,66,67
 1341 177 1341 177 1354 224 c 0,68,69
 1363 254 1363 254 1344 340 c 2,70,-1
 1224 906 l 1,71,-1
 1385 906 l 1,72,-1
 1501 361 l 2,34,35
454 339 m 1,73,-1
 362 561 l 1,74,75
 129 487 129 487 147 400 c 0,76,77
 150 386 150 386 159 374 c 0,78,79
 191 328 191 328 323 322 c 0,80,81
 394 319 394 319 454 339 c 1,73,-1
EndSplineSet
Ligature2: "'rlig' Required Ligatures in Arabic lookup 6 subtable" afii62817 afii62818 uniFC63 afii62828
Ligature2: "'rlig' Required Ligatures in Arabic lookup 6 subtable" afii62817 afii62818 afii57457 uni0670 afii62828
EndChar

StartChar: afii57415.001
Encoding: 1575 1575 249
Width: 374
GlyphClass: 2
Flags: W
AnchorPoint: "Anchor-1" 225 -390 basechar 0
AnchorPoint: "Anchor-0" -45 1290 basechar 0
LayerCount: 2
Fore
SplineSet
324 1 m 1,0,-1
 156 1 l 1,1,-1
 -89 1159 l 1,2,-1
 78 1159 l 1,3,-1
 324 1 l 1,0,-1
EndSplineSet
Substitution2: "'fina' Terminal Forms in Arabic lookup 3 subtable" afii62760
EndChar

StartChar: afii62760.001
Encoding: 65555 -1 250
Width: 571
GlyphClass: 2
Flags: W
LayerCount: 2
Fore
SplineSet
571 0 m 1,0,-1
 458 0 l 2,1,2
 156 1 156 1 79 363 c 2,3,-1
 -89 1160 l 1,4,-1
 78 1160 l 1,5,-1
 244 377 l 2,6,7
 266 276 266 276 304 232 c 0,8,9
 352 178 352 178 446 178 c 2,10,-1
 533 178 l 1,11,-1
 571 0 l 1,0,-1
EndSplineSet
EndChar

StartChar: afii57421
Encoding: 1581 1581 269
Width: 1247
GlyphClass: 2
Flags: W
AnchorPoint: "Anchor-1" 675 -1125 basechar 0
AnchorPoint: "Anchor-0" 450 930 basechar 0
LayerCount: 2
Fore
SplineSet
1407 -614 m 1,0,1
 1169 -736 1169 -736 916 -736 c 0,2,3
 775 -736 775 -736 655.5 -701 c 128,-1,4
 536 -666 536 -666 444 -599 c 128,-1,5
 352 -532 352 -532 290 -434 c 128,-1,6
 228 -336 228 -336 201 -209 c 0,7,8
 149 35 149 35 378 251 c 0,9,10
 498 363 498 363 746 497 c 1,11,12
 571 508 571 508 469.5 513.5 c 128,-1,13
 368 519 368 519 339 519 c 0,14,15
 240 519 240 519 167 457 c 1,16,-1
 86 579 l 1,17,18
 177 663 177 663 309 663 c 2,19,-1
 331 663 l 1,20,-1
 1098 626 l 1,21,-1
 1131 474 l 1,22,23
 953 474 953 474 680 303 c 0,24,25
 287 55 287 55 349 -237 c 0,26,27
 364 -310 364 -310 412 -372 c 128,-1,28
 460 -434 460 -434 531.5 -479.5 c 128,-1,29
 603 -525 603 -525 694 -550.5 c 128,-1,30
 785 -576 785 -576 886 -576 c 0,31,32
 1115 -576 1115 -576 1313 -482 c 1,33,-1
 1407 -614 l 1,0,1
EndSplineSet
Substitution2: "'fina' Terminal Forms in Arabic lookup 3 subtable" afii62776
Substitution2: "'medi' Medial Forms in Arabic lookup 2 subtable" afii62775
Substitution2: "'init' Initial Forms in Arabic lookup 0 subtable" afii62774
EndChar

StartChar: afii62776
Encoding: 65186 65186 270
Width: 1327
GlyphClass: 2
Flags: W
AnchorPoint: "Anchor-1" 690 -1155 basechar 0
AnchorPoint: "Anchor-0" 465 960 basechar 0
LayerCount: 2
Fore
SplineSet
1327 0 m 1,0,-1
 1184 0 l 2,1,2
 1009 1 1009 1 904 77 c 0,3,4
 825 132 825 132 696 310 c 1,5,6
 545 231 545 231 446 109 c 0,7,8
 311 -59 311 -59 349 -237 c 0,9,10
 364 -310 364 -310 412 -372 c 128,-1,11
 460 -434 460 -434 531.5 -479.5 c 128,-1,12
 603 -525 603 -525 694 -550.5 c 128,-1,13
 785 -576 785 -576 886 -576 c 0,14,15
 1115 -576 1115 -576 1313 -482 c 1,16,-1
 1407 -614 l 1,17,18
 1169 -736 1169 -736 916 -736 c 0,19,20
 775 -736 775 -736 655.5 -701 c 128,-1,21
 536 -666 536 -666 444 -599 c 128,-1,22
 352 -532 352 -532 290 -434 c 128,-1,23
 228 -336 228 -336 201 -209 c 0,24,25
 149 35 149 35 378 251 c 0,26,27
 498 363 498 363 746 497 c 1,28,29
 571 508 571 508 469.5 513.5 c 128,-1,30
 368 519 368 519 339 519 c 0,31,32
 240 519 240 519 167 457 c 1,33,-1
 86 579 l 1,34,35
 177 663 177 663 309 663 c 2,36,-1
 331 663 l 1,37,-1
 1098 626 l 1,38,-1
 1131 474 l 1,39,40
 1058 474 1058 474 948 438 c 0,41,42
 835 400 835 400 788 359 c 1,43,44
 828 313 828 313 863 281 c 128,-1,45
 898 249 898 249 927 232 c 0,46,47
 1018 178 1018 178 1159 178 c 2,48,-1
 1289 178 l 1,49,-1
 1327 0 l 1,0,-1
EndSplineSet
EndChar

StartChar: afii62774
Encoding: 65187 65187 271
Width: 949
GlyphClass: 2
Flags: W
AnchorPoint: "Anchor-1" 315 -570 basechar 0
AnchorPoint: "Anchor-0" 105 915 basechar 0
LayerCount: 2
Fore
SplineSet
882 117 m 1,0,-1
 824 0 l 1,1,-1
 -70 0 l 1,2,-1
 -107 178 l 1,3,-1
 602 178 l 1,4,-1
 258 433 l 1,5,6
 179 503 179 503 95 503 c 2,7,-1
 -18 503 l 1,8,-1
 -51 655 l 1,9,-1
 96 655 l 2,10,11
 192 655 192 655 292 577 c 2,12,-1
 882 117 l 1,0,-1
EndSplineSet
EndChar

StartChar: afii62775
Encoding: 65188 65188 272
Width: 1230
GlyphClass: 2
Flags: W
AnchorPoint: "Anchor-1" 465 -510 basechar 0
AnchorPoint: "Anchor-0" 330 945 basechar 0
LayerCount: 2
Fore
SplineSet
1230 0 m 1,0,-1
 1116 0 l 2,1,2
 887 1 887 1 671 299 c 1,3,4
 493 114 493 114 389 55 c 0,5,6
 290 1 290 1 150 0 c 2,7,-1
 -70 0 l 1,8,-1
 -107 178 l 1,9,-1
 23 178 l 2,10,11
 178 178 178 178 275 214 c 0,12,13
 314 228 314 228 362 258.5 c 128,-1,14
 410 289 410 289 467 335 c 0,15,16
 512 371 512 371 555 408.5 c 128,-1,17
 598 446 598 446 642 484 c 1,18,19
 460 492 460 492 346.5 496 c 128,-1,20
 233 500 233 500 187 500 c 0,21,22
 96 500 96 500 33 442 c 1,23,-1
 -49 559 l 1,24,25
 40 649 40 649 165 649 c 2,26,-1
 181 649 l 1,27,-1
 978 613 l 1,28,-1
 1009 468 l 1,29,30
 851 468 851 468 743 365 c 1,31,32
 835 273 835 273 893 239 c 0,33,34
 992 178 992 178 1113 178 c 2,35,-1
 1192 178 l 1,36,-1
 1230 0 l 1,0,-1
EndSplineSet
EndChar

StartChar: afii57423
Encoding: 1583 1583 277
Width: 1009
GlyphClass: 2
Flags: W
AnchorPoint: "Anchor-1" 540 -480 basechar 0
AnchorPoint: "Anchor-0" 315 1035 basechar 0
LayerCount: 2
Fore
SplineSet
922 245 m 0,0,1
 949 121 949 121 874 57 c 0,2,3
 808 1 808 1 679 1 c 2,4,-1
 419 1 l 2,5,6
 228 1 228 1 92 161 c 1,7,-1
 177 268 l 1,8,9
 239 207 239 207 275 191 c 0,10,11
 305 178 305 178 366 178 c 2,12,-1
 652 178 l 2,13,14
 777 178 777 178 762 245 c 0,15,16
 756 274 756 274 684 341 c 2,17,-1
 263 733 l 1,18,-1
 356 845 l 1,19,-1
 775 448 l 2,20,21
 905 325 905 325 922 245 c 0,0,1
EndSplineSet
Substitution2: "'fina' Terminal Forms in Arabic lookup 3 subtable" afii62780
PairPos2: "'kern' Horizontal Kerning in Arabic lookup 0 subtable" uni06B4.init dx=0 dy=0 dh=0 dv=0 dx=0 dy=0 dh=-200 dv=0
PairPos2: "'kern' Horizontal Kerning in Arabic lookup 0 subtable" uni06B4 dx=0 dy=0 dh=0 dv=0 dx=0 dy=0 dh=-200 dv=0
PairPos2: "'kern' Horizontal Kerning in Arabic lookup 0 subtable" uniFB98 dx=0 dy=0 dh=0 dv=0 dx=0 dy=0 dh=-200 dv=0
PairPos2: "'kern' Horizontal Kerning in Arabic lookup 0 subtable" uni06B3 dx=0 dy=0 dh=0 dv=0 dx=0 dy=0 dh=-200 dv=0
PairPos2: "'kern' Horizontal Kerning in Arabic lookup 0 subtable" uni06B2.init dx=0 dy=0 dh=0 dv=0 dx=0 dy=0 dh=-200 dv=0
PairPos2: "'kern' Horizontal Kerning in Arabic lookup 0 subtable" uniFB9C dx=0 dy=0 dh=0 dv=0 dx=0 dy=0 dh=-200 dv=0
PairPos2: "'kern' Horizontal Kerning in Arabic lookup 0 subtable" uni06B1 dx=0 dy=0 dh=0 dv=0 dx=0 dy=0 dh=-200 dv=0
PairPos2: "'kern' Horizontal Kerning in Arabic lookup 0 subtable" uni06B0.init dx=0 dy=0 dh=0 dv=0 dx=0 dy=0 dh=-200 dv=0
PairPos2: "'kern' Horizontal Kerning in Arabic lookup 0 subtable" uni06B0 dx=0 dy=0 dh=0 dv=0 dx=0 dy=0 dh=-200 dv=0
PairPos2: "'kern' Horizontal Kerning in Arabic lookup 0 subtable" uni06AE.init dx=0 dy=0 dh=0 dv=0 dx=0 dy=0 dh=-200 dv=0
PairPos2: "'kern' Horizontal Kerning in Arabic lookup 0 subtable" uniFBD5 dx=0 dy=0 dh=0 dv=0 dx=0 dy=0 dh=-200 dv=0
PairPos2: "'kern' Horizontal Kerning in Arabic lookup 0 subtable" uni06AB.init dx=0 dy=0 dh=0 dv=0 dx=0 dy=0 dh=-200 dv=0
PairPos2: "'kern' Horizontal Kerning in Arabic lookup 0 subtable" uni06AB.init dx=0 dy=0 dh=0 dv=0 dx=0 dy=0 dh=-200 dv=0
PairPos2: "'kern' Horizontal Kerning in Arabic lookup 0 subtable" uni06AB.001 dx=0 dy=0 dh=0 dv=0 dx=0 dy=0 dh=-200 dv=0
PairPos2: "'kern' Horizontal Kerning in Arabic lookup 0 subtable" afii57410 dx=0 dy=0 dh=0 dv=0 dx=0 dy=0 dh=-200 dv=0
PairPos2: "'kern' Horizontal Kerning in Arabic lookup 0 subtable" afii62965 dx=0 dy=0 dh=0 dv=0 dx=0 dy=0 dh=-200 dv=0
PairPos2: "'kern' Horizontal Kerning in Arabic lookup 0 subtable" afii57509 dx=0 dy=0 dh=0 dv=0 dx=0 dy=0 dh=-200 dv=0
PairPos2: "'kern' Horizontal Kerning in Arabic lookup 0 subtable" afii52305 dx=0 dy=0 dh=0 dv=0 dx=0 dy=0 dh=-200 dv=0
PairPos2: "'kern' Horizontal Kerning in Arabic lookup 0 subtable" afii57567 dx=0 dy=0 dh=0 dv=0 dx=0 dy=0 dh=-200 dv=0
EndChar

StartChar: afii62780
Encoding: 65194 65194 278
Width: 1312
GlyphClass: 2
Flags: W
AnchorPoint: "Anchor-1" 465 -480 basechar 0
AnchorPoint: "Anchor-0" 375 990 basechar 0
LayerCount: 2
Fore
SplineSet
1312 0 m 1,0,-1
 1284 0 l 2,1,2
 1098 1 1098 1 962 138 c 1,3,4
 942 1 942 1 728 1 c 2,5,-1
 430 1 l 2,6,7
 336 1 336 1 248 41 c 0,8,9
 148 85 148 85 94 163 c 1,10,-1
 170 267 l 1,11,12
 267 178 267 178 349 178 c 2,13,-1
 695 178 l 2,14,15
 820 178 820 178 804 250 c 0,16,17
 798 278 798 278 764 325 c 2,18,-1
 442 768 l 1,19,-1
 558 854 l 1,20,-1
 883 404 l 2,21,22
 969 284 969 284 1046 235 c 0,23,24
 1134 178 1134 178 1258 178 c 2,25,-1
 1274 178 l 1,26,-1
 1312 0 l 1,0,-1
EndSplineSet
PairPos2: "'kern' Horizontal Kerning in Arabic lookup 0 subtable" uni06B4.init dx=0 dy=0 dh=0 dv=0 dx=0 dy=0 dh=-200 dv=0
PairPos2: "'kern' Horizontal Kerning in Arabic lookup 0 subtable" uni06B4 dx=0 dy=0 dh=0 dv=0 dx=0 dy=0 dh=-200 dv=0
PairPos2: "'kern' Horizontal Kerning in Arabic lookup 0 subtable" uniFB98 dx=0 dy=0 dh=0 dv=0 dx=0 dy=0 dh=-200 dv=0
PairPos2: "'kern' Horizontal Kerning in Arabic lookup 0 subtable" uni06B3 dx=0 dy=0 dh=0 dv=0 dx=0 dy=0 dh=-200 dv=0
PairPos2: "'kern' Horizontal Kerning in Arabic lookup 0 subtable" uni06B2.init dx=0 dy=0 dh=0 dv=0 dx=0 dy=0 dh=-200 dv=0
PairPos2: "'kern' Horizontal Kerning in Arabic lookup 0 subtable" uniFB9C dx=0 dy=0 dh=0 dv=0 dx=0 dy=0 dh=-200 dv=0
PairPos2: "'kern' Horizontal Kerning in Arabic lookup 0 subtable" uni06B1 dx=0 dy=0 dh=0 dv=0 dx=0 dy=0 dh=-200 dv=0
PairPos2: "'kern' Horizontal Kerning in Arabic lookup 0 subtable" uni06B0.init dx=0 dy=0 dh=0 dv=0 dx=0 dy=0 dh=-200 dv=0
PairPos2: "'kern' Horizontal Kerning in Arabic lookup 0 subtable" uni06B0 dx=0 dy=0 dh=0 dv=0 dx=0 dy=0 dh=-200 dv=0
PairPos2: "'kern' Horizontal Kerning in Arabic lookup 0 subtable" uni06AE.init dx=0 dy=0 dh=0 dv=0 dx=0 dy=0 dh=-200 dv=0
PairPos2: "'kern' Horizontal Kerning in Arabic lookup 0 subtable" uniFBD5 dx=0 dy=0 dh=0 dv=0 dx=0 dy=0 dh=-200 dv=0
PairPos2: "'kern' Horizontal Kerning in Arabic lookup 0 subtable" uni06AB.init dx=0 dy=0 dh=0 dv=0 dx=0 dy=0 dh=-200 dv=0
PairPos2: "'kern' Horizontal Kerning in Arabic lookup 0 subtable" uni06AB.init dx=0 dy=0 dh=0 dv=0 dx=0 dy=0 dh=-200 dv=0
PairPos2: "'kern' Horizontal Kerning in Arabic lookup 0 subtable" uni06AB.001 dx=0 dy=0 dh=0 dv=0 dx=0 dy=0 dh=-200 dv=0
PairPos2: "'kern' Horizontal Kerning in Arabic lookup 0 subtable" afii57410 dx=0 dy=0 dh=0 dv=0 dx=0 dy=0 dh=-200 dv=0
PairPos2: "'kern' Horizontal Kerning in Arabic lookup 0 subtable" afii62965 dx=0 dy=0 dh=0 dv=0 dx=0 dy=0 dh=-200 dv=0
PairPos2: "'kern' Horizontal Kerning in Arabic lookup 0 subtable" afii57509 dx=0 dy=0 dh=0 dv=0 dx=0 dy=0 dh=-200 dv=0
PairPos2: "'kern' Horizontal Kerning in Arabic lookup 0 subtable" afii52305 dx=0 dy=0 dh=0 dv=0 dx=0 dy=0 dh=-200 dv=0
PairPos2: "'kern' Horizontal Kerning in Arabic lookup 0 subtable" afii57567 dx=0 dy=0 dh=0 dv=0 dx=0 dy=0 dh=-200 dv=0
EndChar

StartChar: afii57425
Encoding: 1585 1585 281
Width: 920
GlyphClass: 2
Flags: W
AnchorPoint: "Anchor-1" 225 -855 basechar 0
AnchorPoint: "Anchor-0" 375 885 basechar 0
LayerCount: 2
Fore
SplineSet
763 368 m 2,0,1
 818 294 818 294 835 213 c 0,2,3
 859 100 859 100 807 -15 c 0,4,5
 698 -253 698 -253 228 -527 c 1,6,-1
 123 -387 l 1,7,8
 557 -128 557 -128 661 89 c 0,9,10
 691 153 691 153 679 208 c 0,11,12
 668 262 668 262 621 323 c 2,13,-1
 480 506 l 1,14,-1
 599 590 l 1,15,-1
 763 368 l 2,0,1
EndSplineSet
Substitution2: "'fina' Terminal Forms in Arabic lookup 3 subtable" afii62782
PairPos2: "'kern' Horizontal Kerning in Arabic lookup 1 subtable" afii57415 dx=0 dy=0 dh=0 dv=0 dx=0 dy=0 dh=-100 dv=0
PairPos2: "'kern' Horizontal Kerning in Arabic lookup 1 subtable" afii62840 dx=0 dy=0 dh=0 dv=0 dx=0 dy=0 dh=-200 dv=0
PairPos2: "'kern' Horizontal Kerning in Arabic lookup 1 subtable" afii62838 dx=0 dy=0 dh=0 dv=0 dx=0 dy=0 dh=-200 dv=0
PairPos2: "'kern' Horizontal Kerning in Arabic lookup 1 subtable" afii62836 dx=0 dy=0 dh=0 dv=0 dx=0 dy=0 dh=-200 dv=0
PairPos2: "'kern' Horizontal Kerning in Arabic lookup 1 subtable" afii62834 dx=0 dy=0 dh=0 dv=0 dx=0 dy=0 dh=-200 dv=0
PairPos2: "'kern' Horizontal Kerning in Arabic lookup 1 subtable" afii57470 dx=0 dy=0 dh=0 dv=0 dx=0 dy=0 dh=-100 dv=0
PairPos2: "'kern' Horizontal Kerning in Arabic lookup 1 subtable" afii62783 dx=0 dy=0 dh=0 dv=0 dx=0 dy=0 dh=-200 dv=0
PairPos2: "'kern' Horizontal Kerning in Arabic lookup 1 subtable" afii57426 dx=0 dy=0 dh=0 dv=0 dx=0 dy=0 dh=-200 dv=0
PairPos2: "'kern' Horizontal Kerning in Arabic lookup 1 subtable" afii62782 dx=0 dy=0 dh=0 dv=0 dx=0 dy=0 dh=-200 dv=0
PairPos2: "'kern' Horizontal Kerning in Arabic lookup 1 subtable" afii57425 dx=0 dy=0 dh=0 dv=0 dx=0 dy=0 dh=-200 dv=0
PairPos2: "'kern' Horizontal Kerning in Arabic lookup 1 subtable" afii57415.001 dx=0 dy=0 dh=0 dv=0 dx=0 dy=0 dh=-100 dv=0
PairPos2: "'kern' Horizontal Kerning in Arabic lookup 1 subtable" afii52400 dx=0 dy=0 dh=0 dv=0 dx=0 dy=0 dh=-150 dv=0
PairPos2: "'kern' Horizontal Kerning in Arabic lookup 0 subtable" uniFC5D dx=0 dy=0 dh=0 dv=0 dx=0 dy=0 dh=-50 dv=0
PairPos2: "'kern' Horizontal Kerning in Arabic lookup 0 subtable" uni06FC.init dx=0 dy=0 dh=0 dv=0 dx=0 dy=0 dh=-80 dv=0
PairPos2: "'kern' Horizontal Kerning in Arabic lookup 0 subtable" uni06FB.init dx=0 dy=0 dh=0 dv=0 dx=0 dy=0 dh=-50 dv=0
PairPos2: "'kern' Horizontal Kerning in Arabic lookup 0 subtable" uni06FB dx=0 dy=0 dh=0 dv=0 dx=0 dy=0 dh=-80 dv=0
PairPos2: "'kern' Horizontal Kerning in Arabic lookup 0 subtable" uni06FA.init dx=0 dy=0 dh=0 dv=0 dx=0 dy=0 dh=-50 dv=0
PairPos2: "'kern' Horizontal Kerning in Arabic lookup 0 subtable" uni06FA dx=0 dy=0 dh=0 dv=0 dx=0 dy=0 dh=-80 dv=0
PairPos2: "'kern' Horizontal Kerning in Arabic lookup 0 subtable" uni06D1 dx=0 dy=0 dh=0 dv=0 dx=0 dy=0 dh=-50 dv=0
PairPos2: "'kern' Horizontal Kerning in Arabic lookup 0 subtable" uni06D0 dx=0 dy=0 dh=0 dv=0 dx=0 dy=0 dh=-50 dv=0
PairPos2: "'kern' Horizontal Kerning in Arabic lookup 0 subtable" uni06CE.init dx=0 dy=0 dh=0 dv=0 dx=0 dy=0 dh=50 dv=0
PairPos2: "'kern' Horizontal Kerning in Arabic lookup 0 subtable" uni06CE dx=0 dy=0 dh=0 dv=0 dx=0 dy=0 dh=-50 dv=0
PairPos2: "'kern' Horizontal Kerning in Arabic lookup 0 subtable" uni06CD dx=0 dy=0 dh=0 dv=0 dx=0 dy=0 dh=-50 dv=0
PairPos2: "'kern' Horizontal Kerning in Arabic lookup 0 subtable" uni06BF.init dx=0 dy=0 dh=0 dv=0 dx=0 dy=0 dh=-80 dv=0
PairPos2: "'kern' Horizontal Kerning in Arabic lookup 0 subtable" uni06BC.init dx=0 dy=0 dh=0 dv=0 dx=0 dy=0 dh=50 dv=0
PairPos2: "'kern' Horizontal Kerning in Arabic lookup 0 subtable" uni06B9.init dx=0 dy=0 dh=0 dv=0 dx=0 dy=0 dh=50 dv=0
PairPos2: "'kern' Horizontal Kerning in Arabic lookup 0 subtable" uni06B8.init dx=0 dy=0 dh=0 dv=0 dx=0 dy=0 dh=70 dv=0
PairPos2: "'kern' Horizontal Kerning in Arabic lookup 0 subtable" uni06B7.init dx=0 dy=0 dh=0 dv=0 dx=0 dy=0 dh=-50 dv=0
PairPos2: "'kern' Horizontal Kerning in Arabic lookup 0 subtable" uni06B6.init dx=0 dy=0 dh=0 dv=0 dx=0 dy=0 dh=-50 dv=0
PairPos2: "'kern' Horizontal Kerning in Arabic lookup 0 subtable" uni06B5.init dx=0 dy=0 dh=0 dv=0 dx=0 dy=0 dh=-50 dv=0
PairPos2: "'kern' Horizontal Kerning in Arabic lookup 0 subtable" uni06B4.init dx=0 dy=0 dh=0 dv=0 dx=0 dy=0 dh=-400 dv=0
PairPos2: "'kern' Horizontal Kerning in Arabic lookup 0 subtable" uni06B4 dx=0 dy=0 dh=0 dv=0 dx=0 dy=0 dh=-400 dv=0
PairPos2: "'kern' Horizontal Kerning in Arabic lookup 0 subtable" uniFB98 dx=0 dy=0 dh=0 dv=0 dx=0 dy=0 dh=-400 dv=0
PairPos2: "'kern' Horizontal Kerning in Arabic lookup 0 subtable" uni06B3 dx=0 dy=0 dh=0 dv=0 dx=0 dy=0 dh=-400 dv=0
PairPos2: "'kern' Horizontal Kerning in Arabic lookup 0 subtable" uni06B2.init dx=0 dy=0 dh=0 dv=0 dx=0 dy=0 dh=-400 dv=0
PairPos2: "'kern' Horizontal Kerning in Arabic lookup 0 subtable" uniFB9C dx=0 dy=0 dh=0 dv=0 dx=0 dy=0 dh=-400 dv=0
PairPos2: "'kern' Horizontal Kerning in Arabic lookup 0 subtable" uni06B1 dx=0 dy=0 dh=0 dv=0 dx=0 dy=0 dh=-400 dv=0
PairPos2: "'kern' Horizontal Kerning in Arabic lookup 0 subtable" uni06B0.init dx=0 dy=0 dh=0 dv=0 dx=0 dy=0 dh=-400 dv=0
PairPos2: "'kern' Horizontal Kerning in Arabic lookup 0 subtable" uni06B0 dx=0 dy=0 dh=0 dv=0 dx=0 dy=0 dh=-400 dv=0
PairPos2: "'kern' Horizontal Kerning in Arabic lookup 0 subtable" uni06AE.init dx=0 dy=0 dh=0 dv=0 dx=0 dy=0 dh=-400 dv=0
PairPos2: "'kern' Horizontal Kerning in Arabic lookup 0 subtable" uni06AE dx=0 dy=0 dh=0 dv=0 dx=0 dy=0 dh=-80 dv=0
PairPos2: "'kern' Horizontal Kerning in Arabic lookup 0 subtable" uniFBD5 dx=0 dy=0 dh=0 dv=0 dx=0 dy=0 dh=-400 dv=0
PairPos2: "'kern' Horizontal Kerning in Arabic lookup 0 subtable" uni06AD dx=0 dy=0 dh=0 dv=0 dx=0 dy=0 dh=-80 dv=0
PairPos2: "'kern' Horizontal Kerning in Arabic lookup 0 subtable" uni06AB.init dx=0 dy=0 dh=0 dv=0 dx=0 dy=0 dh=-400 dv=0
PairPos2: "'kern' Horizontal Kerning in Arabic lookup 0 subtable" uni06AB dx=0 dy=0 dh=0 dv=0 dx=0 dy=0 dh=-80 dv=0
PairPos2: "'kern' Horizontal Kerning in Arabic lookup 0 subtable" uni06AB.init dx=0 dy=0 dh=0 dv=0 dx=0 dy=0 dh=-400 dv=0
PairPos2: "'kern' Horizontal Kerning in Arabic lookup 0 subtable" uni06AB.001 dx=0 dy=0 dh=0 dv=0 dx=0 dy=0 dh=-400 dv=0
PairPos2: "'kern' Horizontal Kerning in Arabic lookup 0 subtable" uniFB70 dx=0 dy=0 dh=0 dv=0 dx=0 dy=0 dh=-50 dv=0
PairPos2: "'kern' Horizontal Kerning in Arabic lookup 0 subtable" uni06A6 dx=0 dy=0 dh=0 dv=0 dx=0 dy=0 dh=-50 dv=0
PairPos2: "'kern' Horizontal Kerning in Arabic lookup 0 subtable" uni06A5 dx=0 dy=0 dh=0 dv=0 dx=0 dy=0 dh=-50 dv=0
PairPos2: "'kern' Horizontal Kerning in Arabic lookup 0 subtable" uni06A3 dx=0 dy=0 dh=0 dv=0 dx=0 dy=0 dh=-50 dv=0
PairPos2: "'kern' Horizontal Kerning in Arabic lookup 0 subtable" uni06A2 dx=0 dy=0 dh=0 dv=0 dx=0 dy=0 dh=-50 dv=0
PairPos2: "'kern' Horizontal Kerning in Arabic lookup 0 subtable" uni06A0.init dx=0 dy=0 dh=0 dv=0 dx=0 dy=0 dh=-80 dv=0
PairPos2: "'kern' Horizontal Kerning in Arabic lookup 0 subtable" uni06A0 dx=0 dy=0 dh=0 dv=0 dx=0 dy=0 dh=200 dv=0
PairPos2: "'kern' Horizontal Kerning in Arabic lookup 0 subtable" uni069F dx=0 dy=0 dh=0 dv=0 dx=0 dy=0 dh=-50 dv=0
PairPos2: "'kern' Horizontal Kerning in Arabic lookup 0 subtable" uni069E.init dx=0 dy=0 dh=0 dv=0 dx=0 dy=0 dh=-50 dv=0
PairPos2: "'kern' Horizontal Kerning in Arabic lookup 0 subtable" uni069E dx=0 dy=0 dh=0 dv=0 dx=0 dy=0 dh=-80 dv=0
PairPos2: "'kern' Horizontal Kerning in Arabic lookup 0 subtable" uni069D.init dx=0 dy=0 dh=0 dv=0 dx=0 dy=0 dh=-50 dv=0
PairPos2: "'kern' Horizontal Kerning in Arabic lookup 0 subtable" uni069D dx=0 dy=0 dh=0 dv=0 dx=0 dy=0 dh=-80 dv=0
PairPos2: "'kern' Horizontal Kerning in Arabic lookup 0 subtable" uni069C.init dx=0 dy=0 dh=0 dv=0 dx=0 dy=0 dh=-50 dv=0
PairPos2: "'kern' Horizontal Kerning in Arabic lookup 0 subtable" uni069C dx=0 dy=0 dh=0 dv=0 dx=0 dy=0 dh=-80 dv=0
PairPos2: "'kern' Horizontal Kerning in Arabic lookup 0 subtable" uni069B.init dx=0 dy=0 dh=0 dv=0 dx=0 dy=0 dh=-50 dv=0
PairPos2: "'kern' Horizontal Kerning in Arabic lookup 0 subtable" uni069B dx=0 dy=0 dh=0 dv=0 dx=0 dy=0 dh=-80 dv=0
PairPos2: "'kern' Horizontal Kerning in Arabic lookup 0 subtable" uni069A.init dx=0 dy=0 dh=0 dv=0 dx=0 dy=0 dh=-50 dv=0
PairPos2: "'kern' Horizontal Kerning in Arabic lookup 0 subtable" uni069A dx=0 dy=0 dh=0 dv=0 dx=0 dy=0 dh=-80 dv=0
PairPos2: "'kern' Horizontal Kerning in Arabic lookup 0 subtable" uniFB80 dx=0 dy=0 dh=0 dv=0 dx=0 dy=0 dh=-80 dv=0
PairPos2: "'kern' Horizontal Kerning in Arabic lookup 0 subtable" uni0685.init dx=0 dy=0 dh=0 dv=0 dx=0 dy=0 dh=-80 dv=0
PairPos2: "'kern' Horizontal Kerning in Arabic lookup 0 subtable" uniFB74 dx=0 dy=0 dh=0 dv=0 dx=0 dy=0 dh=-80 dv=0
PairPos2: "'kern' Horizontal Kerning in Arabic lookup 0 subtable" uniFB78 dx=0 dy=0 dh=0 dv=0 dx=0 dy=0 dh=-80 dv=0
PairPos2: "'kern' Horizontal Kerning in Arabic lookup 0 subtable" uni0682.init dx=0 dy=0 dh=0 dv=0 dx=0 dy=0 dh=-80 dv=0
PairPos2: "'kern' Horizontal Kerning in Arabic lookup 0 subtable" uni0681.init dx=0 dy=0 dh=0 dv=0 dx=0 dy=0 dh=-80 dv=0
PairPos2: "'kern' Horizontal Kerning in Arabic lookup 0 subtable" uniFB5C dx=0 dy=0 dh=0 dv=0 dx=0 dy=0 dh=50 dv=0
PairPos2: "'kern' Horizontal Kerning in Arabic lookup 0 subtable" uni0680 dx=0 dy=0 dh=0 dv=0 dx=0 dy=0 dh=-50 dv=0
PairPos2: "'kern' Horizontal Kerning in Arabic lookup 0 subtable" uniFB64 dx=0 dy=0 dh=0 dv=0 dx=0 dy=0 dh=-50 dv=0
PairPos2: "'kern' Horizontal Kerning in Arabic lookup 0 subtable" uni067F dx=0 dy=0 dh=0 dv=0 dx=0 dy=0 dh=-50 dv=0
PairPos2: "'kern' Horizontal Kerning in Arabic lookup 0 subtable" uni067D.init dx=0 dy=0 dh=0 dv=0 dx=0 dy=0 dh=-50 dv=0
PairPos2: "'kern' Horizontal Kerning in Arabic lookup 0 subtable" uni067D dx=0 dy=0 dh=0 dv=0 dx=0 dy=0 dh=-50 dv=0
PairPos2: "'kern' Horizontal Kerning in Arabic lookup 0 subtable" uni067C.init dx=0 dy=0 dh=0 dv=0 dx=0 dy=0 dh=50 dv=0
PairPos2: "'kern' Horizontal Kerning in Arabic lookup 0 subtable" uni067C dx=0 dy=0 dh=0 dv=0 dx=0 dy=0 dh=-50 dv=0
PairPos2: "'kern' Horizontal Kerning in Arabic lookup 0 subtable" uniFB54 dx=0 dy=0 dh=0 dv=0 dx=0 dy=0 dh=50 dv=0
PairPos2: "'kern' Horizontal Kerning in Arabic lookup 0 subtable" uni067B dx=0 dy=0 dh=0 dv=0 dx=0 dy=0 dh=-50 dv=0
PairPos2: "'kern' Horizontal Kerning in Arabic lookup 0 subtable" uniFB60 dx=0 dy=0 dh=0 dv=0 dx=0 dy=0 dh=-50 dv=0
PairPos2: "'kern' Horizontal Kerning in Arabic lookup 0 subtable" uni067A dx=0 dy=0 dh=0 dv=0 dx=0 dy=0 dh=-50 dv=0
PairPos2: "'kern' Horizontal Kerning in Arabic lookup 0 subtable" uni0678 dx=0 dy=0 dh=0 dv=0 dx=0 dy=0 dh=-50 dv=0
PairPos2: "'kern' Horizontal Kerning in Arabic lookup 0 subtable" uni0675 dx=0 dy=0 dh=0 dv=0 dx=0 dy=0 dh=-90 dv=0
PairPos2: "'kern' Horizontal Kerning in Arabic lookup 0 subtable" uni0673 dx=0 dy=0 dh=0 dv=0 dx=0 dy=0 dh=150 dv=0
PairPos2: "'kern' Horizontal Kerning in Arabic lookup 0 subtable" uni0672 dx=0 dy=0 dh=0 dv=0 dx=0 dy=0 dh=-90 dv=0
PairPos2: "'kern' Horizontal Kerning in Arabic lookup 0 subtable" uniFBA6 dx=0 dy=0 dh=0 dv=0 dx=0 dy=0 dh=-80 dv=0
PairPos2: "'kern' Horizontal Kerning in Arabic lookup 0 subtable" uni06D3 dx=0 dy=0 dh=0 dv=0 dx=0 dy=0 dh=-100 dv=0
PairPos2: "'kern' Horizontal Kerning in Arabic lookup 0 subtable" uni06D2 dx=0 dy=0 dh=0 dv=0 dx=0 dy=0 dh=-100 dv=0
PairPos2: "'kern' Horizontal Kerning in Arabic lookup 0 subtable" uniFBA8 dx=0 dy=0 dh=0 dv=0 dx=0 dy=0 dh=50 dv=0
PairPos2: "'kern' Horizontal Kerning in Arabic lookup 0 subtable" uniFB68 dx=0 dy=0 dh=0 dv=0 dx=0 dy=0 dh=-50 dv=0
PairPos2: "'kern' Horizontal Kerning in Arabic lookup 0 subtable" uni0679 dx=0 dy=0 dh=0 dv=0 dx=0 dy=0 dh=-50 dv=0
PairPos2: "'kern' Horizontal Kerning in Arabic lookup 0 subtable" uniFBFE dx=0 dy=0 dh=0 dv=0 dx=0 dy=0 dh=50 dv=0
PairPos2: "'kern' Horizontal Kerning in Arabic lookup 0 subtable" uniFBA4 dx=0 dy=0 dh=0 dv=0 dx=0 dy=0 dh=-80 dv=0
PairPos2: "'kern' Horizontal Kerning in Arabic lookup 0 subtable" uni06C0 dx=0 dy=0 dh=0 dv=0 dx=0 dy=0 dh=-80 dv=0
PairPos2: "'kern' Horizontal Kerning in Arabic lookup 0 subtable" afii62831 dx=0 dy=0 dh=0 dv=0 dx=0 dy=0 dh=50 dv=0
PairPos2: "'kern' Horizontal Kerning in Arabic lookup 0 subtable" afii57450 dx=0 dy=0 dh=0 dv=0 dx=0 dy=0 dh=-50 dv=0
PairPos2: "'kern' Horizontal Kerning in Arabic lookup 0 subtable" afii57449 dx=0 dy=0 dh=0 dv=0 dx=0 dy=0 dh=-50 dv=0
PairPos2: "'kern' Horizontal Kerning in Arabic lookup 0 subtable" afii57447 dx=0 dy=0 dh=0 dv=0 dx=0 dy=0 dh=-80 dv=0
PairPos2: "'kern' Horizontal Kerning in Arabic lookup 0 subtable" afii62823 dx=0 dy=0 dh=0 dv=0 dx=0 dy=0 dh=-50 dv=0
PairPos2: "'kern' Horizontal Kerning in Arabic lookup 0 subtable" afii62820 dx=0 dy=0 dh=0 dv=0 dx=0 dy=0 dh=-80 dv=0
PairPos2: "'kern' Horizontal Kerning in Arabic lookup 0 subtable" afii57445 dx=0 dy=0 dh=0 dv=0 dx=0 dy=0 dh=-80 dv=0
PairPos2: "'kern' Horizontal Kerning in Arabic lookup 0 subtable" afii62817 dx=0 dy=0 dh=0 dv=0 dx=0 dy=0 dh=-50 dv=0
PairPos2: "'kern' Horizontal Kerning in Arabic lookup 0 subtable" afii57410 dx=0 dy=0 dh=0 dv=0 dx=0 dy=0 dh=-400 dv=0
PairPos2: "'kern' Horizontal Kerning in Arabic lookup 0 subtable" afii57443 dx=0 dy=0 dh=0 dv=0 dx=0 dy=0 dh=-80 dv=0
PairPos2: "'kern' Horizontal Kerning in Arabic lookup 0 subtable" afii62811 dx=0 dy=0 dh=0 dv=0 dx=0 dy=0 dh=-50 dv=0
PairPos2: "'kern' Horizontal Kerning in Arabic lookup 0 subtable" afii62808 dx=0 dy=0 dh=0 dv=0 dx=0 dy=0 dh=-50 dv=0
PairPos2: "'kern' Horizontal Kerning in Arabic lookup 0 subtable" afii57441 dx=0 dy=0 dh=0 dv=0 dx=0 dy=0 dh=-50 dv=0
PairPos2: "'kern' Horizontal Kerning in Arabic lookup 0 subtable" afii62805 dx=0 dy=0 dh=0 dv=0 dx=0 dy=0 dh=-80 dv=0
PairPos2: "'kern' Horizontal Kerning in Arabic lookup 0 subtable" afii57434 dx=0 dy=0 dh=0 dv=0 dx=0 dy=0 dh=200 dv=0
PairPos2: "'kern' Horizontal Kerning in Arabic lookup 0 subtable" afii62802 dx=0 dy=0 dh=0 dv=0 dx=0 dy=0 dh=-80 dv=0
PairPos2: "'kern' Horizontal Kerning in Arabic lookup 0 subtable" afii57433 dx=0 dy=0 dh=0 dv=0 dx=0 dy=0 dh=200 dv=0
PairPos2: "'kern' Horizontal Kerning in Arabic lookup 0 subtable" afii62799 dx=0 dy=0 dh=0 dv=0 dx=0 dy=0 dh=-50 dv=0
PairPos2: "'kern' Horizontal Kerning in Arabic lookup 0 subtable" afii57432 dx=0 dy=0 dh=0 dv=0 dx=0 dy=0 dh=-50 dv=0
PairPos2: "'kern' Horizontal Kerning in Arabic lookup 0 subtable" afii62796 dx=0 dy=0 dh=0 dv=0 dx=0 dy=0 dh=-50 dv=0
PairPos2: "'kern' Horizontal Kerning in Arabic lookup 0 subtable" afii57431 dx=0 dy=0 dh=0 dv=0 dx=0 dy=0 dh=-50 dv=0
PairPos2: "'kern' Horizontal Kerning in Arabic lookup 0 subtable" afii62793 dx=0 dy=0 dh=0 dv=0 dx=0 dy=0 dh=-50 dv=0
PairPos2: "'kern' Horizontal Kerning in Arabic lookup 0 subtable" afii57430 dx=0 dy=0 dh=0 dv=0 dx=0 dy=0 dh=-80 dv=0
PairPos2: "'kern' Horizontal Kerning in Arabic lookup 0 subtable" afii62790 dx=0 dy=0 dh=0 dv=0 dx=0 dy=0 dh=-50 dv=0
PairPos2: "'kern' Horizontal Kerning in Arabic lookup 0 subtable" afii57429 dx=0 dy=0 dh=0 dv=0 dx=0 dy=0 dh=-80 dv=0
PairPos2: "'kern' Horizontal Kerning in Arabic lookup 0 subtable" afii62787 dx=0 dy=0 dh=0 dv=0 dx=0 dy=0 dh=-50 dv=0
PairPos2: "'kern' Horizontal Kerning in Arabic lookup 0 subtable" afii57428 dx=0 dy=0 dh=0 dv=0 dx=0 dy=0 dh=-80 dv=0
PairPos2: "'kern' Horizontal Kerning in Arabic lookup 0 subtable" afii62784 dx=0 dy=0 dh=0 dv=0 dx=0 dy=0 dh=-50 dv=0
PairPos2: "'kern' Horizontal Kerning in Arabic lookup 0 subtable" afii57427 dx=0 dy=0 dh=0 dv=0 dx=0 dy=0 dh=-80 dv=0
PairPos2: "'kern' Horizontal Kerning in Arabic lookup 0 subtable" afii62777 dx=0 dy=0 dh=0 dv=0 dx=0 dy=0 dh=-80 dv=0
PairPos2: "'kern' Horizontal Kerning in Arabic lookup 0 subtable" afii62774 dx=0 dy=0 dh=0 dv=0 dx=0 dy=0 dh=-80 dv=0
PairPos2: "'kern' Horizontal Kerning in Arabic lookup 0 subtable" afii62771 dx=0 dy=0 dh=0 dv=0 dx=0 dy=0 dh=-80 dv=0
PairPos2: "'kern' Horizontal Kerning in Arabic lookup 0 subtable" afii62768 dx=0 dy=0 dh=0 dv=0 dx=0 dy=0 dh=-50 dv=0
PairPos2: "'kern' Horizontal Kerning in Arabic lookup 0 subtable" afii57419 dx=0 dy=0 dh=0 dv=0 dx=0 dy=0 dh=-50 dv=0
PairPos2: "'kern' Horizontal Kerning in Arabic lookup 0 subtable" afii62765 dx=0 dy=0 dh=0 dv=0 dx=0 dy=0 dh=-50 dv=0
PairPos2: "'kern' Horizontal Kerning in Arabic lookup 0 subtable" afii57418 dx=0 dy=0 dh=0 dv=0 dx=0 dy=0 dh=-50 dv=0
PairPos2: "'kern' Horizontal Kerning in Arabic lookup 0 subtable" afii57417 dx=0 dy=0 dh=0 dv=0 dx=0 dy=0 dh=-80 dv=0
PairPos2: "'kern' Horizontal Kerning in Arabic lookup 0 subtable" afii62761 dx=0 dy=0 dh=0 dv=0 dx=0 dy=0 dh=50 dv=0
PairPos2: "'kern' Horizontal Kerning in Arabic lookup 0 subtable" afii57416 dx=0 dy=0 dh=0 dv=0 dx=0 dy=0 dh=-50 dv=0
PairPos2: "'kern' Horizontal Kerning in Arabic lookup 0 subtable" afii62757 dx=0 dy=0 dh=0 dv=0 dx=0 dy=0 dh=-50 dv=0
PairPos2: "'kern' Horizontal Kerning in Arabic lookup 0 subtable" afii57414 dx=0 dy=0 dh=0 dv=0 dx=0 dy=0 dh=-50 dv=0
PairPos2: "'kern' Horizontal Kerning in Arabic lookup 0 subtable" afii57413 dx=0 dy=0 dh=0 dv=0 dx=0 dy=0 dh=150 dv=0
PairPos2: "'kern' Horizontal Kerning in Arabic lookup 0 subtable" afii57411 dx=0 dy=0 dh=0 dv=0 dx=0 dy=0 dh=-90 dv=0
PairPos2: "'kern' Horizontal Kerning in Arabic lookup 0 subtable" afii52399 dx=0 dy=0 dh=0 dv=0 dx=0 dy=0 dh=-80 dv=0
PairPos2: "'kern' Horizontal Kerning in Arabic lookup 0 subtable" afii57555 dx=0 dy=0 dh=0 dv=0 dx=0 dy=0 dh=-50 dv=0
PairPos2: "'kern' Horizontal Kerning in Arabic lookup 0 subtable" afii62965 dx=0 dy=0 dh=0 dv=0 dx=0 dy=0 dh=-400 dv=0
PairPos2: "'kern' Horizontal Kerning in Arabic lookup 0 subtable" afii57509 dx=0 dy=0 dh=0 dv=0 dx=0 dy=0 dh=-400 dv=0
PairPos2: "'kern' Horizontal Kerning in Arabic lookup 0 subtable" afii52305 dx=0 dy=0 dh=0 dv=0 dx=0 dy=0 dh=-400 dv=0
PairPos2: "'kern' Horizontal Kerning in Arabic lookup 0 subtable" afii57567 dx=0 dy=0 dh=0 dv=0 dx=0 dy=0 dh=-400 dv=0
PairPos2: "'kern' Horizontal Kerning in Arabic lookup 0 subtable" afii62959 dx=0 dy=0 dh=0 dv=0 dx=0 dy=0 dh=-80 dv=0
PairPos2: "'kern' Horizontal Kerning in Arabic lookup 0 subtable" afii57505 dx=0 dy=0 dh=0 dv=0 dx=0 dy=0 dh=-50 dv=0
PairPos2: "'kern' Horizontal Kerning in Arabic lookup 0 subtable" afii62956 dx=0 dy=0 dh=0 dv=0 dx=0 dy=0 dh=50 dv=0
PairPos2: "'kern' Horizontal Kerning in Arabic lookup 0 subtable" afii57506 dx=0 dy=0 dh=0 dv=0 dx=0 dy=0 dh=-50 dv=0
PairPos2: "'kern' Horizontal Kerning in Arabic lookup 0 subtable" afii57372 dx=0 dy=0 dh=0 dv=0 dx=0 dy=0 dh=-50 dv=0
PairPos2: "'kern' Horizontal Kerning in Arabic lookup 0 subtable" afii57534 dx=0 dy=0 dh=0 dv=0 dx=0 dy=0 dh=-80 dv=0
EndChar

StartChar: afii62782
Encoding: 65198 65198 282
Width: 1154
GlyphClass: 2
Flags: W
AnchorPoint: "Anchor-1" 330 -900 basechar 0
AnchorPoint: "Anchor-0" 420 765 basechar 0
LayerCount: 2
Fore
SplineSet
1154 0 m 1,0,-1
 1091 0 l 2,1,2
 955 1 955 1 848 103 c 1,3,4
 850 43 850 43 816 -32 c 0,5,6
 708 -267 708 -267 237 -543 c 1,7,-1
 132 -403 l 1,8,9
 569 -142 569 -142 670 72 c 0,10,11
 701 136 701 136 689 191 c 0,12,13
 677 245 677 245 630 306 c 2,14,-1
 490 489 l 1,15,-1
 608 575 l 1,16,-1
 773 351 l 2,17,18
 900 178 900 178 1062 178 c 2,19,-1
 1116 178 l 1,20,-1
 1154 0 l 1,0,-1
EndSplineSet
PairPos2: "'kern' Horizontal Kerning in Arabic lookup 1 subtable" afii57415 dx=0 dy=0 dh=0 dv=0 dx=0 dy=0 dh=-100 dv=0
PairPos2: "'kern' Horizontal Kerning in Arabic lookup 1 subtable" afii62840 dx=0 dy=0 dh=0 dv=0 dx=0 dy=0 dh=-200 dv=0
PairPos2: "'kern' Horizontal Kerning in Arabic lookup 1 subtable" afii62838 dx=0 dy=0 dh=0 dv=0 dx=0 dy=0 dh=-200 dv=0
PairPos2: "'kern' Horizontal Kerning in Arabic lookup 1 subtable" afii62836 dx=0 dy=0 dh=0 dv=0 dx=0 dy=0 dh=-200 dv=0
PairPos2: "'kern' Horizontal Kerning in Arabic lookup 1 subtable" afii62834 dx=0 dy=0 dh=0 dv=0 dx=0 dy=0 dh=-200 dv=0
PairPos2: "'kern' Horizontal Kerning in Arabic lookup 1 subtable" afii57470 dx=0 dy=0 dh=0 dv=0 dx=0 dy=0 dh=-100 dv=0
PairPos2: "'kern' Horizontal Kerning in Arabic lookup 1 subtable" afii62783 dx=0 dy=0 dh=0 dv=0 dx=0 dy=0 dh=-200 dv=0
PairPos2: "'kern' Horizontal Kerning in Arabic lookup 1 subtable" afii57426 dx=0 dy=0 dh=0 dv=0 dx=0 dy=0 dh=-200 dv=0
PairPos2: "'kern' Horizontal Kerning in Arabic lookup 1 subtable" afii62782 dx=0 dy=0 dh=0 dv=0 dx=0 dy=0 dh=-200 dv=0
PairPos2: "'kern' Horizontal Kerning in Arabic lookup 1 subtable" afii57425 dx=0 dy=0 dh=0 dv=0 dx=0 dy=0 dh=-200 dv=0
PairPos2: "'kern' Horizontal Kerning in Arabic lookup 1 subtable" afii57415.001 dx=0 dy=0 dh=0 dv=0 dx=0 dy=0 dh=-100 dv=0
PairPos2: "'kern' Horizontal Kerning in Arabic lookup 1 subtable" afii52400 dx=0 dy=0 dh=0 dv=0 dx=0 dy=0 dh=-150 dv=0
PairPos2: "'kern' Horizontal Kerning in Arabic lookup 0 subtable" uniFC5D dx=0 dy=0 dh=0 dv=0 dx=0 dy=0 dh=-80 dv=0
PairPos2: "'kern' Horizontal Kerning in Arabic lookup 0 subtable" afii57415 dx=0 dy=0 dh=0 dv=0 dx=0 dy=0 dh=-50 dv=0
PairPos2: "'kern' Horizontal Kerning in Arabic lookup 0 subtable" uni068A dx=0 dy=0 dh=0 dv=0 dx=0 dy=0 dh=-50 dv=0
PairPos2: "'kern' Horizontal Kerning in Arabic lookup 0 subtable" uni06FC.init dx=0 dy=0 dh=0 dv=0 dx=0 dy=0 dh=-70 dv=0
PairPos2: "'kern' Horizontal Kerning in Arabic lookup 0 subtable" uni06FB.init dx=0 dy=0 dh=0 dv=0 dx=0 dy=0 dh=-50 dv=0
PairPos2: "'kern' Horizontal Kerning in Arabic lookup 0 subtable" uni06FB dx=0 dy=0 dh=0 dv=0 dx=0 dy=0 dh=-70 dv=0
PairPos2: "'kern' Horizontal Kerning in Arabic lookup 0 subtable" uni06FA.init dx=0 dy=0 dh=0 dv=0 dx=0 dy=0 dh=-50 dv=0
PairPos2: "'kern' Horizontal Kerning in Arabic lookup 0 subtable" uni06FA dx=0 dy=0 dh=0 dv=0 dx=0 dy=0 dh=-70 dv=0
PairPos2: "'kern' Horizontal Kerning in Arabic lookup 0 subtable" uni06D1 dx=0 dy=0 dh=0 dv=0 dx=0 dy=0 dh=-80 dv=0
PairPos2: "'kern' Horizontal Kerning in Arabic lookup 0 subtable" uni06D0 dx=0 dy=0 dh=0 dv=0 dx=0 dy=0 dh=-80 dv=0
PairPos2: "'kern' Horizontal Kerning in Arabic lookup 0 subtable" uni06CE dx=0 dy=0 dh=0 dv=0 dx=0 dy=0 dh=-80 dv=0
PairPos2: "'kern' Horizontal Kerning in Arabic lookup 0 subtable" uni06CD dx=0 dy=0 dh=0 dv=0 dx=0 dy=0 dh=-80 dv=0
PairPos2: "'kern' Horizontal Kerning in Arabic lookup 0 subtable" uni06BF.init dx=0 dy=0 dh=0 dv=0 dx=0 dy=0 dh=-50 dv=0
PairPos2: "'kern' Horizontal Kerning in Arabic lookup 0 subtable" uni06B8.init dx=0 dy=0 dh=0 dv=0 dx=0 dy=0 dh=50 dv=0
PairPos2: "'kern' Horizontal Kerning in Arabic lookup 0 subtable" uni06B7.init dx=0 dy=0 dh=0 dv=0 dx=0 dy=0 dh=-50 dv=0
PairPos2: "'kern' Horizontal Kerning in Arabic lookup 0 subtable" uni06B6.init dx=0 dy=0 dh=0 dv=0 dx=0 dy=0 dh=-50 dv=0
PairPos2: "'kern' Horizontal Kerning in Arabic lookup 0 subtable" uni06B5.init dx=0 dy=0 dh=0 dv=0 dx=0 dy=0 dh=-50 dv=0
PairPos2: "'kern' Horizontal Kerning in Arabic lookup 0 subtable" uni06B4.init dx=0 dy=0 dh=0 dv=0 dx=0 dy=0 dh=-400 dv=0
PairPos2: "'kern' Horizontal Kerning in Arabic lookup 0 subtable" uni06B4 dx=0 dy=0 dh=0 dv=0 dx=0 dy=0 dh=-400 dv=0
PairPos2: "'kern' Horizontal Kerning in Arabic lookup 0 subtable" uniFB98 dx=0 dy=0 dh=0 dv=0 dx=0 dy=0 dh=-400 dv=0
PairPos2: "'kern' Horizontal Kerning in Arabic lookup 0 subtable" uni06B3 dx=0 dy=0 dh=0 dv=0 dx=0 dy=0 dh=-400 dv=0
PairPos2: "'kern' Horizontal Kerning in Arabic lookup 0 subtable" uni06B2.init dx=0 dy=0 dh=0 dv=0 dx=0 dy=0 dh=-400 dv=0
PairPos2: "'kern' Horizontal Kerning in Arabic lookup 0 subtable" uniFB9C dx=0 dy=0 dh=0 dv=0 dx=0 dy=0 dh=-400 dv=0
PairPos2: "'kern' Horizontal Kerning in Arabic lookup 0 subtable" uni06B1 dx=0 dy=0 dh=0 dv=0 dx=0 dy=0 dh=-400 dv=0
PairPos2: "'kern' Horizontal Kerning in Arabic lookup 0 subtable" uni06B0.init dx=0 dy=0 dh=0 dv=0 dx=0 dy=0 dh=-400 dv=0
PairPos2: "'kern' Horizontal Kerning in Arabic lookup 0 subtable" uni06B0 dx=0 dy=0 dh=0 dv=0 dx=0 dy=0 dh=-400 dv=0
PairPos2: "'kern' Horizontal Kerning in Arabic lookup 0 subtable" uni06AE.init dx=0 dy=0 dh=0 dv=0 dx=0 dy=0 dh=-400 dv=0
PairPos2: "'kern' Horizontal Kerning in Arabic lookup 0 subtable" uni06AE dx=0 dy=0 dh=0 dv=0 dx=0 dy=0 dh=-50 dv=0
PairPos2: "'kern' Horizontal Kerning in Arabic lookup 0 subtable" uniFBD5 dx=0 dy=0 dh=0 dv=0 dx=0 dy=0 dh=-400 dv=0
PairPos2: "'kern' Horizontal Kerning in Arabic lookup 0 subtable" uni06AD dx=0 dy=0 dh=0 dv=0 dx=0 dy=0 dh=-50 dv=0
PairPos2: "'kern' Horizontal Kerning in Arabic lookup 0 subtable" uni06AB.init dx=0 dy=0 dh=0 dv=0 dx=0 dy=0 dh=-400 dv=0
PairPos2: "'kern' Horizontal Kerning in Arabic lookup 0 subtable" uni06AB dx=0 dy=0 dh=0 dv=0 dx=0 dy=0 dh=-50 dv=0
PairPos2: "'kern' Horizontal Kerning in Arabic lookup 0 subtable" uni06AB.init dx=0 dy=0 dh=0 dv=0 dx=0 dy=0 dh=-400 dv=0
PairPos2: "'kern' Horizontal Kerning in Arabic lookup 0 subtable" uni06AB.001 dx=0 dy=0 dh=0 dv=0 dx=0 dy=0 dh=-400 dv=0
PairPos2: "'kern' Horizontal Kerning in Arabic lookup 0 subtable" uniFB70 dx=0 dy=0 dh=0 dv=0 dx=0 dy=0 dh=-70 dv=0
PairPos2: "'kern' Horizontal Kerning in Arabic lookup 0 subtable" uni06A6 dx=0 dy=0 dh=0 dv=0 dx=0 dy=0 dh=-50 dv=0
PairPos2: "'kern' Horizontal Kerning in Arabic lookup 0 subtable" uni06A5 dx=0 dy=0 dh=0 dv=0 dx=0 dy=0 dh=-50 dv=0
PairPos2: "'kern' Horizontal Kerning in Arabic lookup 0 subtable" uni06A3 dx=0 dy=0 dh=0 dv=0 dx=0 dy=0 dh=-50 dv=0
PairPos2: "'kern' Horizontal Kerning in Arabic lookup 0 subtable" uni06A2 dx=0 dy=0 dh=0 dv=0 dx=0 dy=0 dh=-50 dv=0
PairPos2: "'kern' Horizontal Kerning in Arabic lookup 0 subtable" uni06A0.init dx=0 dy=0 dh=0 dv=0 dx=0 dy=0 dh=-70 dv=0
PairPos2: "'kern' Horizontal Kerning in Arabic lookup 0 subtable" uni06A0 dx=0 dy=0 dh=0 dv=0 dx=0 dy=0 dh=190 dv=0
PairPos2: "'kern' Horizontal Kerning in Arabic lookup 0 subtable" uni069F dx=0 dy=0 dh=0 dv=0 dx=0 dy=0 dh=-50 dv=0
PairPos2: "'kern' Horizontal Kerning in Arabic lookup 0 subtable" uni069E.init dx=0 dy=0 dh=0 dv=0 dx=0 dy=0 dh=-50 dv=0
PairPos2: "'kern' Horizontal Kerning in Arabic lookup 0 subtable" uni069E dx=0 dy=0 dh=0 dv=0 dx=0 dy=0 dh=-70 dv=0
PairPos2: "'kern' Horizontal Kerning in Arabic lookup 0 subtable" uni069D.init dx=0 dy=0 dh=0 dv=0 dx=0 dy=0 dh=-50 dv=0
PairPos2: "'kern' Horizontal Kerning in Arabic lookup 0 subtable" uni069D dx=0 dy=0 dh=0 dv=0 dx=0 dy=0 dh=-70 dv=0
PairPos2: "'kern' Horizontal Kerning in Arabic lookup 0 subtable" uni069C.init dx=0 dy=0 dh=0 dv=0 dx=0 dy=0 dh=-50 dv=0
PairPos2: "'kern' Horizontal Kerning in Arabic lookup 0 subtable" uni069C dx=0 dy=0 dh=0 dv=0 dx=0 dy=0 dh=-70 dv=0
PairPos2: "'kern' Horizontal Kerning in Arabic lookup 0 subtable" uni069B.init dx=0 dy=0 dh=0 dv=0 dx=0 dy=0 dh=-50 dv=0
PairPos2: "'kern' Horizontal Kerning in Arabic lookup 0 subtable" uni069B dx=0 dy=0 dh=0 dv=0 dx=0 dy=0 dh=-70 dv=0
PairPos2: "'kern' Horizontal Kerning in Arabic lookup 0 subtable" uni069A.init dx=0 dy=0 dh=0 dv=0 dx=0 dy=0 dh=-50 dv=0
PairPos2: "'kern' Horizontal Kerning in Arabic lookup 0 subtable" uni069A dx=0 dy=0 dh=0 dv=0 dx=0 dy=0 dh=-70 dv=0
PairPos2: "'kern' Horizontal Kerning in Arabic lookup 0 subtable" uni068e dx=0 dy=0 dh=0 dv=0 dx=0 dy=0 dh=-50 dv=0
PairPos2: "'kern' Horizontal Kerning in Arabic lookup 0 subtable" uni068d dx=0 dy=0 dh=0 dv=0 dx=0 dy=0 dh=-50 dv=0
PairPos2: "'kern' Horizontal Kerning in Arabic lookup 0 subtable" uni068c dx=0 dy=0 dh=0 dv=0 dx=0 dy=0 dh=-50 dv=0
PairPos2: "'kern' Horizontal Kerning in Arabic lookup 0 subtable" uni068b dx=0 dy=0 dh=0 dv=0 dx=0 dy=0 dh=-50 dv=0
PairPos2: "'kern' Horizontal Kerning in Arabic lookup 0 subtable" uni0689 dx=0 dy=0 dh=0 dv=0 dx=0 dy=0 dh=-50 dv=0
PairPos2: "'kern' Horizontal Kerning in Arabic lookup 0 subtable" uniFB80 dx=0 dy=0 dh=0 dv=0 dx=0 dy=0 dh=-50 dv=0
PairPos2: "'kern' Horizontal Kerning in Arabic lookup 0 subtable" uni0685.init dx=0 dy=0 dh=0 dv=0 dx=0 dy=0 dh=-50 dv=0
PairPos2: "'kern' Horizontal Kerning in Arabic lookup 0 subtable" uniFB74 dx=0 dy=0 dh=0 dv=0 dx=0 dy=0 dh=-50 dv=0
PairPos2: "'kern' Horizontal Kerning in Arabic lookup 0 subtable" uniFB78 dx=0 dy=0 dh=0 dv=0 dx=0 dy=0 dh=-50 dv=0
PairPos2: "'kern' Horizontal Kerning in Arabic lookup 0 subtable" uni0682.init dx=0 dy=0 dh=0 dv=0 dx=0 dy=0 dh=-50 dv=0
PairPos2: "'kern' Horizontal Kerning in Arabic lookup 0 subtable" uni0681.init dx=0 dy=0 dh=0 dv=0 dx=0 dy=0 dh=-50 dv=0
PairPos2: "'kern' Horizontal Kerning in Arabic lookup 0 subtable" uni0680 dx=0 dy=0 dh=0 dv=0 dx=0 dy=0 dh=-50 dv=0
PairPos2: "'kern' Horizontal Kerning in Arabic lookup 0 subtable" uniFB64 dx=0 dy=0 dh=0 dv=0 dx=0 dy=0 dh=-50 dv=0
PairPos2: "'kern' Horizontal Kerning in Arabic lookup 0 subtable" uni067F dx=0 dy=0 dh=0 dv=0 dx=0 dy=0 dh=-50 dv=0
PairPos2: "'kern' Horizontal Kerning in Arabic lookup 0 subtable" uni067D.init dx=0 dy=0 dh=0 dv=0 dx=0 dy=0 dh=-50 dv=0
PairPos2: "'kern' Horizontal Kerning in Arabic lookup 0 subtable" uni067D dx=0 dy=0 dh=0 dv=0 dx=0 dy=0 dh=-50 dv=0
PairPos2: "'kern' Horizontal Kerning in Arabic lookup 0 subtable" uni067C dx=0 dy=0 dh=0 dv=0 dx=0 dy=0 dh=-50 dv=0
PairPos2: "'kern' Horizontal Kerning in Arabic lookup 0 subtable" uni067B dx=0 dy=0 dh=0 dv=0 dx=0 dy=0 dh=-50 dv=0
PairPos2: "'kern' Horizontal Kerning in Arabic lookup 0 subtable" uniFB60 dx=0 dy=0 dh=0 dv=0 dx=0 dy=0 dh=-50 dv=0
PairPos2: "'kern' Horizontal Kerning in Arabic lookup 0 subtable" uni067A dx=0 dy=0 dh=0 dv=0 dx=0 dy=0 dh=-50 dv=0
PairPos2: "'kern' Horizontal Kerning in Arabic lookup 0 subtable" uni0678 dx=0 dy=0 dh=0 dv=0 dx=0 dy=0 dh=-80 dv=0
PairPos2: "'kern' Horizontal Kerning in Arabic lookup 0 subtable" uni0675 dx=0 dy=0 dh=0 dv=0 dx=0 dy=0 dh=-50 dv=0
PairPos2: "'kern' Horizontal Kerning in Arabic lookup 0 subtable" uni0673 dx=0 dy=0 dh=0 dv=0 dx=0 dy=0 dh=100 dv=0
PairPos2: "'kern' Horizontal Kerning in Arabic lookup 0 subtable" uni0672 dx=0 dy=0 dh=0 dv=0 dx=0 dy=0 dh=-50 dv=0
PairPos2: "'kern' Horizontal Kerning in Arabic lookup 0 subtable" uniFBA6 dx=0 dy=0 dh=0 dv=0 dx=0 dy=0 dh=-50 dv=0
PairPos2: "'kern' Horizontal Kerning in Arabic lookup 0 subtable" uni06D3 dx=0 dy=0 dh=0 dv=0 dx=0 dy=0 dh=-100 dv=0
PairPos2: "'kern' Horizontal Kerning in Arabic lookup 0 subtable" uni06D2 dx=0 dy=0 dh=0 dv=0 dx=0 dy=0 dh=-100 dv=0
PairPos2: "'kern' Horizontal Kerning in Arabic lookup 0 subtable" uni0688 dx=0 dy=0 dh=0 dv=0 dx=0 dy=0 dh=-50 dv=0
PairPos2: "'kern' Horizontal Kerning in Arabic lookup 0 subtable" uniFB68 dx=0 dy=0 dh=0 dv=0 dx=0 dy=0 dh=-50 dv=0
PairPos2: "'kern' Horizontal Kerning in Arabic lookup 0 subtable" uni0679 dx=0 dy=0 dh=0 dv=0 dx=0 dy=0 dh=-50 dv=0
PairPos2: "'kern' Horizontal Kerning in Arabic lookup 0 subtable" uniFBA4 dx=0 dy=0 dh=0 dv=0 dx=0 dy=0 dh=-50 dv=0
PairPos2: "'kern' Horizontal Kerning in Arabic lookup 0 subtable" uni06C0 dx=0 dy=0 dh=0 dv=0 dx=0 dy=0 dh=-50 dv=0
PairPos2: "'kern' Horizontal Kerning in Arabic lookup 0 subtable" afii57450 dx=0 dy=0 dh=0 dv=0 dx=0 dy=0 dh=-80 dv=0
PairPos2: "'kern' Horizontal Kerning in Arabic lookup 0 subtable" afii57449 dx=0 dy=0 dh=0 dv=0 dx=0 dy=0 dh=-80 dv=0
PairPos2: "'kern' Horizontal Kerning in Arabic lookup 0 subtable" afii57447 dx=0 dy=0 dh=0 dv=0 dx=0 dy=0 dh=-50 dv=0
PairPos2: "'kern' Horizontal Kerning in Arabic lookup 0 subtable" afii62823 dx=0 dy=0 dh=0 dv=0 dx=0 dy=0 dh=-50 dv=0
PairPos2: "'kern' Horizontal Kerning in Arabic lookup 0 subtable" afii62820 dx=0 dy=0 dh=0 dv=0 dx=0 dy=0 dh=-70 dv=0
PairPos2: "'kern' Horizontal Kerning in Arabic lookup 0 subtable" afii57445 dx=0 dy=0 dh=0 dv=0 dx=0 dy=0 dh=-50 dv=0
PairPos2: "'kern' Horizontal Kerning in Arabic lookup 0 subtable" afii62817 dx=0 dy=0 dh=0 dv=0 dx=0 dy=0 dh=-50 dv=0
PairPos2: "'kern' Horizontal Kerning in Arabic lookup 0 subtable" afii57410 dx=0 dy=0 dh=0 dv=0 dx=0 dy=0 dh=-400 dv=0
PairPos2: "'kern' Horizontal Kerning in Arabic lookup 0 subtable" afii57443 dx=0 dy=0 dh=0 dv=0 dx=0 dy=0 dh=-50 dv=0
PairPos2: "'kern' Horizontal Kerning in Arabic lookup 0 subtable" afii62811 dx=0 dy=0 dh=0 dv=0 dx=0 dy=0 dh=-70 dv=0
PairPos2: "'kern' Horizontal Kerning in Arabic lookup 0 subtable" afii62808 dx=0 dy=0 dh=0 dv=0 dx=0 dy=0 dh=-70 dv=0
PairPos2: "'kern' Horizontal Kerning in Arabic lookup 0 subtable" afii57441 dx=0 dy=0 dh=0 dv=0 dx=0 dy=0 dh=-50 dv=0
PairPos2: "'kern' Horizontal Kerning in Arabic lookup 0 subtable" afii62805 dx=0 dy=0 dh=0 dv=0 dx=0 dy=0 dh=-70 dv=0
PairPos2: "'kern' Horizontal Kerning in Arabic lookup 0 subtable" afii57434 dx=0 dy=0 dh=0 dv=0 dx=0 dy=0 dh=190 dv=0
PairPos2: "'kern' Horizontal Kerning in Arabic lookup 0 subtable" afii62802 dx=0 dy=0 dh=0 dv=0 dx=0 dy=0 dh=-70 dv=0
PairPos2: "'kern' Horizontal Kerning in Arabic lookup 0 subtable" afii57433 dx=0 dy=0 dh=0 dv=0 dx=0 dy=0 dh=190 dv=0
PairPos2: "'kern' Horizontal Kerning in Arabic lookup 0 subtable" afii62799 dx=0 dy=0 dh=0 dv=0 dx=0 dy=0 dh=-50 dv=0
PairPos2: "'kern' Horizontal Kerning in Arabic lookup 0 subtable" afii57432 dx=0 dy=0 dh=0 dv=0 dx=0 dy=0 dh=-50 dv=0
PairPos2: "'kern' Horizontal Kerning in Arabic lookup 0 subtable" afii62796 dx=0 dy=0 dh=0 dv=0 dx=0 dy=0 dh=-50 dv=0
PairPos2: "'kern' Horizontal Kerning in Arabic lookup 0 subtable" afii57431 dx=0 dy=0 dh=0 dv=0 dx=0 dy=0 dh=-50 dv=0
PairPos2: "'kern' Horizontal Kerning in Arabic lookup 0 subtable" afii62793 dx=0 dy=0 dh=0 dv=0 dx=0 dy=0 dh=-50 dv=0
PairPos2: "'kern' Horizontal Kerning in Arabic lookup 0 subtable" afii57430 dx=0 dy=0 dh=0 dv=0 dx=0 dy=0 dh=-70 dv=0
PairPos2: "'kern' Horizontal Kerning in Arabic lookup 0 subtable" afii62790 dx=0 dy=0 dh=0 dv=0 dx=0 dy=0 dh=-50 dv=0
PairPos2: "'kern' Horizontal Kerning in Arabic lookup 0 subtable" afii57429 dx=0 dy=0 dh=0 dv=0 dx=0 dy=0 dh=-70 dv=0
PairPos2: "'kern' Horizontal Kerning in Arabic lookup 0 subtable" afii62787 dx=0 dy=0 dh=0 dv=0 dx=0 dy=0 dh=-50 dv=0
PairPos2: "'kern' Horizontal Kerning in Arabic lookup 0 subtable" afii57428 dx=0 dy=0 dh=0 dv=0 dx=0 dy=0 dh=-70 dv=0
PairPos2: "'kern' Horizontal Kerning in Arabic lookup 0 subtable" afii62784 dx=0 dy=0 dh=0 dv=0 dx=0 dy=0 dh=-50 dv=0
PairPos2: "'kern' Horizontal Kerning in Arabic lookup 0 subtable" afii57427 dx=0 dy=0 dh=0 dv=0 dx=0 dy=0 dh=-70 dv=0
PairPos2: "'kern' Horizontal Kerning in Arabic lookup 0 subtable" afii57424 dx=0 dy=0 dh=0 dv=0 dx=0 dy=0 dh=-50 dv=0
PairPos2: "'kern' Horizontal Kerning in Arabic lookup 0 subtable" afii57423 dx=0 dy=0 dh=0 dv=0 dx=0 dy=0 dh=-50 dv=0
PairPos2: "'kern' Horizontal Kerning in Arabic lookup 0 subtable" afii62777 dx=0 dy=0 dh=0 dv=0 dx=0 dy=0 dh=-50 dv=0
PairPos2: "'kern' Horizontal Kerning in Arabic lookup 0 subtable" afii62774 dx=0 dy=0 dh=0 dv=0 dx=0 dy=0 dh=-50 dv=0
PairPos2: "'kern' Horizontal Kerning in Arabic lookup 0 subtable" afii62771 dx=0 dy=0 dh=0 dv=0 dx=0 dy=0 dh=-50 dv=0
PairPos2: "'kern' Horizontal Kerning in Arabic lookup 0 subtable" afii62768 dx=0 dy=0 dh=0 dv=0 dx=0 dy=0 dh=-50 dv=0
PairPos2: "'kern' Horizontal Kerning in Arabic lookup 0 subtable" afii57419 dx=0 dy=0 dh=0 dv=0 dx=0 dy=0 dh=-50 dv=0
PairPos2: "'kern' Horizontal Kerning in Arabic lookup 0 subtable" afii62765 dx=0 dy=0 dh=0 dv=0 dx=0 dy=0 dh=-50 dv=0
PairPos2: "'kern' Horizontal Kerning in Arabic lookup 0 subtable" afii57418 dx=0 dy=0 dh=0 dv=0 dx=0 dy=0 dh=-50 dv=0
PairPos2: "'kern' Horizontal Kerning in Arabic lookup 0 subtable" afii57417 dx=0 dy=0 dh=0 dv=0 dx=0 dy=0 dh=-50 dv=0
PairPos2: "'kern' Horizontal Kerning in Arabic lookup 0 subtable" afii57416 dx=0 dy=0 dh=0 dv=0 dx=0 dy=0 dh=-50 dv=0
PairPos2: "'kern' Horizontal Kerning in Arabic lookup 0 subtable" afii57415.001 dx=0 dy=0 dh=0 dv=0 dx=0 dy=0 dh=-50 dv=0
PairPos2: "'kern' Horizontal Kerning in Arabic lookup 0 subtable" afii62757 dx=0 dy=0 dh=0 dv=0 dx=0 dy=0 dh=-50 dv=0
PairPos2: "'kern' Horizontal Kerning in Arabic lookup 0 subtable" afii57414 dx=0 dy=0 dh=0 dv=0 dx=0 dy=0 dh=-80 dv=0
PairPos2: "'kern' Horizontal Kerning in Arabic lookup 0 subtable" afii57413 dx=0 dy=0 dh=0 dv=0 dx=0 dy=0 dh=100 dv=0
PairPos2: "'kern' Horizontal Kerning in Arabic lookup 0 subtable" afii57411 dx=0 dy=0 dh=0 dv=0 dx=0 dy=0 dh=-50 dv=0
PairPos2: "'kern' Horizontal Kerning in Arabic lookup 0 subtable" afii52399 dx=0 dy=0 dh=0 dv=0 dx=0 dy=0 dh=-80 dv=0
PairPos2: "'kern' Horizontal Kerning in Arabic lookup 0 subtable" afii57555 dx=0 dy=0 dh=0 dv=0 dx=0 dy=0 dh=-80 dv=0
PairPos2: "'kern' Horizontal Kerning in Arabic lookup 0 subtable" afii62965 dx=0 dy=0 dh=0 dv=0 dx=0 dy=0 dh=-400 dv=0
PairPos2: "'kern' Horizontal Kerning in Arabic lookup 0 subtable" afii57509 dx=0 dy=0 dh=0 dv=0 dx=0 dy=0 dh=-400 dv=0
PairPos2: "'kern' Horizontal Kerning in Arabic lookup 0 subtable" afii52305 dx=0 dy=0 dh=0 dv=0 dx=0 dy=0 dh=-400 dv=0
PairPos2: "'kern' Horizontal Kerning in Arabic lookup 0 subtable" afii57567 dx=0 dy=0 dh=0 dv=0 dx=0 dy=0 dh=-400 dv=0
PairPos2: "'kern' Horizontal Kerning in Arabic lookup 0 subtable" afii62959 dx=0 dy=0 dh=0 dv=0 dx=0 dy=0 dh=-50 dv=0
PairPos2: "'kern' Horizontal Kerning in Arabic lookup 0 subtable" afii57505 dx=0 dy=0 dh=0 dv=0 dx=0 dy=0 dh=-50 dv=0
PairPos2: "'kern' Horizontal Kerning in Arabic lookup 0 subtable" afii57506 dx=0 dy=0 dh=0 dv=0 dx=0 dy=0 dh=-50 dv=0
PairPos2: "'kern' Horizontal Kerning in Arabic lookup 0 subtable" afii57372 dx=0 dy=0 dh=0 dv=0 dx=0 dy=0 dh=-70 dv=0
PairPos2: "'kern' Horizontal Kerning in Arabic lookup 0 subtable" afii57534 dx=0 dy=0 dh=0 dv=0 dx=0 dy=0 dh=-50 dv=0
EndChar

StartChar: afii57427
Encoding: 1587 1587 285
Width: 2159
GlyphClass: 2
Flags: W
AnchorPoint: "Anchor-1" 1335 -825 basechar 0
AnchorPoint: "Anchor-0" 1125 990 basechar 0
LayerCount: 2
Fore
SplineSet
2070 252 m 0,0,1
 2125 -7 2125 -7 1819 -7 c 0,2,3
 1671 -7 1671 -7 1582 117 c 1,4,5
 1541 1 1541 1 1434 1 c 0,6,7
 1355 1 1355 1 1280 43 c 1,8,9
 1324 -160 1324 -160 1288 -266 c 0,10,11
 1242 -405 1242 -405 1099 -485 c 0,12,13
 966 -559 966 -559 798 -559 c 0,14,15
 528 -559 528 -559 349 -412 c 0,16,17
 192 -283 192 -283 150 -85 c 0,18,19
 112 94 112 94 154 259 c 1,20,-1
 292 220 l 1,21,22
 268 64 268 64 294 -58 c 0,23,24
 333 -240 333 -240 493 -326 c 0,25,26
 609 -388 609 -388 751 -388 c 0,27,28
 930 -388 930 -388 1045 -307 c 0,29,30
 1181 -212 1181 -212 1145 -44 c 0,31,32
 1140 -19 1140 -19 1126 15 c 0,33,34
 1054 201 1054 201 885 413 c 1,35,-1
 1000 497 l 1,36,37
 1126 334 1126 334 1162 296 c 0,38,39
 1278 174 1278 174 1365 174 c 0,40,41
 1424 174 1424 174 1442.5 194 c 128,-1,42
 1461 214 1461 214 1448 273 c 2,43,-1
 1391 543 l 1,44,-1
 1535 543 l 1,45,-1
 1551 466 l 2,46,47
 1615 169 1615 169 1821 169 c 0,48,49
 1929 169 1929 169 1909 261 c 0,50,51
 1901 298 1901 298 1842 376 c 0,52,53
 1810 416 1810 416 1747 497 c 1,54,-1
 1857 584 l 1,55,56
 1935 487 1935 487 1976 430 c 0,57,58
 2056 319 2056 319 2070 252 c 0,0,1
EndSplineSet
Substitution2: "'fina' Terminal Forms in Arabic lookup 3 subtable" afii62786
Substitution2: "'medi' Medial Forms in Arabic lookup 2 subtable" afii62785
Substitution2: "'init' Initial Forms in Arabic lookup 0 subtable" afii62784
EndChar

StartChar: afii62786
Encoding: 65202 65202 286
Width: 2252
GlyphClass: 2
Flags: W
AnchorPoint: "Anchor-1" 1515 -735 basechar 0
AnchorPoint: "Anchor-0" 1215 960 basechar 0
LayerCount: 2
Fore
SplineSet
2252 0 m 1,0,-1
 2224 0 l 2,1,2
 2161 0 2161 0 2091 32 c 0,3,4
 2016 66 2016 66 1977 118 c 1,5,6
 1933 -7 1933 -7 1813 -7 c 0,7,8
 1674 -7 1674 -7 1585 117 c 1,9,10
 1544 1 1544 1 1437 1 c 0,11,12
 1358 1 1358 1 1283 43 c 1,13,14
 1327 -160 1327 -160 1291 -266 c 0,15,16
 1245 -405 1245 -405 1102 -485 c 0,17,18
 969 -559 969 -559 801 -559 c 0,19,20
 531 -559 531 -559 352 -412 c 0,21,22
 195 -283 195 -283 153 -85 c 0,23,24
 115 94 115 94 157 259 c 1,25,-1
 295 220 l 1,26,27
 273 52 273 52 297 -58 c 0,28,29
 336 -240 336 -240 496 -326 c 0,30,31
 612 -388 612 -388 754 -388 c 0,32,33
 933 -388 933 -388 1048 -307 c 0,34,35
 1184 -212 1184 -212 1148 -44 c 0,36,37
 1143 -19 1143 -19 1129 15 c 0,38,39
 1057 201 1057 201 888 413 c 1,40,-1
 1003 497 l 1,41,42
 1129 334 1129 334 1165 296 c 0,43,44
 1281 174 1281 174 1368 174 c 0,45,46
 1427 174 1427 174 1445.5 194 c 128,-1,47
 1464 214 1464 214 1451 273 c 2,48,-1
 1394 543 l 1,49,-1
 1538 543 l 1,50,-1
 1554 466 l 2,51,52
 1618 169 1618 169 1782 169 c 0,53,54
 1863 169 1863 169 1840 273 c 2,55,-1
 1783 544 l 1,56,-1
 1928 544 l 1,57,-1
 1963 377 l 2,58,59
 2006 178 2006 178 2161 178 c 2,60,-1
 2214 178 l 1,61,-1
 2252 0 l 1,0,-1
EndSplineSet
EndChar

StartChar: afii62784
Encoding: 65203 65203 287
Width: 1192
GlyphClass: 2
Flags: W
AnchorPoint: "Anchor-1" 510 -540 basechar 0
AnchorPoint: "Anchor-0" 510 885 basechar 0
LayerCount: 2
Fore
SplineSet
1106 240 m 0,0,1
 1131 126 1131 126 1071 53 c 128,-1,2
 1011 -20 1011 -20 896 -20 c 0,3,4
 730 -20 730 -20 634 105 c 1,5,6
 576 -9 576 -9 482 -9 c 0,7,8
 336 -9 336 -9 247 115 c 1,9,10
 222 45 222 45 162 20 c 0,11,12
 117 1 117 1 27 0 c 2,13,-1
 -70 0 l 1,14,-1
 -107 178 l 1,15,-1
 8 178 l 2,16,17
 84 178 84 178 106 213 c 0,18,19
 126 245 126 245 110 323 c 2,20,-1
 65 536 l 1,21,-1
 204 536 l 1,22,-1
 223 450 l 2,23,24
 286 165 286 165 449 165 c 0,25,26
 499 165 499 165 504 220 c 0,27,28
 506 255 506 255 483 366 c 2,29,-1
 447 536 l 1,30,-1
 588 536 l 1,31,-1
 615 406 l 2,32,33
 636 307 636 307 696 236 c 0,34,35
 766 154 766 154 860 154 c 0,36,37
 967 154 967 154 948 243 c 0,38,39
 936 300 936 300 792 479 c 1,40,-1
 898 566 l 1,41,42
 1089 321 1089 321 1106 240 c 0,0,1
EndSplineSet
EndChar

StartChar: afii62785
Encoding: 65204 65204 288
Width: 1296
GlyphClass: 2
Flags: W
AnchorPoint: "Anchor-1" 570 -615 basechar 0
AnchorPoint: "Anchor-0" 435 870 basechar 0
LayerCount: 2
Fore
SplineSet
1296 0 m 1,0,-1
 1267 0 l 2,1,2
 1204 0 1204 0 1135 32 c 0,3,4
 1062 65 1062 65 1023 118 c 1,5,6
 979 -7 979 -7 857 -7 c 0,7,8
 726 -7 726 -7 638 117 c 1,9,10
 592 -8 592 -8 482 -8 c 0,11,12
 340 -8 340 -8 249 117 c 1,13,14
 215 1 215 1 84 0 c 2,15,-1
 -70 0 l 1,16,-1
 -107 178 l 1,17,-1
 36 178 l 2,18,19
 141 178 141 178 120 273 c 2,20,-1
 63 543 l 1,21,-1
 208 543 l 1,22,-1
 224 466 l 2,23,24
 288 169 288 169 443 169 c 0,25,26
 518 169 518 169 495 273 c 2,27,-1
 438 543 l 1,28,-1
 582 543 l 1,29,-1
 598 466 l 2,30,31
 662 169 662 169 826 169 c 0,32,33
 907 169 907 169 884 273 c 2,34,-1
 827 544 l 1,35,-1
 971 544 l 1,36,-1
 1006 377 l 2,37,38
 1049 178 1049 178 1204 178 c 2,39,-1
 1258 178 l 1,40,-1
 1296 0 l 1,0,-1
EndSplineSet
EndChar

StartChar: afii57429
Encoding: 1589 1589 293
Width: 2206
GlyphClass: 2
Flags: W
AnchorPoint: "Anchor-1" 1230 -885 basechar 0
AnchorPoint: "Anchor-0" 1095 945 basechar 0
LayerCount: 2
Fore
SplineSet
2089 370 m 0,0,1
 2129 179 2129 179 2019 80 c 0,2,3
 1932 1 1932 1 1783 1 c 2,4,-1
 1448 1 l 2,5,6
 1341 1 1341 1 1274 43 c 1,7,8
 1318 -160 1318 -160 1282 -266 c 0,9,10
 1236 -405 1236 -405 1093 -485 c 0,11,12
 960 -559 960 -559 792 -559 c 0,13,14
 522 -559 522 -559 343 -412 c 0,15,16
 186 -283 186 -283 144 -85 c 0,17,18
 106 94 106 94 148 259 c 1,19,-1
 286 220 l 1,20,21
 264 52 264 52 288 -58 c 0,22,23
 327 -240 327 -240 487 -326 c 0,24,25
 603 -388 603 -388 745 -388 c 0,26,27
 924 -388 924 -388 1039 -307 c 0,28,29
 1175 -212 1175 -212 1139 -44 c 0,30,31
 1134 -19 1134 -19 1120 15 c 0,32,33
 1048 201 1048 201 879 413 c 1,34,-1
 994 497 l 1,35,36
 1044 427 1044 427 1105 342 c 0,37,38
 1160 272 1160 272 1218 227 c 1,39,40
 1431 657 1431 657 1724 657 c 0,41,42
 1846 657 1846 657 1954.5 574 c 128,-1,43
 2063 491 2063 491 2089 370 c 0,0,1
1939 359 m 0,44,45
 1926 423 1926 423 1869 462 c 0,46,47
 1817 499 1817 499 1751 499 c 0,48,49
 1532 499 1532 499 1329 212 c 0,50,51
 1320 199 1320 199 1322 191 c 0,52,53
 1325 178 1325 178 1363 178 c 2,54,-1
 1760 178 l 2,55,56
 1870 178 1870 178 1916 241 c 0,57,58
 1953 292 1953 292 1939 359 c 0,44,45
EndSplineSet
Substitution2: "'fina' Terminal Forms in Arabic lookup 3 subtable" afii62792
Substitution2: "'medi' Medial Forms in Arabic lookup 2 subtable" afii62791
Substitution2: "'init' Initial Forms in Arabic lookup 0 subtable" afii62790
EndChar

StartChar: afii62792
Encoding: 65210 65210 294
Width: 2346
GlyphClass: 2
Flags: W
AnchorPoint: "Anchor-1" 1380 -720 basechar 0
AnchorPoint: "Anchor-0" 1185 915 basechar 0
LayerCount: 2
Fore
SplineSet
2346 0 m 1,0,-1
 2324 0 l 2,1,2
 2162 1 2162 1 2037 99 c 1,3,4
 1952 1 1952 1 1781 1 c 2,5,-1
 1446 1 l 2,6,7
 1339 1 1339 1 1272 43 c 1,8,9
 1316 -160 1316 -160 1280 -266 c 0,10,11
 1234 -405 1234 -405 1091 -485 c 0,12,13
 958 -559 958 -559 790 -559 c 0,14,15
 520 -559 520 -559 341 -412 c 0,16,17
 184 -283 184 -283 142 -85 c 0,18,19
 104 94 104 94 146 259 c 1,20,-1
 284 220 l 1,21,22
 262 52 262 52 286 -58 c 0,23,24
 325 -240 325 -240 485 -326 c 0,25,26
 601 -388 601 -388 743 -388 c 0,27,28
 922 -388 922 -388 1037 -307 c 0,29,30
 1173 -212 1173 -212 1137 -44 c 0,31,32
 1132 -19 1132 -19 1118 15 c 0,33,34
 1046 201 1046 201 877 413 c 1,35,-1
 992 497 l 1,36,-1
 1103 341 l 2,37,38
 1159 269 1159 269 1216 227 c 1,39,40
 1429 657 1429 657 1722 657 c 0,41,42
 1844 657 1844 657 1952.5 574 c 128,-1,43
 2061 491 2061 491 2087 370 c 0,44,45
 2104 287 2104 287 2096 227 c 1,46,47
 2163 178 2163 178 2269 178 c 2,48,-1
 2308 178 l 1,49,-1
 2346 0 l 1,0,-1
1937 359 m 0,50,51
 1924 423 1924 423 1867 462 c 0,52,53
 1815 499 1815 499 1749 499 c 0,54,55
 1530 499 1530 499 1327 212 c 0,56,57
 1318 199 1318 199 1320 191 c 0,58,59
 1323 178 1323 178 1361 178 c 2,60,-1
 1758 178 l 2,61,62
 1868 178 1868 178 1914 241 c 0,63,64
 1951 292 1951 292 1937 359 c 0,50,51
EndSplineSet
EndChar

StartChar: afii62790
Encoding: 65211 65211 295
Width: 1294
GlyphClass: 2
Flags: W
AnchorPoint: "Anchor-1" 525 -495 basechar 0
AnchorPoint: "Anchor-0" 435 885 basechar 0
LayerCount: 2
Fore
SplineSet
1179 370 m 0,0,1
 1215 198 1215 198 1130.5 99.5 c 128,-1,2
 1046 1 1046 1 872 1 c 2,3,-1
 536 1 l 2,4,5
 376 1 376 1 272 109 c 1,6,7
 215 1 215 1 72 0 c 2,8,-1
 -70 0 l 1,9,-1
 -107 178 l 1,10,-1
 -19 178 l 2,11,12
 76 178 76 178 102 202 c 0,13,14
 131 231 131 231 112 323 c 2,15,-1
 66 537 l 1,16,-1
 223 537 l 1,17,-1
 254 395 l 2,18,19
 281 266 281 266 312 237 c 1,20,21
 521 657 521 657 813 657 c 0,22,23
 933 657 933 657 1043.5 573 c 128,-1,24
 1154 489 1154 489 1179 370 c 0,0,1
1028 359 m 0,25,26
 1015 423 1015 423 960.5 461 c 128,-1,27
 906 499 906 499 841 499 c 0,28,29
 612 499 612 499 399 178 c 1,30,-1
 849 178 l 2,31,32
 959 178 959 178 1005 241 c 0,33,34
 1042 292 1042 292 1028 359 c 0,25,26
EndSplineSet
EndChar

StartChar: afii62791
Encoding: 65212 65212 296
Width: 1445
GlyphClass: 2
Flags: W
AnchorPoint: "Anchor-1" 570 -585 basechar 0
AnchorPoint: "Anchor-0" 360 945 basechar 0
LayerCount: 2
Fore
SplineSet
1445 0 m 1,0,-1
 1416 0 l 2,1,2
 1254 1 1254 1 1128 99 c 1,3,4
 1042 1 1042 1 872 1 c 2,5,-1
 536 1 l 2,6,7
 376 1 376 1 272 109 c 1,8,9
 215 1 215 1 72 0 c 2,10,-1
 -70 0 l 1,11,-1
 -107 178 l 1,12,-1
 -19 178 l 2,13,14
 76 178 76 178 102 202 c 0,15,16
 131 231 131 231 112 323 c 2,17,-1
 66 537 l 1,18,-1
 223 537 l 1,19,-1
 254 395 l 2,20,21
 281 266 281 266 312 237 c 1,22,23
 521 657 521 657 813 657 c 0,24,25
 933 657 933 657 1043.5 573 c 128,-1,26
 1154 489 1154 489 1179 370 c 0,27,28
 1196 289 1196 289 1186 227 c 1,29,30
 1256 178 1256 178 1360 178 c 2,31,-1
 1407 178 l 1,32,-1
 1445 0 l 1,0,-1
1028 359 m 0,33,34
 1015 423 1015 423 960.5 461 c 128,-1,35
 906 499 906 499 841 499 c 0,36,37
 612 499 612 499 399 178 c 1,38,-1
 849 178 l 2,39,40
 959 178 959 178 1005 241 c 0,41,42
 1042 292 1042 292 1028 359 c 0,33,34
EndSplineSet
EndChar

StartChar: afii57431
Encoding: 1591 1591 301
Width: 1484
GlyphClass: 2
Flags: W
AnchorPoint: "Anchor-1" 705 -525 basechar 0
AnchorPoint: "Anchor-0" 750 1170 basechar 0
LayerCount: 2
Fore
SplineSet
1369 370 m 0,0,1
 1408 185 1408 185 1302 85 c 0,2,3
 1214 1 1214 1 1062 1 c 2,4,-1
 364 1 l 2,5,6
 239 1 239 1 144 59 c 1,7,-1
 119 178 l 1,8,-1
 352 178 l 2,9,10
 419 178 419 178 433 224 c 0,11,12
 444 258 444 258 428 333 c 2,13,-1
 253 1157 l 1,14,-1
 391 1157 l 1,15,-1
 561 356 l 1,16,17
 626 466 626 466 726 547 c 0,18,19
 862 657 862 657 1003 657 c 0,20,21
 1127 657 1127 657 1233 576 c 0,22,23
 1343 492 1343 492 1369 370 c 0,0,1
1219 359 m 0,24,25
 1206 422 1206 422 1149 462 c 0,26,27
 1096 499 1096 499 1031 499 c 0,28,29
 793 499 793 499 580 178 c 1,30,-1
 1040 178 l 2,31,32
 1128 178 1128 178 1180 224 c 0,33,34
 1237 274 1237 274 1219 359 c 0,24,25
EndSplineSet
Substitution2: "'fina' Terminal Forms in Arabic lookup 3 subtable" afii62798
Substitution2: "'medi' Medial Forms in Arabic lookup 2 subtable" afii62797
Substitution2: "'init' Initial Forms in Arabic lookup 0 subtable" afii62796
EndChar

StartChar: afii62798
Encoding: 65218 65218 302
Width: 1634
GlyphClass: 2
Flags: W
AnchorPoint: "Anchor-1" 765 -510 basechar 0
AnchorPoint: "Anchor-0" 795 1095 basechar 0
LayerCount: 2
Fore
SplineSet
1634 0 m 1,0,-1
 1581 0 l 2,1,2
 1434 1 1434 1 1317 101 c 1,3,4
 1230 0 1230 0 1063 0 c 2,5,-1
 365 0 l 2,6,7
 239 1 239 1 144 59 c 1,8,-1
 119 178 l 1,9,-1
 352 178 l 2,10,11
 419 178 419 178 433 224 c 0,12,13
 444 258 444 258 428 333 c 2,14,-1
 253 1157 l 1,15,-1
 391 1157 l 1,16,-1
 561 356 l 1,17,18
 626 466 626 466 726 547 c 0,19,20
 862 657 862 657 1003 657 c 0,21,22
 1127 657 1127 657 1233 576 c 0,23,24
 1343 492 1343 492 1369 370 c 0,25,26
 1385 294 1385 294 1375 224 c 1,27,28
 1445 178 1445 178 1545 178 c 2,29,-1
 1596 178 l 1,30,-1
 1634 0 l 1,0,-1
1219 359 m 0,31,32
 1206 422 1206 422 1149 462 c 0,33,34
 1096 499 1096 499 1031 499 c 0,35,36
 793 499 793 499 580 178 c 1,37,-1
 1040 178 l 2,38,39
 1128 178 1128 178 1180 224 c 0,40,41
 1237 274 1237 274 1219 359 c 0,31,32
EndSplineSet
EndChar

StartChar: afii62796
Encoding: 65219 65219 303
Width: 1169
GlyphClass: 2
Flags: W
AnchorPoint: "Anchor-1" 405 -510 basechar 0
AnchorPoint: "Anchor-0" 555 1080 basechar 0
LayerCount: 2
Fore
SplineSet
1052 370 m 0,0,1
 1091 185 1091 185 985 85 c 0,2,3
 897 1 897 1 746 0 c 2,4,-1
 -70 1 l 1,5,-1
 -107 178 l 1,6,-1
 34 178 l 2,7,8
 102 178 102 178 116 224 c 0,9,10
 126 257 126 257 110 333 c 2,11,-1
 -64 1157 l 1,12,-1
 73 1157 l 1,13,-1
 243 356 l 1,14,15
 310 467 310 467 408 547 c 0,16,17
 543 657 543 657 686 657 c 0,18,19
 810 657 810 657 916 576 c 0,20,21
 1026 492 1026 492 1052 370 c 0,0,1
901 359 m 0,22,23
 888 423 888 423 831 462 c 0,24,25
 779 499 779 499 713 499 c 0,26,27
 476 499 476 499 263 178 c 1,28,-1
 722 178 l 2,29,30
 832 178 832 178 878 241 c 0,31,32
 915 292 915 292 901 359 c 0,22,23
EndSplineSet
EndChar

StartChar: afii62797
Encoding: 65220 65220 304
Width: 1316
GlyphClass: 2
Flags: W
AnchorPoint: "Anchor-1" 450 -585 basechar 0
AnchorPoint: "Anchor-0" 540 1110 basechar 0
LayerCount: 2
Fore
SplineSet
1316 0 m 1,0,-1
 1264 0 l 2,1,2
 1117 1 1117 1 999 101 c 1,3,4
 912 1 912 1 746 0 c 2,5,-1
 -70 0 l 1,6,-1
 -107 178 l 1,7,-1
 34 178 l 2,8,9
 102 178 102 178 116 224 c 0,10,11
 126 257 126 257 110 333 c 2,12,-1
 -64 1157 l 1,13,-1
 73 1157 l 1,14,-1
 243 356 l 1,15,16
 310 467 310 467 408 547 c 0,17,18
 543 657 543 657 686 657 c 0,19,20
 810 657 810 657 916 576 c 0,21,22
 1026 492 1026 492 1052 370 c 0,23,24
 1068 296 1068 296 1058 224 c 1,25,26
 1127 178 1127 178 1227 178 c 2,27,-1
 1278 178 l 1,28,-1
 1316 0 l 1,0,-1
901 359 m 0,29,30
 888 423 888 423 831 462 c 0,31,32
 779 499 779 499 713 499 c 0,33,34
 476 499 476 499 263 178 c 1,35,-1
 722 178 l 2,36,37
 832 178 832 178 878 241 c 0,38,39
 915 292 915 292 901 359 c 0,29,30
EndSplineSet
EndChar

StartChar: afii57433
Encoding: 1593 1593 309
Width: 986
GlyphClass: 2
Flags: W
AnchorPoint: "Anchor-1" 675 -1110 basechar 0
AnchorPoint: "Anchor-0" 210 1005 basechar 0
LayerCount: 2
Fore
SplineSet
1280 -540 m 1,0,1
 1122 -609 1122 -609 1070 -624 c 0,2,3
 930 -666 930 -666 751 -666 c 0,4,5
 548 -666 548 -666 372 -560 c 0,6,7
 171 -440 171 -440 130 -247 c 0,8,9
 95 -83 95 -83 144 35 c 0,10,11
 186 137 186 137 311 239 c 1,12,13
 127 357 127 357 92 522 c 0,14,15
 79 579 79 579 90 629 c 128,-1,16
 101 679 101 679 132.5 717.5 c 128,-1,17
 164 756 164 756 213.5 782 c 128,-1,18
 263 808 263 808 328 819 c 0,19,20
 387 828 387 828 457 828 c 0,21,22
 480 828 480 828 504 827 c 128,-1,23
 528 826 528 826 554 824 c 1,24,-1
 583 690 l 1,25,26
 564 691 564 691 546.5 691.5 c 128,-1,27
 529 692 529 692 513 692 c 0,28,29
 459 692 459 692 421 687 c 128,-1,30
 383 682 383 682 358 673 c 0,31,32
 229 620 229 620 250 520 c 0,33,34
 265 450 265 450 322 408.5 c 128,-1,35
 379 367 379 367 458 367 c 0,36,37
 515 367 515 367 809 493 c 1,38,-1
 885 373 l 1,39,40
 206 106 206 106 271 -201 c 0,41,42
 286 -270 286 -270 329.5 -326 c 128,-1,43
 373 -382 373 -382 437 -421.5 c 128,-1,44
 501 -461 501 -461 583 -482.5 c 128,-1,45
 665 -504 665 -504 756 -504 c 0,46,47
 971 -504 971 -504 1193 -411 c 1,48,-1
 1280 -540 l 1,0,1
EndSplineSet
Substitution2: "'fina' Terminal Forms in Arabic lookup 3 subtable" afii62804
Substitution2: "'medi' Medial Forms in Arabic lookup 2 subtable" afii62803
Substitution2: "'init' Initial Forms in Arabic lookup 0 subtable" afii62802
EndChar

StartChar: afii62804
Encoding: 65226 65226 310
Width: 1024
GlyphClass: 2
Flags: W
AnchorPoint: "Anchor-1" 780 -1125 basechar 0
AnchorPoint: "Anchor-0" 405 885 basechar 0
LayerCount: 2
Fore
SplineSet
1024 0 m 1,0,-1
 963 0 l 2,1,2
 789 1 789 1 610 143 c 1,3,4
 535 99 535 99 485 65 c 128,-1,5
 435 31 435 31 408 6 c 0,6,7
 275 -117 275 -117 305 -256 c 0,8,9
 320 -326 320 -326 361.5 -381.5 c 128,-1,10
 403 -437 403 -437 465.5 -475.5 c 128,-1,11
 528 -514 528 -514 607.5 -534.5 c 128,-1,12
 687 -555 687 -555 779 -555 c 0,13,14
 956 -555 956 -555 1089 -504 c 1,15,-1
 1162 -640 l 1,16,17
 977 -718 977 -718 767 -718 c 0,18,19
 657 -718 657 -718 556 -685.5 c 128,-1,20
 455 -653 455 -653 374.5 -593.5 c 128,-1,21
 294 -534 294 -534 238 -451.5 c 128,-1,22
 182 -369 182 -369 161 -269 c 0,23,24
 130 -126 130 -126 193 -10 c 0,25,26
 241 80 241 80 338 150 c 0,27,28
 358 165 358 165 390.5 186.5 c 128,-1,29
 423 208 423 208 466 238 c 1,30,31
 462 241 462 241 439.5 259 c 128,-1,32
 417 277 417 277 389.5 299 c 128,-1,33
 362 321 362 321 338 340 c 128,-1,34
 314 359 314 359 307 365 c 0,35,36
 202 447 202 447 190 506 c 0,37,38
 174 580 174 580 319 621 c 0,39,40
 419 648 419 648 524 648 c 0,41,42
 581 648 581 648 629 635.5 c 128,-1,43
 677 623 677 623 714.5 598.5 c 128,-1,44
 752 574 752 574 777.5 538.5 c 128,-1,45
 803 503 803 503 812 458 c 0,46,47
 822 410 822 410 781 331 c 0,48,49
 745 264 745 264 710 234 c 1,50,51
 805 178 805 178 961 178 c 2,52,-1
 986 178 l 1,53,-1
 1024 0 l 1,0,-1
666 470 m 0,54,55
 658 505 658 505 548 505 c 0,56,57
 372 505 372 505 381 464 c 0,58,59
 390 422 390 422 572 313 c 1,60,61
 678 410 678 410 666 470 c 0,54,55
EndSplineSet
EndChar

StartChar: afii62802
Encoding: 65227 65227 311
Width: 874
GlyphClass: 2
Flags: W
AnchorPoint: "Anchor-1" 375 -510 basechar 0
AnchorPoint: "Anchor-0" 195 945 basechar 0
LayerCount: 2
Fore
SplineSet
829 0 m 1,0,-1
 -70 0 l 1,1,-1
 -107 178 l 1,2,-1
 97 178 l 1,3,4
 34 262 34 262 10 376 c 0,5,6
 -3 439 -3 439 11 493 c 128,-1,7
 25 547 25 547 62 587.5 c 128,-1,8
 99 628 99 628 156.5 651 c 128,-1,9
 214 674 214 674 287 674 c 0,10,11
 462 674 462 674 672 557 c 1,12,-1
 624 441 l 1,13,14
 463 522 463 522 347 522 c 0,15,16
 308 522 308 522 274 510.5 c 128,-1,17
 240 499 240 499 217.5 478.5 c 128,-1,18
 195 458 195 458 184.5 431 c 128,-1,19
 174 404 174 404 180 373 c 0,20,21
 222 178 222 178 449 178 c 2,22,-1
 791 178 l 1,23,-1
 829 0 l 1,0,-1
EndSplineSet
EndChar

